<?xml version="1.0" encoding="UTF-8" standalone="no"?>
<svg width="76px" height="49px" viewBox="0 0 76 49" version="1.1" xmlns="http://www.w3.org/2000/svg" xmlns:xlink="http://www.w3.org/1999/xlink">
    <!-- Generator: Sketch 3.8.3 (29802) - http://www.bohemiancoding.com/sketch -->
    <title>cvv-icon</title>
    <desc>Created with Sketch.</desc>
    <defs>
        <polygon id="path-1" points="0 48.6667 75.26 48.6667 75.26 -0.0003 0 -0.0003"></polygon>
    </defs>
    <g id="Page-1" stroke="none" stroke-width="1" fill="none" fill-rule="evenodd">
        <g id="cvv-icon">
            <path d="M67.629,47.6667 L7.631,47.6667 C3.969,47.6667 1,44.6977 1,41.0357 L1,7.6307 C1,3.9687 3.969,0.9997 7.631,0.9997 L67.629,0.9997 C71.291,0.9997 74.26,3.9687 74.26,7.6307 L74.26,41.0357 C74.26,44.6977 71.291,47.6667 67.629,47.6667 L67.629,47.6667 Z" id="Stroke-1" stroke="#E3E4E5" stroke-width="2"></path>
            <path d="M61.8615,40.1667 L54.8615,40.1667 C51.9725,40.1667 49.6295,37.8247 49.6295,34.9347 L49.6295,34.5647 C49.6295,31.6757 51.9725,29.3337 54.8615,29.3337 L61.8615,29.3337 C64.7505,29.3337 67.0935,31.6757 67.0935,34.5647 L67.0935,34.9347 C67.0935,37.8247 64.7505,40.1667 61.8615,40.1667" id="Fill-3" fill="#F8F9F9"></path>
            <path d="M61.8615,40.1667 L54.8615,40.1667 C51.9725,40.1667 49.6295,37.8247 49.6295,34.9347 L49.6295,34.5647 C49.6295,31.6757 51.9725,29.3337 54.8615,29.3337 L61.8615,29.3337 C64.7505,29.3337 67.0935,31.6757 67.0935,34.5647 L67.0935,34.9347 C67.0935,37.8247 64.7505,40.1667 61.8615,40.1667 L61.8615,40.1667 Z" id="Stroke-5" stroke="#E3E4E5" stroke-width="2"></path>
            <mask id="mask-2" fill="white">
                <use xlink:href="#path-1"></use>
            </mask>
            <g id="Clip-8"></g>
            <polygon id="Fill-7" fill="#E3E4E5" mask="url(#mask-2)" points="1.38 15.8337 73.88 15.8337 73.88 8.0007 1.38 8.0007"></polygon>
        </g>
    </g>
</svg>