<?xml version="1.0" encoding="UTF-8" standalone="no"?>
<svg width="57px" height="43px" viewBox="0 0 57 43" version="1.1" xmlns="http://www.w3.org/2000/svg" xmlns:xlink="http://www.w3.org/1999/xlink">
    <!-- Generator: Sketch 3.8.3 (29802) - http://www.bohemiancoding.com/sketch -->
    <title>jcb</title>
    <desc>Created with Sketch.</desc>
    <defs></defs>
    <g id="Page-1" stroke="none" stroke-width="1" fill="none" fill-rule="evenodd">
        <g id="jcb" transform="translate(-28.000000, -9.000000)">
            <path d="M84.653,9.422 L84.681,9.422 L84.681,44.525 C84.681,44.735 84.671,44.942 84.653,45.147 C84.637,45.328 84.614,45.506 84.585,45.682 C84.566,45.801 84.543,45.918 84.518,46.035 C84.497,46.129 84.474,46.223 84.45,46.316 C84.429,46.397 84.406,46.477 84.382,46.556 C84.36,46.628 84.338,46.699 84.314,46.77 C84.293,46.834 84.27,46.897 84.246,46.961 C84.225,47.019 84.202,47.078 84.179,47.136 C84.157,47.191 84.134,47.245 84.111,47.299 C84.089,47.35 84.066,47.401 84.043,47.451 C84.021,47.5 83.998,47.547 83.975,47.595 C83.953,47.64 83.931,47.686 83.908,47.731 C83.886,47.774 83.863,47.817 83.84,47.859 C83.818,47.9 83.795,47.941 83.772,47.981 C83.75,48.02 83.727,48.059 83.704,48.098 C83.682,48.135 83.66,48.173 83.637,48.21 C83.614,48.246 83.592,48.282 83.569,48.318 C83.547,48.353 83.524,48.387 83.501,48.421 C83.479,48.454 83.456,48.487 83.433,48.52 C83.411,48.552 83.388,48.585 83.365,48.616 C83.343,48.648 83.321,48.679 83.298,48.709 C83.275,48.739 83.253,48.769 83.23,48.799 C83.208,48.828 83.185,48.857 83.162,48.886 C83.14,48.914 83.117,48.942 83.094,48.97 C83.072,48.997 83.049,49.024 83.027,49.051 C83.004,49.077 82.982,49.104 82.959,49.13 C82.937,49.156 82.914,49.181 82.891,49.207 C82.869,49.232 82.846,49.257 82.823,49.281 C82.801,49.306 82.778,49.33 82.756,49.354 C82.733,49.378 82.711,49.401 82.688,49.424 C82.665,49.447 82.643,49.471 82.62,49.493 C82.598,49.516 82.575,49.538 82.552,49.56 C82.53,49.581 82.507,49.603 82.485,49.625 C82.462,49.646 82.44,49.667 82.417,49.688 C82.394,49.709 82.372,49.729 82.349,49.75 C82.327,49.77 82.304,49.79 82.281,49.81 C82.259,49.829 82.236,49.849 82.214,49.868 C82.191,49.887 82.169,49.907 82.146,49.926 C82.123,49.944 82.101,49.963 82.078,49.981 C82.056,49.999 82.033,50.017 82.01,50.035 C81.988,50.053 81.965,50.071 81.943,50.088 C81.92,50.105 81.898,50.123 81.875,50.14 C81.852,50.157 81.83,50.173 81.807,50.19 C81.784,50.206 81.762,50.223 81.739,50.239 C81.717,50.255 81.694,50.271 81.671,50.287 C81.649,50.303 81.626,50.318 81.604,50.334 C81.581,50.349 81.559,50.364 81.536,50.379 C81.513,50.394 81.491,50.409 81.468,50.424 C81.446,50.438 81.423,50.453 81.4,50.467 C81.378,50.481 81.355,50.495 81.333,50.509 C81.31,50.523 81.288,50.537 81.265,50.55 L81.197,50.59 C81.175,50.603 81.152,50.617 81.129,50.629 C81.107,50.642 81.084,50.655 81.062,50.667 C81.039,50.68 81.017,50.693 80.994,50.705 C80.971,50.717 80.949,50.729 80.926,50.741 C80.903,50.752 80.881,50.765 80.858,50.776 C80.836,50.788 80.813,50.799 80.791,50.81 C80.768,50.821 80.746,50.833 80.723,50.844 C80.7,50.855 80.678,50.865 80.655,50.876 L80.587,50.908 L80.52,50.938 C80.497,50.948 80.474,50.958 80.452,50.968 C80.429,50.978 80.407,50.988 80.384,50.997 C80.362,51.007 80.339,51.016 80.316,51.025 C80.294,51.034 80.271,51.044 80.249,51.053 C80.226,51.062 80.203,51.07 80.181,51.079 C80.158,51.088 80.136,51.096 80.113,51.105 L80.045,51.13 C80.023,51.138 80,51.146 79.977,51.153 C79.955,51.161 79.932,51.17 79.91,51.177 C79.887,51.185 79.864,51.192 79.842,51.199 L79.774,51.221 C79.752,51.228 79.729,51.235 79.706,51.242 L79.639,51.262 C79.616,51.269 79.594,51.276 79.571,51.282 C79.548,51.288 79.526,51.294 79.503,51.3 C79.481,51.307 79.458,51.313 79.435,51.319 L79.368,51.336 L79.3,51.352 L79.232,51.369 C79.21,51.374 79.187,51.378 79.164,51.383 C79.142,51.388 79.119,51.393 79.097,51.398 L79.029,51.412 L78.961,51.425 C78.938,51.429 78.916,51.433 78.893,51.437 C78.871,51.441 78.848,51.445 78.825,51.449 L78.758,51.46 L78.69,51.47 L78.622,51.479 C78.6,51.483 78.577,51.486 78.554,51.489 C78.532,51.492 78.509,51.494 78.487,51.497 C78.464,51.499 78.442,51.502 78.419,51.504 C78.396,51.507 78.374,51.509 78.351,51.512 C78.329,51.514 78.306,51.516 78.283,51.518 C78.261,51.52 78.238,51.522 78.216,51.524 C78.193,51.525 78.17,51.527 78.148,51.528 L78.08,51.533 C78.058,51.534 78.035,51.536 78.012,51.537 C77.99,51.538 77.967,51.538 77.945,51.539 L77.877,51.542 L77.809,51.544 L77.741,51.544 L77.674,51.545 L77.66,51.545 L77.606,51.545 L77.538,51.545 L77.47,51.545 L77.403,51.545 L77.335,51.545 L77.267,51.545 L77.199,51.545 L77.131,51.545 L77.064,51.545 L76.996,51.545 L76.928,51.545 L76.86,51.545 L76.793,51.545 L76.725,51.545 L76.657,51.545 L76.589,51.545 L76.522,51.545 L76.454,51.545 L76.386,51.545 L76.318,51.545 L76.251,51.545 L76.183,51.545 L76.115,51.545 L76.047,51.545 L75.98,51.545 L75.912,51.545 L75.844,51.545 L75.776,51.545 L75.708,51.545 L75.641,51.545 L75.573,51.545 L75.505,51.545 L75.437,51.545 L75.37,51.545 L75.302,51.545 L75.234,51.545 L75.166,51.545 L75.099,51.545 L75.031,51.545 L74.963,51.545 L74.895,51.545 L74.828,51.545 L74.76,51.545 L74.692,51.545 L74.624,51.545 L74.557,51.545 L74.489,51.545 L74.421,51.545 L74.353,51.545 L74.285,51.545 L74.218,51.545 L74.15,51.545 L74.082,51.545 L74.014,51.545 L73.947,51.545 L73.879,51.545 L73.811,51.545 L73.743,51.545 L73.676,51.545 L73.608,51.545 L73.54,51.545 L73.472,51.545 L73.405,51.545 L73.337,51.545 L73.269,51.545 L73.201,51.545 L73.134,51.545 L73.066,51.545 L72.998,51.545 L72.93,51.545 L72.863,51.545 L72.795,51.545 L72.727,51.545 L72.659,51.545 L72.591,51.545 L72.524,51.545 L72.456,51.545 L72.388,51.545 L72.32,51.545 L72.253,51.545 L72.185,51.545 L72.117,51.545 L72.049,51.545 L71.982,51.545 L71.914,51.545 L71.846,51.545 L71.778,51.545 L71.711,51.545 L71.643,51.545 L71.575,51.545 L71.507,51.545 L71.44,51.545 L71.372,51.545 L71.304,51.545 L71.236,51.545 L71.168,51.545 L71.101,51.545 L71.033,51.545 L70.965,51.545 L70.897,51.545 L70.83,51.545 L70.762,51.545 L70.694,51.545 L70.626,51.545 L70.559,51.545 L70.491,51.545 L70.423,51.545 L70.355,51.545 L70.288,51.545 L70.22,51.545 L70.152,51.545 L70.084,51.545 L70.017,51.545 L69.949,51.545 L69.881,51.545 L69.813,51.545 L69.745,51.545 L69.678,51.545 L69.61,51.545 L69.542,51.545 L69.474,51.545 L69.407,51.545 L69.339,51.545 L69.271,51.545 L69.203,51.545 L69.136,51.545 L69.068,51.545 L69,51.545 L68.932,51.545 L68.865,51.545 L68.797,51.545 L68.729,51.545 L68.661,51.545 L68.594,51.545 L68.526,51.545 L68.458,51.545 L68.39,51.545 L68.322,51.545 L68.255,51.545 L68.187,51.545 L68.119,51.545 L68.051,51.545 L67.984,51.545 L67.916,51.545 L67.848,51.545 L67.78,51.545 L67.713,51.545 L67.645,51.545 L67.577,51.545 L67.509,51.545 L67.363,51.545 L67.363,37.233 L67.509,37.233 L67.577,37.233 L67.645,37.233 L67.713,37.233 L67.78,37.233 L67.848,37.233 L67.916,37.233 L67.984,37.233 L68.051,37.233 L68.119,37.233 L68.187,37.233 L68.255,37.233 L68.322,37.233 L68.39,37.233 L68.458,37.233 L68.526,37.233 L68.594,37.233 L68.661,37.233 L68.729,37.233 L68.797,37.233 L68.865,37.233 L68.932,37.233 L69,37.233 L69.068,37.233 L69.136,37.233 L69.203,37.233 L69.271,37.233 L69.339,37.233 L69.407,37.233 L69.474,37.233 L69.542,37.233 L69.61,37.233 L69.678,37.233 L69.745,37.233 L69.813,37.233 L69.881,37.233 L69.949,37.233 L70.017,37.233 L70.084,37.233 L70.152,37.233 L70.22,37.233 L70.288,37.233 L70.355,37.233 L70.423,37.233 L70.491,37.233 L70.559,37.233 L70.626,37.233 L70.694,37.233 L70.762,37.233 L70.83,37.233 L70.897,37.233 L70.965,37.233 L71.033,37.233 L71.101,37.233 L71.168,37.233 L71.236,37.233 L71.304,37.233 L71.372,37.233 L71.44,37.233 L71.507,37.233 L71.575,37.233 L71.643,37.233 L71.711,37.233 L71.778,37.233 L71.846,37.233 L71.914,37.233 L71.982,37.233 L72.049,37.233 L72.117,37.233 L72.185,37.233 L72.253,37.233 L72.32,37.233 L72.388,37.233 L72.456,37.233 L72.524,37.233 L72.591,37.233 L72.659,37.233 L72.727,37.233 L72.795,37.233 L72.863,37.233 L72.93,37.233 L72.998,37.233 L73.066,37.233 L73.134,37.233 L73.201,37.233 L73.269,37.233 L73.337,37.233 L73.405,37.233 L73.472,37.233 L73.54,37.233 L73.608,37.233 L73.676,37.233 L73.743,37.233 L73.811,37.233 L73.879,37.233 L73.947,37.233 L74.014,37.233 L74.082,37.233 L74.15,37.233 L74.218,37.233 L74.285,37.233 L74.353,37.233 L74.421,37.233 L74.489,37.233 L74.557,37.233 L74.624,37.233 L74.692,37.233 L74.76,37.233 L74.828,37.233 L74.895,37.233 L74.963,37.233 L75.031,37.233 L75.099,37.233 L75.166,37.233 L75.234,37.233 L75.302,37.233 L75.37,37.233 L75.437,37.233 L75.505,37.233 L75.573,37.233 L75.641,37.233 L75.708,37.233 L75.776,37.233 L75.844,37.233 L75.912,37.233 L75.98,37.233 L76.047,37.233 L76.115,37.233 L76.183,37.233 L76.251,37.233 L76.318,37.233 L76.386,37.233 L76.454,37.233 L76.522,37.233 L76.589,37.233 L76.657,37.233 L76.725,37.233 L76.793,37.233 L76.86,37.233 L76.928,37.233 L76.996,37.233 L77.064,37.233 L77.131,37.233 L77.199,37.233 L77.267,37.233 L77.335,37.233 L77.403,37.233 L77.47,37.233 L77.538,37.233 L77.606,37.233 L77.674,37.233 L77.741,37.233 L77.809,37.233 L77.877,37.233 L77.945,37.233 L78.012,37.233 L78.08,37.233 L78.148,37.233 L78.216,37.233 L78.252,37.233 L78.283,37.233 L78.351,37.232 L78.419,37.231 C78.442,37.23 78.464,37.23 78.487,37.229 C78.509,37.228 78.532,37.227 78.554,37.226 L78.622,37.223 L78.69,37.219 L78.758,37.214 L78.825,37.209 L78.893,37.203 C78.916,37.2 78.939,37.198 78.961,37.196 C78.984,37.194 79.006,37.191 79.029,37.188 L79.097,37.18 C79.119,37.177 79.142,37.174 79.164,37.171 C79.187,37.168 79.21,37.165 79.232,37.161 C79.255,37.158 79.277,37.154 79.3,37.151 L79.368,37.139 L79.435,37.127 C79.458,37.123 79.481,37.119 79.503,37.114 C79.526,37.11 79.548,37.105 79.571,37.1 L79.639,37.086 C79.661,37.081 79.684,37.076 79.706,37.07 C79.729,37.065 79.752,37.059 79.774,37.054 C79.797,37.048 79.819,37.042 79.842,37.036 C79.865,37.03 79.887,37.024 79.91,37.018 C79.932,37.012 79.955,37.005 79.977,36.999 C80,36.992 80.023,36.986 80.045,36.979 L80.113,36.958 C80.136,36.95 80.158,36.943 80.181,36.935 C80.203,36.928 80.226,36.92 80.249,36.912 C80.271,36.904 80.294,36.896 80.316,36.888 C80.339,36.879 80.362,36.871 80.384,36.862 C80.407,36.853 80.429,36.844 80.452,36.835 C80.474,36.826 80.497,36.817 80.52,36.808 C80.542,36.798 80.565,36.788 80.587,36.778 C80.61,36.768 80.633,36.758 80.655,36.748 C80.678,36.737 80.7,36.727 80.723,36.716 C80.745,36.705 80.768,36.694 80.791,36.683 C80.813,36.672 80.836,36.66 80.858,36.649 C80.881,36.637 80.904,36.625 80.926,36.612 C80.949,36.6 80.972,36.587 80.994,36.575 C81.017,36.562 81.039,36.549 81.062,36.535 C81.084,36.522 81.107,36.508 81.129,36.494 C81.152,36.48 81.175,36.466 81.197,36.451 C81.22,36.436 81.243,36.421 81.265,36.406 C81.288,36.391 81.31,36.375 81.333,36.359 C81.356,36.343 81.378,36.326 81.4,36.31 C81.423,36.293 81.446,36.276 81.468,36.258 C81.491,36.24 81.514,36.222 81.536,36.204 C81.559,36.185 81.581,36.167 81.604,36.147 C81.627,36.128 81.649,36.108 81.671,36.088 C81.694,36.067 81.717,36.046 81.739,36.025 C81.762,36.003 81.785,35.98 81.807,35.958 C81.83,35.935 81.853,35.911 81.875,35.887 C81.898,35.863 81.92,35.838 81.943,35.813 C81.966,35.786 81.988,35.76 82.01,35.733 C82.033,35.705 82.056,35.677 82.078,35.648 C82.101,35.618 82.124,35.587 82.146,35.557 C82.169,35.524 82.192,35.491 82.214,35.457 C82.237,35.421 82.26,35.385 82.281,35.349 C82.305,35.31 82.327,35.27 82.349,35.229 C82.373,35.186 82.395,35.141 82.417,35.096 C82.441,35.046 82.463,34.995 82.485,34.943 C82.509,34.883 82.532,34.823 82.552,34.761 C82.578,34.686 82.6,34.608 82.62,34.53 C82.649,34.415 82.672,34.297 82.688,34.176 C82.708,34.03 82.718,33.879 82.718,33.725 C82.718,33.574 82.708,33.427 82.688,33.285 C82.672,33.169 82.649,33.055 82.62,32.944 C82.6,32.868 82.578,32.794 82.552,32.722 C82.532,32.662 82.509,32.603 82.485,32.546 C82.463,32.496 82.441,32.447 82.417,32.398 C82.395,32.355 82.373,32.312 82.349,32.269 C82.327,32.23 82.305,32.192 82.281,32.154 C82.26,32.119 82.237,32.084 82.214,32.05 C82.192,32.017 82.169,31.985 82.146,31.954 C82.124,31.924 82.101,31.895 82.078,31.866 C82.056,31.838 82.033,31.811 82.01,31.783 C81.988,31.758 81.966,31.732 81.943,31.706 C81.92,31.682 81.898,31.658 81.875,31.634 C81.853,31.611 81.83,31.589 81.807,31.566 C81.785,31.545 81.762,31.523 81.739,31.502 C81.717,31.482 81.694,31.461 81.671,31.441 C81.649,31.422 81.627,31.403 81.604,31.384 C81.581,31.365 81.559,31.347 81.536,31.329 C81.514,31.311 81.491,31.294 81.468,31.277 C81.446,31.26 81.423,31.243 81.4,31.227 C81.378,31.211 81.355,31.195 81.333,31.179 C81.31,31.164 81.288,31.148 81.265,31.133 C81.243,31.119 81.22,31.104 81.197,31.09 C81.175,31.076 81.152,31.062 81.129,31.048 C81.107,31.035 81.084,31.022 81.062,31.008 C81.039,30.996 81.017,30.983 80.994,30.97 C80.971,30.958 80.949,30.946 80.926,30.934 C80.904,30.922 80.881,30.91 80.858,30.899 C80.836,30.887 80.813,30.876 80.791,30.865 C80.768,30.854 80.746,30.843 80.723,30.833 C80.7,30.822 80.678,30.812 80.655,30.802 C80.633,30.792 80.61,30.782 80.587,30.773 C80.565,30.763 80.542,30.753 80.52,30.744 C80.497,30.735 80.475,30.726 80.452,30.717 C80.429,30.708 80.407,30.699 80.384,30.691 C80.362,30.682 80.339,30.674 80.316,30.666 C80.294,30.658 80.271,30.65 80.249,30.642 C80.226,30.634 80.203,30.627 80.181,30.619 C80.158,30.612 80.136,30.605 80.113,30.597 C80.091,30.59 80.068,30.583 80.045,30.577 L79.977,30.557 C79.955,30.55 79.932,30.544 79.91,30.538 C79.887,30.532 79.865,30.526 79.842,30.52 C79.819,30.514 79.797,30.508 79.774,30.503 C79.752,30.497 79.729,30.492 79.706,30.486 C79.684,30.481 79.661,30.476 79.639,30.471 C79.616,30.466 79.594,30.461 79.571,30.457 C79.548,30.452 79.526,30.447 79.503,30.443 L79.435,30.43 L79.368,30.418 C79.345,30.414 79.323,30.41 79.3,30.406 L79.232,30.395 C79.21,30.392 79.187,30.389 79.164,30.386 L79.097,30.376 L79.029,30.368 L78.961,30.36 L78.893,30.353 L78.825,30.347 L78.758,30.341 L78.695,30.336 L78.695,30.255 L78.758,30.245 L78.826,30.234 C78.848,30.23 78.871,30.226 78.893,30.222 L78.961,30.209 C78.984,30.205 79.006,30.2 79.029,30.195 L79.097,30.181 C79.119,30.176 79.142,30.17 79.164,30.165 C79.187,30.159 79.21,30.154 79.232,30.148 C79.255,30.142 79.277,30.136 79.3,30.13 C79.323,30.124 79.345,30.118 79.368,30.111 C79.39,30.105 79.413,30.098 79.435,30.091 C79.458,30.084 79.481,30.077 79.503,30.07 C79.526,30.063 79.548,30.055 79.571,30.048 C79.594,30.04 79.616,30.032 79.639,30.024 C79.661,30.016 79.684,30.008 79.706,29.999 C79.729,29.991 79.752,29.982 79.774,29.973 C79.797,29.965 79.82,29.955 79.842,29.946 C79.865,29.937 79.887,29.927 79.91,29.917 C79.933,29.907 79.955,29.897 79.977,29.887 C80,29.877 80.023,29.866 80.045,29.855 C80.068,29.844 80.091,29.833 80.113,29.822 C80.136,29.81 80.158,29.799 80.181,29.787 C80.204,29.775 80.226,29.762 80.249,29.75 C80.271,29.737 80.294,29.724 80.316,29.711 C80.339,29.698 80.362,29.684 80.384,29.671 C80.407,29.657 80.429,29.643 80.452,29.628 C80.475,29.614 80.497,29.599 80.52,29.583 C80.542,29.568 80.565,29.552 80.587,29.536 C80.61,29.52 80.633,29.504 80.655,29.487 C80.678,29.47 80.701,29.453 80.723,29.435 C80.746,29.417 80.768,29.399 80.791,29.38 C80.814,29.361 80.836,29.342 80.858,29.322 C80.881,29.302 80.904,29.281 80.926,29.261 C80.949,29.239 80.972,29.218 80.994,29.196 C81.017,29.173 81.04,29.15 81.062,29.127 C81.085,29.103 81.107,29.078 81.129,29.053 C81.153,29.028 81.175,29.001 81.197,28.975 C81.22,28.947 81.243,28.919 81.265,28.891 C81.288,28.861 81.311,28.83 81.333,28.8 C81.356,28.767 81.379,28.734 81.4,28.701 C81.424,28.666 81.446,28.63 81.468,28.593 C81.492,28.554 81.514,28.514 81.536,28.474 C81.56,28.43 81.582,28.385 81.604,28.34 C81.628,28.289 81.65,28.237 81.671,28.185 C81.696,28.124 81.719,28.062 81.739,27.999 C81.765,27.921 81.788,27.841 81.807,27.76 C81.838,27.629 81.861,27.495 81.875,27.359 C81.886,27.251 81.892,27.142 81.892,27.032 C81.892,26.916 81.886,26.803 81.875,26.692 C81.861,26.551 81.838,26.415 81.807,26.283 C81.788,26.201 81.765,26.121 81.739,26.042 C81.719,25.979 81.696,25.918 81.671,25.858 C81.65,25.806 81.628,25.755 81.604,25.704 C81.582,25.66 81.56,25.616 81.536,25.573 C81.514,25.533 81.492,25.494 81.468,25.456 C81.446,25.42 81.424,25.385 81.4,25.35 C81.379,25.318 81.356,25.286 81.333,25.254 C81.311,25.225 81.288,25.195 81.265,25.166 C81.243,25.139 81.22,25.111 81.197,25.084 C81.175,25.059 81.152,25.034 81.129,25.009 C81.107,24.985 81.085,24.961 81.062,24.938 C81.039,24.916 81.017,24.893 80.994,24.872 C80.972,24.85 80.949,24.83 80.926,24.809 C80.904,24.789 80.881,24.769 80.858,24.75 C80.836,24.731 80.814,24.712 80.791,24.694 C80.768,24.676 80.746,24.658 80.723,24.641 C80.701,24.624 80.678,24.607 80.655,24.591 C80.633,24.575 80.61,24.559 80.587,24.543 C80.565,24.528 80.542,24.513 80.52,24.498 C80.497,24.484 80.475,24.469 80.452,24.455 C80.429,24.441 80.407,24.428 80.384,24.414 C80.362,24.401 80.339,24.388 80.316,24.375 C80.294,24.362 80.271,24.35 80.249,24.338 C80.226,24.325 80.204,24.314 80.181,24.302 C80.158,24.29 80.136,24.279 80.113,24.268 C80.091,24.257 80.068,24.246 80.045,24.235 C80.023,24.225 80,24.214 79.977,24.204 C79.955,24.194 79.932,24.185 79.91,24.175 C79.887,24.165 79.865,24.156 79.842,24.147 C79.82,24.138 79.797,24.129 79.774,24.12 C79.752,24.111 79.729,24.102 79.706,24.094 C79.684,24.086 79.661,24.078 79.639,24.07 C79.616,24.062 79.594,24.054 79.571,24.046 C79.548,24.039 79.526,24.031 79.503,24.024 C79.481,24.017 79.458,24.01 79.435,24.003 C79.413,23.996 79.39,23.989 79.368,23.983 C79.345,23.976 79.323,23.97 79.3,23.964 C79.277,23.958 79.255,23.952 79.232,23.946 L79.164,23.929 C79.142,23.923 79.119,23.918 79.097,23.912 C79.074,23.907 79.051,23.902 79.029,23.897 L78.961,23.883 C78.938,23.878 78.916,23.873 78.893,23.869 C78.871,23.865 78.848,23.86 78.826,23.856 L78.758,23.844 C78.735,23.841 78.713,23.837 78.69,23.833 L78.622,23.823 L78.554,23.813 L78.487,23.804 L78.419,23.796 L78.351,23.789 L78.283,23.782 L78.216,23.776 L78.148,23.771 L78.08,23.766 L78.012,23.762 L77.985,23.761 L77.945,23.758 L77.877,23.754 L77.809,23.751 L77.741,23.747 L77.674,23.744 L77.606,23.741 L77.538,23.738 L77.47,23.736 L77.403,23.735 L77.335,23.734 L77.297,23.734 L77.267,23.734 L77.199,23.734 L77.131,23.734 L77.064,23.734 L76.996,23.734 L76.928,23.734 L76.86,23.734 L76.793,23.734 L76.725,23.734 L76.657,23.734 L76.589,23.734 L76.522,23.734 L76.454,23.734 L76.386,23.734 L76.318,23.734 L76.251,23.734 L76.183,23.734 L76.115,23.734 L76.047,23.734 L75.98,23.734 L75.912,23.734 L75.844,23.734 L75.776,23.734 L75.708,23.734 L75.641,23.734 L75.573,23.734 L75.505,23.734 L75.437,23.734 L75.37,23.734 L75.302,23.734 L75.234,23.734 L75.166,23.734 L75.099,23.734 L75.031,23.734 L74.963,23.734 L74.895,23.734 L74.828,23.734 L74.76,23.734 L74.692,23.734 L74.624,23.734 L74.557,23.734 L74.489,23.734 L74.421,23.734 L74.353,23.734 L74.286,23.734 L74.218,23.734 L74.15,23.734 L74.082,23.734 L74.014,23.734 L73.947,23.734 L73.879,23.734 L73.811,23.734 L73.743,23.734 L73.676,23.734 L73.608,23.734 L73.54,23.734 L73.472,23.734 L73.405,23.734 L73.337,23.734 L73.269,23.734 L73.201,23.734 L73.134,23.734 L73.066,23.734 L72.998,23.734 L72.93,23.734 L72.863,23.734 L72.795,23.734 L72.727,23.734 L72.659,23.734 L72.591,23.734 L72.524,23.734 L72.456,23.734 L72.388,23.734 L72.32,23.734 L72.253,23.734 L72.185,23.734 L72.117,23.734 L72.049,23.734 L71.982,23.734 L71.914,23.734 L71.846,23.734 L71.778,23.734 L71.711,23.734 L71.643,23.734 L71.575,23.734 L71.507,23.734 L71.44,23.734 L71.372,23.734 L71.304,23.734 L71.236,23.734 L71.168,23.734 L71.101,23.734 L71.033,23.734 L70.965,23.734 L70.897,23.734 L70.83,23.734 L70.762,23.734 L70.694,23.734 L70.626,23.734 L70.559,23.734 L70.491,23.734 L70.423,23.734 L70.355,23.734 L70.288,23.734 L70.22,23.734 L70.152,23.734 L70.084,23.734 L70.017,23.734 L69.949,23.734 L69.881,23.734 L69.813,23.734 L69.745,23.734 L69.678,23.734 L69.61,23.734 L69.542,23.734 L69.474,23.734 L69.407,23.734 L69.339,23.734 L69.271,23.734 L69.203,23.734 L69.136,23.734 L69.068,23.734 L69,23.734 L68.932,23.734 L68.865,23.734 L68.797,23.734 L68.729,23.734 L68.661,23.734 L68.594,23.734 L68.526,23.734 L68.458,23.734 L68.39,23.734 L68.323,23.734 L68.255,23.734 L68.187,23.734 L68.119,23.734 L68.051,23.734 L67.984,23.734 L67.916,23.734 L67.848,23.734 L67.78,23.734 L67.713,23.734 L67.645,23.734 L67.577,23.734 L67.509,23.734 L67.363,23.734 L67.363,16.443 C67.363,15.953 67.414,15.474 67.509,15.012 C67.53,14.913 67.553,14.815 67.577,14.718 C67.598,14.634 67.621,14.552 67.645,14.47 C67.666,14.396 67.689,14.323 67.713,14.251 C67.734,14.185 67.757,14.119 67.78,14.054 C67.802,13.994 67.825,13.934 67.848,13.874 C67.87,13.818 67.893,13.763 67.916,13.708 C67.938,13.656 67.96,13.604 67.984,13.553 C68.006,13.504 68.028,13.456 68.051,13.408 C68.074,13.362 68.096,13.317 68.119,13.271 C68.141,13.228 68.164,13.184 68.187,13.141 C68.209,13.1 68.232,13.059 68.255,13.018 C68.277,12.978 68.3,12.938 68.323,12.899 C68.345,12.861 68.367,12.823 68.39,12.786 C68.413,12.749 68.435,12.713 68.458,12.677 C68.48,12.642 68.503,12.608 68.526,12.573 C68.548,12.539 68.571,12.506 68.594,12.473 C68.616,12.44 68.638,12.407 68.661,12.375 C68.684,12.344 68.706,12.313 68.729,12.282 C68.751,12.252 68.774,12.222 68.797,12.192 C68.819,12.162 68.842,12.133 68.865,12.104 C68.887,12.075 68.91,12.047 68.932,12.019 C68.955,11.992 68.977,11.965 69,11.937 C69.023,11.911 69.045,11.884 69.068,11.857 C69.09,11.831 69.113,11.806 69.136,11.78 C69.158,11.755 69.181,11.73 69.203,11.705 C69.226,11.68 69.248,11.656 69.271,11.632 C69.294,11.608 69.316,11.585 69.339,11.561 C69.361,11.538 69.384,11.515 69.407,11.492 C69.429,11.469 69.452,11.447 69.474,11.425 C69.497,11.403 69.519,11.381 69.542,11.359 C69.565,11.338 69.587,11.317 69.61,11.296 C69.632,11.275 69.655,11.254 69.678,11.233 C69.7,11.213 69.723,11.193 69.745,11.173 C69.768,11.153 69.791,11.134 69.813,11.114 C69.836,11.095 69.858,11.076 69.881,11.057 C69.904,11.038 69.926,11.019 69.949,11.001 C69.971,10.982 69.994,10.964 70.017,10.946 L70.084,10.893 L70.152,10.841 C70.175,10.824 70.197,10.807 70.22,10.79 C70.242,10.774 70.265,10.757 70.288,10.741 L70.355,10.693 C70.378,10.677 70.4,10.661 70.423,10.646 L70.491,10.6 L70.559,10.555 C70.581,10.541 70.604,10.526 70.626,10.512 L70.694,10.469 C70.717,10.455 70.739,10.441 70.762,10.428 C70.784,10.414 70.807,10.401 70.83,10.387 C70.852,10.374 70.875,10.361 70.897,10.348 C70.92,10.335 70.943,10.322 70.965,10.31 C70.988,10.297 71.01,10.284 71.033,10.272 C71.055,10.26 71.078,10.248 71.101,10.236 C71.123,10.224 71.146,10.212 71.168,10.2 C71.191,10.189 71.214,10.177 71.236,10.166 C71.259,10.155 71.281,10.143 71.304,10.132 L71.372,10.1 C71.394,10.089 71.417,10.078 71.44,10.068 C71.462,10.057 71.485,10.047 71.507,10.037 C71.53,10.027 71.553,10.017 71.575,10.007 C71.598,9.997 71.62,9.987 71.643,9.977 C71.665,9.968 71.688,9.959 71.711,9.949 C71.733,9.94 71.756,9.931 71.778,9.922 L71.846,9.895 L71.914,9.869 C71.936,9.861 71.959,9.852 71.982,9.844 C72.004,9.836 72.027,9.828 72.049,9.82 C72.072,9.812 72.094,9.804 72.117,9.796 C72.14,9.788 72.162,9.781 72.185,9.774 L72.253,9.752 C72.275,9.745 72.298,9.737 72.32,9.73 C72.343,9.723 72.366,9.717 72.388,9.71 C72.411,9.703 72.433,9.697 72.456,9.69 C72.478,9.684 72.501,9.678 72.524,9.672 C72.546,9.665 72.569,9.659 72.591,9.653 L72.659,9.636 C72.682,9.63 72.704,9.625 72.727,9.619 C72.75,9.614 72.772,9.608 72.795,9.603 C72.817,9.597 72.84,9.593 72.863,9.588 L72.93,9.573 L72.998,9.559 C73.02,9.554 73.043,9.55 73.066,9.546 C73.088,9.542 73.111,9.537 73.134,9.533 C73.156,9.529 73.179,9.525 73.201,9.522 L73.269,9.51 C73.292,9.507 73.314,9.503 73.337,9.5 C73.359,9.496 73.382,9.493 73.405,9.49 C73.427,9.487 73.45,9.484 73.472,9.481 C73.495,9.478 73.518,9.475 73.54,9.472 L73.608,9.465 C73.63,9.462 73.653,9.46 73.676,9.457 C73.698,9.455 73.721,9.453 73.743,9.451 L73.811,9.445 L73.879,9.44 C73.901,9.438 73.924,9.437 73.947,9.436 C73.969,9.434 73.992,9.433 74.014,9.432 C74.037,9.43 74.06,9.43 74.082,9.429 L74.15,9.426 C74.173,9.425 74.195,9.425 74.218,9.424 C74.24,9.424 74.263,9.423 74.286,9.423 C74.308,9.423 74.331,9.422 74.353,9.422 L74.37,9.422 L74.421,9.422 L74.489,9.422 L74.557,9.422 L74.624,9.422 L74.692,9.422 L74.76,9.422 L74.828,9.422 L74.895,9.422 L74.963,9.422 L75.031,9.422 L75.099,9.422 L75.166,9.422 L75.234,9.422 L75.302,9.422 L75.37,9.422 L75.437,9.422 L75.505,9.422 L75.573,9.422 L75.641,9.422 L75.708,9.422 L75.776,9.422 L75.844,9.422 L75.912,9.422 L75.98,9.422 L76.047,9.422 L76.115,9.422 L76.183,9.422 L76.251,9.422 L76.318,9.422 L76.386,9.422 L76.454,9.422 L76.522,9.422 L76.589,9.422 L76.657,9.422 L76.725,9.422 L76.793,9.422 L76.86,9.422 L76.928,9.422 L76.996,9.422 L77.064,9.422 L77.131,9.422 L77.199,9.422 L77.267,9.422 L77.335,9.422 L77.403,9.422 L77.47,9.422 L77.538,9.422 L77.606,9.422 L77.674,9.422 L77.741,9.422 L77.809,9.422 L77.877,9.422 L77.945,9.422 L78.012,9.422 L78.08,9.422 L78.148,9.422 L78.216,9.422 L78.283,9.422 L78.351,9.422 L78.419,9.422 L78.487,9.422 L78.554,9.422 L78.622,9.422 L78.69,9.422 L78.758,9.422 L78.826,9.422 L78.893,9.422 L78.961,9.422 L79.029,9.422 L79.097,9.422 L79.164,9.422 L79.232,9.422 L79.3,9.422 L79.368,9.422 L79.435,9.422 L79.503,9.422 L79.571,9.422 L79.639,9.422 L79.706,9.422 L79.774,9.422 L79.842,9.422 L79.91,9.422 L79.977,9.422 L80.045,9.422 L80.113,9.422 L80.181,9.422 L80.249,9.422 L80.316,9.422 L80.384,9.422 L80.452,9.422 L80.52,9.422 L80.587,9.422 L80.655,9.422 L80.723,9.422 L80.791,9.422 L80.858,9.422 L80.926,9.422 L80.994,9.422 L81.062,9.422 L81.129,9.422 L81.197,9.422 L81.265,9.422 L81.333,9.422 L81.4,9.422 L81.468,9.422 L81.536,9.422 L81.604,9.422 L81.671,9.422 L81.739,9.422 L81.807,9.422 L81.875,9.422 L81.943,9.422 L82.01,9.422 L82.078,9.422 L82.146,9.422 L82.214,9.422 L82.281,9.422 L82.349,9.422 L82.417,9.422 L82.485,9.422 L82.552,9.422 L82.62,9.422 L82.688,9.422 L82.756,9.422 L82.823,9.422 L82.891,9.422 L82.959,9.422 L83.027,9.422 L83.094,9.422 L83.162,9.422 L83.23,9.422 L83.298,9.422 L83.365,9.422 L83.433,9.422 L83.501,9.422 L83.569,9.422 L83.637,9.422 L83.704,9.422 L83.772,9.422 L83.84,9.422 L83.908,9.422 L83.975,9.422 L84.043,9.422 L84.111,9.422 L84.179,9.422 L84.246,9.422 L84.314,9.422 L84.382,9.422 L84.45,9.422 L84.518,9.422 L84.585,9.422 L84.653,9.422 L84.653,9.422 L84.653,9.422 Z M76.251,27.145 C76.278,27.27 76.293,27.401 76.293,27.54 C76.293,27.678 76.278,27.81 76.251,27.934 C76.233,28.014 76.211,28.091 76.183,28.164 C76.163,28.218 76.14,28.27 76.115,28.32 C76.094,28.362 76.072,28.403 76.048,28.442 C76.026,28.477 76.004,28.511 75.98,28.544 C75.958,28.574 75.936,28.603 75.912,28.631 C75.89,28.658 75.868,28.683 75.844,28.708 C75.822,28.731 75.8,28.754 75.777,28.776 C75.755,28.796 75.732,28.817 75.709,28.836 C75.687,28.855 75.664,28.873 75.641,28.89 C75.619,28.907 75.596,28.923 75.573,28.939 C75.551,28.954 75.528,28.969 75.506,28.983 C75.483,28.997 75.461,29.01 75.438,29.022 C75.416,29.035 75.393,29.047 75.37,29.058 C75.348,29.069 75.325,29.08 75.302,29.09 C75.28,29.1 75.257,29.109 75.235,29.118 C75.212,29.127 75.19,29.136 75.167,29.143 C75.144,29.151 75.122,29.159 75.099,29.165 C75.077,29.172 75.054,29.179 75.031,29.185 C75.009,29.19 74.986,29.196 74.964,29.201 C74.941,29.206 74.919,29.21 74.896,29.214 L74.879,29.217 C74.866,29.219 74.849,29.222 74.828,29.225 C74.808,29.227 74.785,29.23 74.76,29.232 C74.739,29.234 74.716,29.236 74.693,29.238 C74.67,29.24 74.648,29.242 74.625,29.243 C74.602,29.245 74.579,29.246 74.557,29.247 C74.534,29.248 74.511,29.249 74.489,29.249 L74.479,29.249 L74.422,29.249 L74.354,29.249 L74.286,29.249 L74.218,29.249 L74.151,29.249 L74.083,29.249 L74.015,29.249 L73.947,29.249 L73.88,29.249 L73.812,29.249 L73.744,29.249 L73.676,29.249 L73.609,29.249 L73.541,29.249 L73.473,29.249 L73.405,29.249 L73.338,29.249 L73.27,29.249 L73.202,29.249 L73.134,29.249 L73.067,29.249 L72.999,29.249 L72.931,29.249 L72.863,29.249 L72.796,29.249 L72.728,29.249 L72.66,29.249 L72.592,29.249 L72.525,29.249 L72.457,29.249 L72.389,29.249 L72.321,29.249 L72.254,29.249 L72.186,29.249 L72.118,29.249 L72.05,29.249 L71.983,29.249 L71.915,29.249 L71.847,29.249 L71.779,29.249 L71.712,29.249 L71.644,29.249 L71.576,29.249 L71.508,29.249 L71.441,29.249 L71.373,29.249 L71.305,29.249 L71.238,29.249 L71.17,29.249 L71.102,29.249 L71.034,29.249 L70.966,29.249 L70.899,29.249 L70.831,29.249 L70.796,29.249 L70.796,25.831 L70.831,25.831 L70.899,25.831 L70.966,25.831 L71.034,25.831 L71.102,25.831 L71.17,25.831 L71.238,25.831 L71.305,25.831 L71.373,25.831 L71.441,25.831 L71.508,25.831 L71.576,25.831 L71.644,25.831 L71.712,25.831 L71.779,25.831 L71.847,25.831 L71.915,25.831 L71.983,25.831 L72.05,25.831 L72.118,25.831 L72.186,25.831 L72.254,25.831 L72.321,25.831 L72.389,25.831 L72.457,25.831 L72.525,25.831 L72.592,25.831 L72.66,25.831 L72.728,25.831 L72.796,25.831 L72.863,25.831 L72.931,25.831 L72.999,25.831 L73.067,25.831 L73.134,25.831 L73.202,25.831 L73.27,25.831 L73.338,25.831 L73.405,25.831 L73.473,25.831 L73.541,25.831 L73.609,25.831 L73.676,25.831 L73.744,25.831 L73.812,25.831 L73.88,25.831 L73.947,25.831 L74.015,25.831 L74.083,25.831 L74.151,25.831 L74.218,25.831 L74.286,25.831 L74.354,25.831 L74.422,25.831 L74.489,25.831 L74.518,25.831 L74.557,25.832 C74.579,25.833 74.602,25.834 74.625,25.836 C74.648,25.837 74.67,25.839 74.693,25.841 C74.716,25.843 74.739,25.845 74.76,25.847 C74.785,25.849 74.808,25.852 74.828,25.854 C74.849,25.856 74.866,25.859 74.879,25.86 L74.896,25.863 C74.919,25.868 74.941,25.872 74.964,25.877 C74.986,25.882 75.009,25.888 75.031,25.893 C75.054,25.899 75.077,25.906 75.099,25.913 C75.122,25.92 75.144,25.927 75.167,25.935 C75.19,25.943 75.212,25.951 75.235,25.96 C75.257,25.969 75.28,25.979 75.302,25.989 C75.325,25.999 75.348,26.009 75.37,26.021 C75.393,26.032 75.416,26.044 75.438,26.056 C75.461,26.069 75.483,26.082 75.506,26.096 C75.529,26.11 75.551,26.125 75.573,26.14 C75.596,26.155 75.619,26.172 75.641,26.189 C75.664,26.206 75.687,26.224 75.709,26.243 C75.732,26.262 75.755,26.283 75.777,26.303 C75.8,26.325 75.822,26.348 75.844,26.371 C75.868,26.396 75.89,26.421 75.912,26.447 C75.936,26.476 75.958,26.505 75.98,26.535 C76.004,26.568 76.026,26.602 76.048,26.637 C76.072,26.676 76.094,26.717 76.115,26.759 C76.14,26.809 76.163,26.861 76.183,26.915 C76.211,26.988 76.233,27.065 76.251,27.145 L76.251,27.145 Z M70.795,31.337 L70.83,31.337 L70.898,31.337 L70.966,31.337 L71.034,31.337 L71.101,31.337 L71.169,31.337 L71.237,31.337 L71.305,31.337 L71.372,31.337 L71.44,31.337 L71.508,31.337 L71.576,31.337 L71.643,31.337 L71.711,31.337 L71.779,31.337 L71.847,31.337 L71.914,31.337 L71.982,31.337 L72.05,31.337 L72.118,31.337 L72.185,31.337 L72.253,31.337 L72.321,31.337 L72.389,31.337 L72.456,31.337 L72.524,31.337 L72.592,31.337 L72.66,31.337 L72.727,31.337 L72.795,31.337 L72.863,31.337 L72.931,31.337 L72.998,31.337 L73.066,31.337 L73.134,31.337 L73.202,31.337 L73.269,31.337 L73.337,31.337 L73.405,31.337 L73.473,31.337 L73.54,31.337 L73.608,31.337 L73.676,31.337 L73.744,31.337 L73.811,31.337 L73.879,31.337 L73.947,31.337 L74.015,31.337 L74.082,31.337 L74.15,31.337 L74.218,31.337 L74.286,31.337 L74.354,31.337 L74.421,31.337 L74.489,31.337 L74.557,31.337 L74.624,31.337 L74.692,31.337 L74.76,31.337 L74.828,31.337 L74.884,31.337 L74.896,31.337 C74.916,31.338 74.939,31.339 74.963,31.34 C74.985,31.341 75.008,31.343 75.031,31.345 C75.053,31.346 75.076,31.348 75.099,31.35 C75.122,31.352 75.144,31.355 75.166,31.357 C75.19,31.36 75.213,31.362 75.234,31.365 C75.258,31.369 75.281,31.372 75.302,31.376 C75.317,31.378 75.331,31.381 75.343,31.383 L75.37,31.389 C75.392,31.395 75.415,31.4 75.437,31.407 C75.46,31.413 75.483,31.419 75.505,31.427 C75.528,31.434 75.551,31.442 75.573,31.45 C75.596,31.458 75.618,31.467 75.641,31.476 C75.664,31.485 75.686,31.495 75.709,31.505 C75.731,31.516 75.754,31.527 75.776,31.538 C75.799,31.55 75.822,31.562 75.844,31.574 C75.867,31.587 75.889,31.601 75.912,31.614 C75.935,31.629 75.957,31.643 75.979,31.659 C76.002,31.674 76.025,31.691 76.047,31.707 C76.07,31.725 76.093,31.743 76.115,31.761 C76.138,31.78 76.161,31.8 76.183,31.82 C76.206,31.842 76.229,31.863 76.251,31.886 C76.274,31.91 76.296,31.934 76.318,31.959 C76.342,31.985 76.364,32.013 76.386,32.041 C76.41,32.071 76.432,32.102 76.454,32.134 C76.477,32.169 76.5,32.204 76.521,32.241 C76.546,32.282 76.568,32.325 76.589,32.369 C76.614,32.42 76.637,32.474 76.657,32.529 C76.684,32.602 76.707,32.679 76.725,32.758 C76.756,32.894 76.772,33.038 76.772,33.189 C76.772,33.34 76.756,33.485 76.725,33.622 C76.707,33.701 76.684,33.778 76.657,33.852 C76.637,33.907 76.614,33.96 76.589,34.012 C76.568,34.056 76.546,34.098 76.521,34.14 C76.5,34.176 76.478,34.212 76.454,34.247 C76.432,34.279 76.409,34.31 76.386,34.34 C76.364,34.368 76.342,34.395 76.318,34.422 C76.296,34.447 76.274,34.471 76.251,34.495 C76.229,34.517 76.206,34.539 76.183,34.56 C76.161,34.58 76.138,34.6 76.115,34.619 C76.093,34.638 76.07,34.656 76.047,34.673 C76.025,34.69 76.002,34.706 75.979,34.721 C75.957,34.737 75.935,34.751 75.912,34.765 C75.889,34.779 75.867,34.793 75.844,34.805 C75.822,34.818 75.799,34.83 75.776,34.841 C75.754,34.853 75.731,34.864 75.709,34.874 C75.686,34.884 75.664,34.894 75.641,34.903 C75.618,34.912 75.596,34.921 75.573,34.929 C75.551,34.937 75.528,34.945 75.505,34.952 C75.483,34.959 75.46,34.965 75.437,34.971 C75.415,34.978 75.392,34.983 75.37,34.988 L75.343,34.994 C75.331,34.997 75.317,35 75.302,35.003 C75.281,35.006 75.258,35.01 75.234,35.013 C75.213,35.016 75.19,35.019 75.166,35.021 C75.144,35.024 75.122,35.026 75.099,35.028 C75.076,35.03 75.053,35.032 75.031,35.034 C75.008,35.035 74.985,35.037 74.963,35.038 C74.939,35.039 74.916,35.04 74.896,35.041 L74.859,35.041 L74.828,35.041 L74.76,35.041 L74.692,35.041 L74.624,35.041 L74.557,35.041 L74.489,35.041 L74.421,35.041 L74.354,35.041 L74.286,35.041 L74.218,35.041 L74.15,35.041 L74.082,35.041 L74.015,35.041 L73.947,35.041 L73.879,35.041 L73.811,35.041 L73.744,35.041 L73.676,35.041 L73.608,35.041 L73.54,35.041 L73.473,35.041 L73.405,35.041 L73.337,35.041 L73.269,35.041 L73.202,35.041 L73.134,35.041 L73.066,35.041 L72.998,35.041 L72.931,35.041 L72.863,35.041 L72.795,35.041 L72.727,35.041 L72.66,35.041 L72.592,35.041 L72.524,35.041 L72.456,35.041 L72.389,35.041 L72.321,35.041 L72.253,35.041 L72.185,35.041 L72.118,35.041 L72.05,35.041 L71.982,35.041 L71.914,35.041 L71.847,35.041 L71.779,35.041 L71.711,35.041 L71.643,35.041 L71.576,35.041 L71.508,35.041 L71.44,35.041 L71.372,35.041 L71.305,35.041 L71.237,35.041 L71.169,35.041 L71.101,35.041 L71.034,35.041 L70.966,35.041 L70.898,35.041 L70.83,35.041 L70.795,35.041 L70.795,31.337 L70.795,31.337 Z" id="Fill-211" fill="#50B347"></path>
            <path d="M28.6629,33.8514 C28.6149,33.8284 28.5659,33.8054 28.5179,33.7814 L28.5179,16.4434 C28.5179,15.9544 28.5679,15.4764 28.6629,15.0154 C28.6829,14.9164 28.7059,14.8184 28.7309,14.7214 C28.7519,14.6384 28.7739,14.5554 28.7979,14.4734 C28.8199,14.4004 28.8419,14.3274 28.8659,14.2554 C28.8879,14.1894 28.9099,14.1234 28.9339,14.0574 C28.9549,13.9974 28.9779,13.9374 29.0009,13.8774 C29.0229,13.8224 29.0459,13.7664 29.0689,13.7114 C29.0909,13.6594 29.1129,13.6084 29.1369,13.5564 C29.1589,13.5084 29.1809,13.4594 29.2039,13.4114 C29.2259,13.3654 29.2489,13.3204 29.2719,13.2744 C29.2939,13.2314 29.3159,13.1884 29.3389,13.1454 C29.3619,13.1034 29.3839,13.0624 29.4069,13.0214 C29.4289,12.9814 29.4519,12.9424 29.4749,12.9024 C29.4969,12.8644 29.5189,12.8264 29.5419,12.7894 C29.5649,12.7524 29.5869,12.7164 29.6099,12.6804 C29.6319,12.6464 29.6549,12.6114 29.6779,12.5774 C29.6999,12.5434 29.7219,12.5094 29.7449,12.4764 C29.7679,12.4434 29.7899,12.4114 29.8129,12.3784 C29.8349,12.3474 29.8579,12.3164 29.8809,12.2864 C29.9029,12.2554 29.9249,12.2254 29.9479,12.1954 C29.9709,12.1664 29.9929,12.1364 30.0159,12.1074 C30.0379,12.0794 30.0609,12.0514 30.0839,12.0234 C30.1059,11.9954 30.1279,11.9684 30.1509,11.9414 C30.1739,11.9144 30.1959,11.8874 30.2189,11.8614 C30.2409,11.8354 30.2639,11.8094 30.2859,11.7844 C30.3089,11.7594 30.3309,11.7334 30.3539,11.7084 C30.3759,11.6844 30.3989,11.6604 30.4219,11.6364 C30.4439,11.6124 30.4669,11.5884 30.4889,11.5654 C30.5119,11.5414 30.5339,11.5184 30.5569,11.4954 C30.5789,11.4734 30.6019,11.4514 30.6249,11.4284 C30.6469,11.4064 30.6699,11.3844 30.6919,11.3624 C30.7149,11.3414 30.7369,11.3204 30.7599,11.2994 C30.7819,11.2784 30.8049,11.2574 30.8279,11.2374 C30.8499,11.2174 30.8729,11.1974 30.8949,11.1774 C30.9179,11.1574 30.9399,11.1374 30.9629,11.1184 C30.9849,11.0984 31.0079,11.0794 31.0309,11.0604 C31.0529,11.0424 31.0749,11.0234 31.0979,11.0044 C31.1209,10.9864 31.1429,10.9684 31.1659,10.9504 C31.1879,10.9324 31.2109,10.9144 31.2329,10.8964 C31.2559,10.8794 31.2779,10.8624 31.3009,10.8444 C31.3239,10.8274 31.3459,10.8114 31.3689,10.7944 L31.4359,10.7444 C31.4589,10.7284 31.4809,10.7124 31.5039,10.6964 C31.5259,10.6804 31.5489,10.6654 31.5719,10.6494 C31.5939,10.6344 31.6169,10.6194 31.6389,10.6034 C31.6619,10.5884 31.6839,10.5744 31.7069,10.5594 C31.7289,10.5444 31.7519,10.5294 31.7749,10.5154 C31.7969,10.5014 31.8199,10.4874 31.8419,10.4734 C31.8649,10.4594 31.8869,10.4454 31.9099,10.4314 C31.9319,10.4174 31.9549,10.4044 31.9769,10.3914 C31.9999,10.3784 32.0219,10.3644 32.0449,10.3514 C32.0679,10.3384 32.0899,10.3264 32.1129,10.3134 C32.1349,10.3014 32.1579,10.2884 32.1799,10.2754 C32.2029,10.2634 32.2259,10.2514 32.2479,10.2394 C32.2709,10.2274 32.2929,10.2154 32.3159,10.2044 C32.3379,10.1924 32.3609,10.1814 32.3829,10.1694 L32.4509,10.1364 C32.4739,10.1244 32.4959,10.1134 32.5189,10.1034 C32.5409,10.0924 32.5639,10.0824 32.5859,10.0714 C32.6089,10.0614 32.6309,10.0504 32.6539,10.0404 C32.6759,10.0294 32.6989,10.0204 32.7219,10.0104 C32.7439,10.0004 32.7669,9.9904 32.7889,9.9804 C32.8119,9.9714 32.8339,9.9624 32.8569,9.9524 L32.9249,9.9254 L32.9919,9.8984 L33.0599,9.8724 C33.0819,9.8644 33.1049,9.8554 33.1269,9.8464 C33.1499,9.8384 33.1729,9.8314 33.1949,9.8234 C33.2179,9.8154 33.2399,9.8074 33.2629,9.7994 L33.3299,9.7764 L33.3979,9.7544 C33.4209,9.7474 33.4429,9.7404 33.4659,9.7334 C33.4879,9.7264 33.5109,9.7194 33.5329,9.7134 C33.5559,9.7064 33.5779,9.6994 33.6009,9.6924 C33.6229,9.6864 33.6459,9.6804 33.6689,9.6744 L33.7359,9.6554 C33.7589,9.6494 33.7809,9.6434 33.8039,9.6384 C33.8259,9.6324 33.8489,9.6274 33.8709,9.6214 C33.8939,9.6164 33.9169,9.6104 33.9389,9.6054 C33.9619,9.5994 33.9839,9.5954 34.0069,9.5904 L34.0739,9.5754 C34.0969,9.5704 34.1189,9.5654 34.1419,9.5614 C34.1649,9.5564 34.1869,9.5524 34.2099,9.5484 C34.2319,9.5434 34.2549,9.5394 34.2769,9.5354 C34.2999,9.5314 34.3219,9.5274 34.3449,9.5234 L34.4129,9.5124 C34.4349,9.5084 34.4579,9.5044 34.4799,9.5014 C34.5029,9.4974 34.5249,9.4954 34.5479,9.4914 C34.5699,9.4884 34.5929,9.4854 34.6159,9.4824 L34.6829,9.4734 L34.7509,9.4664 C34.7729,9.4634 34.7959,9.4604 34.8179,9.4584 C34.8409,9.4564 34.8639,9.4544 34.8859,9.4524 L34.9539,9.4464 C34.9759,9.4444 34.9989,9.4424 35.0209,9.4414 C35.0439,9.4394 35.0669,9.4384 35.0889,9.4364 C35.1119,9.4354 35.1339,9.4334 35.1569,9.4324 C35.1789,9.4314 35.2019,9.4304 35.2239,9.4294 L35.2919,9.4264 C35.3149,9.4254 35.3369,9.4244 35.3599,9.4244 C35.3819,9.4234 35.4049,9.4234 35.4269,9.4234 C35.4499,9.4234 35.4719,9.4224 35.4949,9.4224 L35.5249,9.4224 L35.5629,9.4224 L35.6299,9.4224 L35.6979,9.4224 L35.7649,9.4224 L35.8329,9.4224 L35.9009,9.4224 L35.9679,9.4224 L36.0359,9.4224 L36.1039,9.4224 L36.1709,9.4224 L36.2389,9.4224 L36.3069,9.4224 L36.3739,9.4224 L36.4419,9.4224 L36.5099,9.4224 L36.5769,9.4224 L36.6449,9.4224 L36.7119,9.4224 L36.7799,9.4224 L36.8479,9.4224 L36.9149,9.4224 L36.9829,9.4224 L37.0509,9.4224 L37.1179,9.4224 L37.1859,9.4224 L37.2539,9.4224 L37.3209,9.4224 L37.3889,9.4224 L37.4569,9.4224 L37.5239,9.4224 L37.5919,9.4224 L37.6589,9.4224 L37.7269,9.4224 L37.7949,9.4224 L37.8619,9.4224 L37.9299,9.4224 L37.9979,9.4224 L38.0649,9.4224 L38.1329,9.4224 L38.2009,9.4224 L38.2679,9.4224 L38.3359,9.4224 L38.4039,9.4224 L38.4709,9.4224 L38.5389,9.4224 L38.6059,9.4224 L38.6739,9.4224 L38.7419,9.4224 L38.8089,9.4224 L38.8769,9.4224 L38.9449,9.4224 L39.0119,9.4224 L39.0799,9.4224 L39.1479,9.4224 L39.2149,9.4224 L39.2829,9.4224 L39.3509,9.4224 L39.4179,9.4224 L39.4859,9.4224 L39.5529,9.4224 L39.6209,9.4224 L39.6889,9.4224 L39.7559,9.4224 L39.8239,9.4224 L39.8919,9.4224 L39.9589,9.4224 L40.0269,9.4224 L40.0949,9.4224 L40.1619,9.4224 L40.2299,9.4224 L40.2979,9.4224 L40.3649,9.4224 L40.4329,9.4224 L40.4999,9.4224 L40.5679,9.4224 L40.6359,9.4224 L40.7029,9.4224 L40.7709,9.4224 L40.8389,9.4224 L40.9059,9.4224 L40.9739,9.4224 L41.0419,9.4224 L41.1089,9.4224 L41.1769,9.4224 L41.2439,9.4224 L41.3119,9.4224 L41.3799,9.4224 L41.4469,9.4224 L41.5149,9.4224 L41.5829,9.4224 L41.6499,9.4224 L41.7179,9.4224 L41.7859,9.4224 L41.8529,9.4224 L41.9209,9.4224 L41.9889,9.4224 L42.0559,9.4224 L42.1239,9.4224 L42.1919,9.4224 L42.2589,9.4224 L42.3269,9.4224 L42.3939,9.4224 L42.4619,9.4224 L42.5299,9.4224 L42.5969,9.4224 L42.6649,9.4224 L42.7329,9.4224 L42.7999,9.4224 L42.8679,9.4224 L42.9359,9.4224 L43.0029,9.4224 L43.0709,9.4224 L43.1379,9.4224 L43.2059,9.4224 L43.2739,9.4224 L43.3409,9.4224 L43.4089,9.4224 L43.4769,9.4224 L43.5439,9.4224 L43.6119,9.4224 L43.6799,9.4224 L43.7469,9.4224 L43.8149,9.4224 L43.8829,9.4224 L43.9499,9.4224 L44.0179,9.4224 L44.0849,9.4224 L44.1529,9.4224 L44.2209,9.4224 L44.2879,9.4224 L44.3559,9.4224 L44.4239,9.4224 L44.4909,9.4224 L44.5589,9.4224 L44.6269,9.4224 L44.6939,9.4224 L44.7619,9.4224 L44.8299,9.4224 L44.8969,9.4224 L44.9649,9.4224 L45.0319,9.4224 L45.0999,9.4224 L45.1679,9.4224 L45.2349,9.4224 L45.3029,9.4224 L45.3709,9.4224 L45.4379,9.4224 L45.5059,9.4224 L45.5739,9.4224 L45.6409,9.4224 L45.7089,9.4224 L45.7769,9.4224 L45.8339,9.4224 L45.8339,44.5254 C45.8339,44.8304 45.8139,45.1314 45.7769,45.4264 C45.7579,45.5684 45.7349,45.7094 45.7089,45.8484 C45.6889,45.9544 45.6659,46.0594 45.6409,46.1634 C45.6199,46.2514 45.5979,46.3384 45.5739,46.4244 C45.5519,46.5004 45.5299,46.5764 45.5059,46.6504 C45.4839,46.7184 45.4619,46.7854 45.4379,46.8524 C45.4169,46.9144 45.3939,46.9764 45.3709,47.0374 C45.3489,47.0944 45.3259,47.1504 45.3029,47.2064 C45.2809,47.2594 45.2589,47.3124 45.2349,47.3644 C45.2129,47.4144 45.1909,47.4634 45.1679,47.5134 C45.1459,47.5594 45.1229,47.6064 45.0999,47.6524 C45.0779,47.6964 45.0549,47.7404 45.0319,47.7844 C45.0099,47.8264 44.9879,47.8684 44.9649,47.9104 C44.9429,47.9504 44.9199,47.9914 44.8969,48.0304 C44.8749,48.0694 44.8519,48.1074 44.8299,48.1454 C44.8069,48.1824 44.7849,48.2184 44.7619,48.2544 C44.7399,48.2904 44.7169,48.3254 44.6939,48.3604 C44.6719,48.3944 44.6499,48.4284 44.6269,48.4624 C44.6039,48.4954 44.5819,48.5274 44.5589,48.5604 C44.5369,48.5914 44.5139,48.6234 44.4909,48.6544 C44.4689,48.6854 44.4459,48.7154 44.4239,48.7464 C44.4009,48.7754 44.3789,48.8054 44.3559,48.8344 C44.3339,48.8624 44.3109,48.8914 44.2879,48.9194 C44.2659,48.9474 44.2439,48.9754 44.2209,49.0024 C44.1979,49.0294 44.1759,49.0564 44.1529,49.0824 C44.1309,49.1094 44.1079,49.1354 44.0849,49.1604 C44.0629,49.1864 44.0409,49.2114 44.0179,49.2374 C43.9959,49.2614 43.9729,49.2854 43.9499,49.3104 C43.9279,49.3344 43.9049,49.3584 43.8829,49.3824 C43.8599,49.4054 43.8379,49.4284 43.8149,49.4514 C43.7919,49.4744 43.7699,49.4964 43.7469,49.5194 C43.7249,49.5414 43.7019,49.5634 43.6799,49.5854 C43.6569,49.6064 43.6349,49.6284 43.6119,49.6494 C43.5899,49.6704 43.5669,49.6914 43.5439,49.7124 C43.5219,49.7324 43.4989,49.7524 43.4769,49.7724 C43.4539,49.7924 43.4319,49.8134 43.4089,49.8324 C43.3869,49.8524 43.3639,49.8704 43.3409,49.8904 C43.3189,49.9094 43.2969,49.9284 43.2739,49.9474 C43.2509,49.9654 43.2289,49.9834 43.2059,50.0014 C43.1839,50.0194 43.1609,50.0374 43.1379,50.0554 C43.1159,50.0734 43.0929,50.0904 43.0709,50.1074 C43.0479,50.1244 43.0259,50.1424 43.0029,50.1584 C42.9809,50.1754 42.9579,50.1914 42.9359,50.2084 C42.9129,50.2244 42.8909,50.2414 42.8679,50.2574 C42.8459,50.2734 42.8229,50.2884 42.7999,50.3044 C42.7779,50.3194 42.7549,50.3354 42.7329,50.3504 C42.7099,50.3654 42.6879,50.3804 42.6649,50.3954 C42.6419,50.4104 42.6199,50.4254 42.5969,50.4394 C42.5749,50.4544 42.5519,50.4684 42.5299,50.4824 C42.5069,50.4964 42.4849,50.5104 42.4619,50.5244 C42.4399,50.5384 42.4169,50.5514 42.3939,50.5644 C42.3719,50.5784 42.3489,50.5914 42.3269,50.6044 C42.3039,50.6174 42.2819,50.6304 42.2589,50.6434 C42.2369,50.6554 42.2139,50.6684 42.1919,50.6804 C42.1689,50.6934 42.1469,50.7054 42.1239,50.7174 L42.0559,50.7534 C42.0339,50.7644 42.0109,50.7764 41.9889,50.7884 C41.9659,50.7994 41.9439,50.8104 41.9209,50.8214 C41.8979,50.8324 41.8759,50.8444 41.8529,50.8554 C41.8309,50.8664 41.8079,50.8764 41.7859,50.8864 C41.7629,50.8974 41.7409,50.9084 41.7179,50.9184 C41.6959,50.9284 41.6729,50.9384 41.6499,50.9484 L41.5829,50.9784 L41.5149,51.0064 C41.4929,51.0164 41.4699,51.0254 41.4469,51.0344 C41.4249,51.0434 41.4019,51.0524 41.3799,51.0614 C41.3569,51.0704 41.3349,51.0784 41.3119,51.0874 C41.2899,51.0964 41.2669,51.1044 41.2439,51.1134 C41.2219,51.1214 41.1989,51.1294 41.1769,51.1374 L41.1089,51.1614 L41.0419,51.1844 C41.0189,51.1924 40.9959,51.1994 40.9739,51.2064 C40.9509,51.2134 40.9289,51.2214 40.9059,51.2284 C40.8839,51.2354 40.8609,51.2424 40.8389,51.2484 L40.7709,51.2684 L40.7029,51.2884 C40.6809,51.2944 40.6579,51.3004 40.6359,51.3064 C40.6129,51.3124 40.5909,51.3184 40.5679,51.3244 C40.5459,51.3304 40.5229,51.3354 40.4999,51.3414 C40.4779,51.3464 40.4549,51.3524 40.4329,51.3574 L40.3649,51.3734 L40.2979,51.3884 C40.2749,51.3924 40.2529,51.3984 40.2299,51.4024 C40.2069,51.4074 40.1849,51.4114 40.1619,51.4154 C40.1399,51.4204 40.1169,51.4244 40.0949,51.4284 L40.0269,51.4404 C40.0039,51.4444 39.9819,51.4484 39.9589,51.4524 C39.9369,51.4554 39.9139,51.4594 39.8919,51.4634 C39.8689,51.4664 39.8469,51.4694 39.8239,51.4734 L39.7559,51.4824 C39.7339,51.4854 39.7109,51.4884 39.6889,51.4914 C39.6659,51.4944 39.6439,51.4964 39.6209,51.4994 C39.5989,51.5014 39.5759,51.5044 39.5529,51.5064 C39.5309,51.5094 39.5079,51.5114 39.4859,51.5134 L39.4179,51.5194 C39.3959,51.5214 39.3729,51.5234 39.3509,51.5254 C39.3279,51.5274 39.3049,51.5284 39.2829,51.5294 L39.2149,51.5334 L39.1479,51.5374 C39.1249,51.5384 39.1019,51.5394 39.0799,51.5404 C39.0569,51.5404 39.0349,51.5424 39.0119,51.5424 C38.9899,51.5434 38.9669,51.5434 38.9449,51.5444 L38.8769,51.5444 C38.8559,51.5454 38.8349,51.5454 38.8139,51.5454 L38.8089,51.5454 L38.7419,51.5454 L38.6739,51.5454 L38.6059,51.5454 L38.5389,51.5454 L38.4709,51.5454 L38.4039,51.5454 L38.3359,51.5454 L38.2679,51.5454 L38.2009,51.5454 L38.1329,51.5454 L38.0649,51.5454 L37.9979,51.5454 L37.9299,51.5454 L37.8619,51.5454 L37.7949,51.5454 L37.7269,51.5454 L37.6589,51.5454 L37.5919,51.5454 L37.5239,51.5454 L37.4569,51.5454 L37.3889,51.5454 L37.3209,51.5454 L37.2539,51.5454 L37.1859,51.5454 L37.1179,51.5454 L37.0509,51.5454 L36.9829,51.5454 L36.9149,51.5454 L36.8479,51.5454 L36.7799,51.5454 L36.7119,51.5454 L36.6449,51.5454 L36.5769,51.5454 L36.5099,51.5454 L36.4419,51.5454 L36.3739,51.5454 L36.3069,51.5454 L36.2389,51.5454 L36.1709,51.5454 L36.1039,51.5454 L36.0359,51.5454 L35.9679,51.5454 L35.9009,51.5454 L35.8329,51.5454 L35.7649,51.5454 L35.6979,51.5454 L35.6299,51.5454 L35.5629,51.5454 L35.4949,51.5454 L35.4269,51.5454 L35.3599,51.5454 L35.2919,51.5454 L35.2239,51.5454 L35.1569,51.5454 L35.0889,51.5454 L35.0209,51.5454 L34.9539,51.5454 L34.8859,51.5454 L34.8179,51.5454 L34.7509,51.5454 L34.6829,51.5454 L34.6159,51.5454 L34.5479,51.5454 L34.4799,51.5454 L34.4129,51.5454 L34.3449,51.5454 L34.2769,51.5454 L34.2099,51.5454 L34.1419,51.5454 L34.0739,51.5454 L34.0069,51.5454 L33.9389,51.5454 L33.8709,51.5454 L33.8039,51.5454 L33.7359,51.5454 L33.6689,51.5454 L33.6009,51.5454 L33.5329,51.5454 L33.4659,51.5454 L33.3979,51.5454 L33.3299,51.5454 L33.2629,51.5454 L33.1949,51.5454 L33.1269,51.5454 L33.0599,51.5454 L32.9919,51.5454 L32.9249,51.5454 L32.8569,51.5454 L32.7889,51.5454 L32.7219,51.5454 L32.6539,51.5454 L32.5859,51.5454 L32.5189,51.5454 L32.4509,51.5454 L32.3829,51.5454 L32.3159,51.5454 L32.2479,51.5454 L32.1799,51.5454 L32.1129,51.5454 L32.0449,51.5454 L31.9769,51.5454 L31.9099,51.5454 L31.8419,51.5454 L31.7749,51.5454 L31.7069,51.5454 L31.6389,51.5454 L31.5719,51.5454 L31.5039,51.5454 L31.4359,51.5454 L31.3689,51.5454 L31.3009,51.5454 L31.2329,51.5454 L31.1659,51.5454 L31.0979,51.5454 L31.0309,51.5454 L30.9629,51.5454 L30.8949,51.5454 L30.8279,51.5454 L30.7599,51.5454 L30.6919,51.5454 L30.6249,51.5454 L30.5569,51.5454 L30.4889,51.5454 L30.4219,51.5454 L30.3539,51.5454 L30.2859,51.5454 L30.2189,51.5454 L30.1509,51.5454 L30.0839,51.5454 L30.0159,51.5454 L29.9479,51.5454 L29.8809,51.5454 L29.8129,51.5454 L29.7449,51.5454 L29.6779,51.5454 L29.6099,51.5454 L29.5419,51.5454 L29.4749,51.5454 L29.4069,51.5454 L29.3389,51.5454 L29.2719,51.5454 L29.2039,51.5454 L29.1369,51.5454 L29.0689,51.5454 L29.0009,51.5454 L28.9339,51.5454 L28.8659,51.5454 L28.7979,51.5454 L28.7309,51.5454 L28.6629,51.5454 L28.5179,51.5454 L28.5179,36.7504 C28.5179,36.7504 28.5679,36.7634 28.6629,36.7874 L28.7309,36.8044 L28.7979,36.8214 L28.8659,36.8374 L28.9339,36.8534 L29.0009,36.8694 L29.0689,36.8844 L29.1369,36.9004 L29.2039,36.9154 L29.2719,36.9294 L29.3389,36.9444 L29.4069,36.9594 L29.4749,36.9734 L29.5419,36.9874 L29.6099,37.0014 L29.6779,37.0144 L29.7449,37.0284 L29.8129,37.0414 L29.8809,37.0544 L29.9479,37.0684 L30.0159,37.0804 L30.0839,37.0934 L30.1509,37.1064 L30.2189,37.1184 L30.2859,37.1304 L30.3539,37.1424 L30.4219,37.1544 L30.4889,37.1664 L30.5569,37.1774 L30.6249,37.1894 L30.6919,37.2004 L30.7599,37.2114 L30.8279,37.2224 L30.8949,37.2334 L30.9629,37.2434 L31.0309,37.2544 L31.0979,37.2644 L31.1659,37.2754 L31.2329,37.2854 L31.3009,37.2944 L31.3689,37.3044 L31.4359,37.3144 L31.5039,37.3234 L31.5719,37.3334 L31.6389,37.3424 L31.7069,37.3514 L31.7749,37.3604 L31.8419,37.3684 L31.9099,37.3774 L31.9769,37.3854 L32.0449,37.3944 L32.1129,37.4024 L32.1799,37.4104 L32.2479,37.4184 L32.3159,37.4254 L32.3829,37.4334 L32.4509,37.4404 L32.5189,37.4484 L32.5859,37.4554 L32.6539,37.4624 L32.7219,37.4694 L32.7889,37.4754 L32.8569,37.4824 L32.9249,37.4884 L32.9919,37.4944 L33.0599,37.5014 L33.1269,37.5074 L33.1949,37.5124 L33.2629,37.5184 L33.3299,37.5244 L33.3979,37.5294 L33.4659,37.5344 L33.5329,37.5394 L33.6009,37.5444 L33.6689,37.5494 L33.7359,37.5544 L33.8039,37.5584 L33.8709,37.5624 L33.9389,37.5674 L34.0069,37.5714 L34.0739,37.5754 L34.1419,37.5784 L34.2099,37.5824 L34.2769,37.5854 L34.3449,37.5894 L34.4129,37.5924 L34.4799,37.5954 L34.5479,37.5974 L34.6159,37.6004 L34.6829,37.6034 L34.7509,37.6054 L34.8179,37.6074 L34.8859,37.6094 L34.9539,37.6114 L35.0209,37.6134 L35.0889,37.6154 L35.1569,37.6164 L35.2239,37.6174 L35.2919,37.6184 L35.3599,37.6194 L35.4269,37.6204 L35.4949,37.6214 L35.5629,37.6214 L35.6299,37.6214 L35.6979,37.6224 L35.7239,37.6224 L35.7649,37.6224 L35.8329,37.6214 L35.9009,37.6214 L35.9679,37.6204 L36.0359,37.6204 L36.1039,37.6194 L36.1709,37.6174 L36.2389,37.6164 L36.3069,37.6154 L36.3739,37.6134 L36.4419,37.6114 L36.5099,37.6094 L36.5769,37.6074 L36.6449,37.6054 L36.7119,37.6024 L36.7799,37.5994 L36.8479,37.5964 L36.9149,37.5934 L36.9829,37.5894 L37.0509,37.5854 L37.1179,37.5814 L37.1859,37.5774 L37.2539,37.5734 L37.3209,37.5684 L37.3889,37.5634 L37.4569,37.5584 L37.5239,37.5534 L37.5919,37.5474 L37.6589,37.5414 L37.7269,37.5354 L37.7949,37.5294 L37.8619,37.5224 L37.9299,37.5154 L37.9979,37.5084 L38.0649,37.5014 L38.1329,37.4934 L38.2009,37.4854 L38.2679,37.4774 L38.3359,37.4684 L38.4039,37.4594 L38.4709,37.4504 L38.5389,37.4414 C38.5619,37.4374 38.5839,37.4344 38.6059,37.4314 L38.6739,37.4204 L38.7419,37.4104 L38.8089,37.3994 C38.8319,37.3964 38.8539,37.3924 38.8769,37.3884 L38.9449,37.3774 C38.9669,37.3734 38.9899,37.3694 39.0119,37.3654 C39.0349,37.3614 39.0569,37.3574 39.0799,37.3534 L39.1479,37.3404 L39.2149,37.3284 L39.2829,37.3144 C39.3059,37.3104 39.3279,37.3054 39.3509,37.3004 L39.4179,37.2864 L39.4859,37.2724 C39.5089,37.2674 39.5309,37.2624 39.5529,37.2574 L39.6209,37.2424 C39.6429,37.2374 39.6659,37.2324 39.6889,37.2274 C39.7119,37.2214 39.7339,37.2154 39.7559,37.2104 L39.8239,37.1934 C39.8459,37.1884 39.8689,37.1824 39.8919,37.1774 C39.9139,37.1714 39.9369,37.1654 39.9589,37.1594 L40.0269,37.1414 C40.0489,37.1354 40.0719,37.1294 40.0949,37.1234 C40.1169,37.1174 40.1399,37.1104 40.1619,37.1044 L40.2299,37.0844 C40.2519,37.0774 40.2749,37.0714 40.2979,37.0644 L40.3649,37.0444 L40.4329,37.0224 C40.4549,37.0154 40.4779,37.0084 40.4999,37.0014 L40.5679,36.9794 L40.6359,36.9564 C40.6579,36.9484 40.6809,36.9414 40.7029,36.9334 C40.7259,36.9254 40.7479,36.9164 40.7709,36.9084 L40.8389,36.8844 C40.8609,36.8754 40.8839,36.8674 40.9059,36.8594 C40.9289,36.8504 40.9509,36.8414 40.9739,36.8324 C40.9969,36.8234 41.0189,36.8154 41.0419,36.8064 L41.1089,36.7784 L41.1769,36.7504 C41.1989,36.7404 41.2219,36.7314 41.2439,36.7214 C41.2669,36.7114 41.2899,36.7014 41.3119,36.6914 L41.3799,36.6604 L41.4469,36.6294 C41.4699,36.6184 41.4929,36.6074 41.5149,36.5964 C41.5379,36.5864 41.5599,36.5754 41.5829,36.5644 C41.6059,36.5524 41.6279,36.5404 41.6499,36.5294 C41.6729,36.5174 41.6959,36.5064 41.7179,36.4944 C41.7409,36.4824 41.7629,36.4704 41.7859,36.4584 C41.8079,36.4454 41.8309,36.4334 41.8529,36.4204 C41.8759,36.4084 41.8989,36.3954 41.9209,36.3824 C41.9439,36.3694 41.9659,36.3564 41.9889,36.3424 C42.0109,36.3294 42.0339,36.3164 42.0559,36.3024 C42.0789,36.2884 42.1009,36.2744 42.1239,36.2604 C42.1469,36.2454 42.1689,36.2314 42.1919,36.2174 C42.2139,36.2024 42.2369,36.1874 42.2589,36.1724 C42.2819,36.1564 42.3049,36.1414 42.3269,36.1264 C42.3499,36.1104 42.3719,36.0944 42.3939,36.0784 C42.4169,36.0624 42.4399,36.0464 42.4619,36.0294 C42.4849,36.0124 42.5069,35.9954 42.5299,35.9784 C42.5519,35.9614 42.5749,35.9434 42.5969,35.9264 C42.6199,35.9084 42.6429,35.8894 42.6649,35.8714 C42.6879,35.8524 42.7099,35.8334 42.7329,35.8144 C42.7549,35.7954 42.7779,35.7764 42.7999,35.7564 C42.8229,35.7364 42.8459,35.7164 42.8679,35.6954 C42.8909,35.6744 42.9129,35.6544 42.9359,35.6324 C42.9589,35.6114 42.9809,35.5894 43.0029,35.5664 C43.0259,35.5444 43.0489,35.5214 43.0709,35.4984 C43.0939,35.4744 43.1159,35.4514 43.1379,35.4274 C43.1609,35.4024 43.1839,35.3774 43.2059,35.3524 C43.2289,35.3264 43.2519,35.3004 43.2739,35.2744 C43.2969,35.2474 43.3189,35.2204 43.3409,35.1924 C43.3639,35.1644 43.3869,35.1354 43.4089,35.1064 C43.4319,35.0764 43.4539,35.0464 43.4769,35.0154 C43.4999,34.9844 43.5219,34.9514 43.5439,34.9194 C43.5669,34.8864 43.5899,34.8524 43.6119,34.8184 C43.6349,34.7824 43.6579,34.7464 43.6799,34.7104 C43.7029,34.6714 43.7249,34.6334 43.7469,34.5944 C43.7709,34.5534 43.7929,34.5114 43.8149,34.4704 C43.8379,34.4254 43.8609,34.3804 43.8829,34.3354 C43.9059,34.2864 43.9289,34.2374 43.9499,34.1874 C43.9739,34.1334 43.9959,34.0794 44.0179,34.0254 C44.0419,33.9644 44.0639,33.9044 44.0849,33.8424 C44.1099,33.7734 44.1319,33.7034 44.1529,33.6324 C44.1779,33.5494 44.1999,33.4654 44.2209,33.3814 C44.2459,33.2764 44.2689,33.1704 44.2879,33.0634 C44.3169,32.9044 44.3399,32.7424 44.3559,32.5784 C44.3789,32.3494 44.3899,32.1164 44.3899,31.8794 L44.3899,23.7334 L44.3559,23.7334 L44.2879,23.7334 L44.2209,23.7334 L44.1529,23.7334 L44.0849,23.7334 L44.0179,23.7334 L43.9499,23.7334 L43.8829,23.7334 L43.8149,23.7334 L43.7469,23.7334 L43.6799,23.7334 L43.6119,23.7334 L43.5439,23.7334 L43.4769,23.7334 L43.4089,23.7334 L43.3409,23.7334 L43.2739,23.7334 L43.2059,23.7334 L43.1379,23.7334 L43.0709,23.7334 L43.0029,23.7334 L42.9359,23.7334 L42.8679,23.7334 L42.7999,23.7334 L42.7329,23.7334 L42.6649,23.7334 L42.5969,23.7334 L42.5299,23.7334 L42.4619,23.7334 L42.3939,23.7334 L42.3269,23.7334 L42.2589,23.7334 L42.1919,23.7334 L42.1239,23.7334 L42.0559,23.7334 L41.9889,23.7334 L41.9209,23.7334 L41.8529,23.7334 L41.7859,23.7334 L41.7179,23.7334 L41.6499,23.7334 L41.5829,23.7334 L41.5149,23.7334 L41.4469,23.7334 L41.3799,23.7334 L41.3119,23.7334 L41.2439,23.7334 L41.1769,23.7334 L41.1089,23.7334 L41.0419,23.7334 L40.9739,23.7334 L40.9059,23.7334 L40.8389,23.7334 L40.7709,23.7334 L40.7029,23.7334 L40.6359,23.7334 L40.5679,23.7334 L40.4999,23.7334 L40.4329,23.7334 L40.3649,23.7334 L40.2979,23.7334 L40.2299,23.7334 L40.1619,23.7334 L40.0949,23.7334 L40.0269,23.7334 L39.9589,23.7334 L39.8919,23.7334 L39.8239,23.7334 L39.7559,23.7334 L39.6889,23.7334 L39.6209,23.7334 L39.5529,23.7334 L39.4859,23.7334 L39.4179,23.7334 L39.3509,23.7334 L39.2829,23.7334 L39.2149,23.7334 L39.1479,23.7334 L39.0799,23.7334 L39.0119,23.7334 L38.9449,23.7334 L38.8769,23.7334 L38.8089,23.7334 L38.7419,23.7334 L38.6739,23.7334 L38.6059,23.7334 L38.5389,23.7334 L38.4709,23.7334 L38.4039,23.7334 L38.3519,23.7334 L38.3519,31.8794 C38.3519,32.0074 38.3469,32.1324 38.3359,32.2554 C38.3219,32.4124 38.2989,32.5654 38.2679,32.7134 C38.2489,32.8054 38.2259,32.8954 38.2009,32.9844 C38.1799,33.0544 38.1579,33.1234 38.1329,33.1914 C38.1119,33.2494 38.0889,33.3074 38.0649,33.3634 C38.0439,33.4134 38.0209,33.4624 37.9979,33.5114 C37.9759,33.5564 37.9539,33.5994 37.9299,33.6434 C37.9079,33.6824 37.8859,33.7214 37.8619,33.7604 C37.8409,33.7964 37.8179,33.8324 37.7949,33.8674 C37.7729,33.9004 37.7499,33.9324 37.7269,33.9644 C37.7049,33.9954 37.6829,34.0254 37.6589,34.0554 C37.6369,34.0844 37.6149,34.1114 37.5919,34.1394 C37.5699,34.1654 37.5469,34.1914 37.5239,34.2174 C37.5019,34.2424 37.4799,34.2664 37.4569,34.2904 C37.4339,34.3134 37.4119,34.3364 37.3889,34.3594 C37.3669,34.3804 37.3439,34.4024 37.3209,34.4234 C37.2989,34.4434 37.2759,34.4634 37.2539,34.4834 C37.2309,34.5034 37.2089,34.5224 37.1859,34.5404 C37.1639,34.5594 37.1409,34.5764 37.1179,34.5944 C37.0959,34.6114 37.0729,34.6284 37.0509,34.6454 C37.0279,34.6614 37.0059,34.6774 36.9829,34.6934 C36.9609,34.7094 36.9379,34.7244 36.9149,34.7394 C36.8929,34.7534 36.8709,34.7684 36.8479,34.7824 C36.8249,34.7964 36.8029,34.8094 36.7799,34.8234 C36.7579,34.8364 36.7349,34.8494 36.7119,34.8614 C36.6899,34.8744 36.6679,34.8864 36.6449,34.8984 C36.6229,34.9104 36.5999,34.9214 36.5769,34.9324 C36.5549,34.9444 36.5319,34.9544 36.5099,34.9654 C36.4869,34.9764 36.4649,34.9864 36.4419,34.9964 C36.4189,35.0064 36.3969,35.0164 36.3739,35.0264 C36.3519,35.0354 36.3289,35.0444 36.3069,35.0544 C36.2839,35.0624 36.2619,35.0714 36.2389,35.0804 C36.2169,35.0884 36.1939,35.0964 36.1709,35.1044 C36.1489,35.1124 36.1259,35.1204 36.1039,35.1284 C36.0809,35.1354 36.0589,35.1434 36.0359,35.1504 C36.0139,35.1574 35.9909,35.1644 35.9679,35.1704 C35.9459,35.1774 35.9229,35.1834 35.9009,35.1904 C35.8779,35.1964 35.8559,35.2024 35.8329,35.2084 C35.8109,35.2144 35.7879,35.2194 35.7649,35.2254 C35.7429,35.2304 35.7209,35.2354 35.6979,35.2404 C35.6749,35.2454 35.6529,35.2504 35.6299,35.2554 C35.6079,35.2604 35.5849,35.2644 35.5629,35.2694 C35.5399,35.2734 35.5179,35.2774 35.4949,35.2814 C35.4719,35.2854 35.4499,35.2894 35.4269,35.2924 L35.3599,35.3034 C35.3369,35.3064 35.3149,35.3094 35.2919,35.3124 C35.2699,35.3154 35.2469,35.3184 35.2239,35.3204 L35.1569,35.3284 C35.1339,35.3304 35.1119,35.3324 35.0889,35.3344 C35.0669,35.3364 35.0439,35.3384 35.0209,35.3404 C34.9989,35.3424 34.9759,35.3434 34.9539,35.3454 C34.9309,35.3464 34.9089,35.3484 34.8859,35.3494 C34.8639,35.3504 34.8409,35.3514 34.8179,35.3524 C34.7959,35.3534 34.7729,35.3534 34.7509,35.3544 L34.6829,35.3564 L34.6159,35.3564 L34.5899,35.3574 L34.5479,35.3564 L34.4799,35.3564 L34.4129,35.3554 L34.3449,35.3544 L34.2769,35.3524 L34.2099,35.3504 L34.1419,35.3474 L34.0739,35.3444 L34.0069,35.3404 L33.9389,35.3364 L33.8709,35.3324 L33.8039,35.3274 L33.7359,35.3224 L33.6689,35.3164 L33.6009,35.3104 L33.5329,35.3044 L33.4659,35.2974 L33.3979,35.2894 L33.3299,35.2824 L33.2629,35.2734 L33.1949,35.2654 L33.1269,35.2564 L33.0599,35.2474 L32.9919,35.2374 L32.9249,35.2274 L32.8569,35.2164 L32.7889,35.2054 L32.7219,35.1944 L32.6539,35.1824 L32.5859,35.1704 L32.5189,35.1574 L32.4509,35.1444 L32.3829,35.1314 L32.3159,35.1174 L32.2479,35.1034 L32.1799,35.0894 L32.1129,35.0744 L32.0449,35.0584 L31.9769,35.0434 L31.9099,35.0274 L31.8419,35.0114 L31.7749,34.9944 L31.7069,34.9774 L31.6389,34.9594 L31.5719,34.9414 L31.5039,34.9234 L31.4359,34.9054 L31.3689,34.8864 L31.3009,34.8664 L31.2329,34.8474 L31.1659,34.8274 L31.0979,34.8064 L31.0309,34.7864 L30.9629,34.7644 L30.8949,34.7434 L30.8279,34.7214 L30.7599,34.6994 L30.6919,34.6774 L30.6249,34.6544 L30.5569,34.6314 L30.4889,34.6074 L30.4219,34.5834 L30.3539,34.5594 L30.2859,34.5354 L30.2189,34.5104 L30.1509,34.4854 L30.0839,34.4594 L30.0159,34.4334 L29.9479,34.4074 L29.8809,34.3814 L29.8129,34.3544 L29.7449,34.3274 L29.6779,34.2994 L29.6099,34.2724 L29.5419,34.2444 L29.4749,34.2154 L29.4069,34.1874 L29.3389,34.1584 L29.2719,34.1284 L29.2039,34.0994 L29.1369,34.0694 L29.0689,34.0394 L29.0009,34.0084 L28.9339,33.9774 L28.8659,33.9464 L28.7979,33.9154 L28.7309,33.8834 L28.6629,33.8514 L28.6629,33.8514 L28.6629,33.8514 Z" id="Fill-213" fill="#086DB6"></path>
            <path d="M48.0858,25.5138 C48.0368,25.5538 47.9878,25.5938 47.9408,25.6348 L47.9408,16.4428 C47.9408,15.9548 47.9908,15.4778 48.0858,15.0168 C48.1058,14.9178 48.1288,14.8198 48.1538,14.7228 C48.1748,14.6388 48.1968,14.5558 48.2208,14.4738 C48.2428,14.4008 48.2648,14.3278 48.2888,14.2558 C48.3108,14.1898 48.3328,14.1238 48.3568,14.0588 C48.3778,13.9978 48.4008,13.9378 48.4238,13.8788 C48.4458,13.8228 48.4688,13.7678 48.4918,13.7118 C48.5138,13.6608 48.5358,13.6088 48.5598,13.5578 C48.5808,13.5088 48.6038,13.4608 48.6268,13.4128 C48.6488,13.3668 48.6718,13.3208 48.6948,13.2758 C48.7168,13.2318 48.7398,13.1888 48.7618,13.1458 C48.7848,13.1038 48.8068,13.0628 48.8298,13.0218 C48.8518,12.9818 48.8748,12.9428 48.8978,12.9038 C48.9198,12.8658 48.9418,12.8278 48.9648,12.7898 C48.9878,12.7538 49.0098,12.7178 49.0328,12.6818 C49.0548,12.6468 49.0778,12.6118 49.1008,12.5778 C49.1228,12.5438 49.1448,12.5108 49.1678,12.4768 C49.1908,12.4448 49.2128,12.4118 49.2358,12.3798 C49.2578,12.3478 49.2808,12.3178 49.3038,12.2868 C49.3258,12.2568 49.3478,12.2258 49.3708,12.1958 C49.3938,12.1668 49.4158,12.1368 49.4388,12.1078 C49.4608,12.0798 49.4838,12.0518 49.5068,12.0238 C49.5288,11.9968 49.5508,11.9688 49.5738,11.9418 C49.5968,11.9148 49.6188,11.8888 49.6418,11.8618 C49.6638,11.8358 49.6868,11.8108 49.7098,11.7848 C49.7318,11.7598 49.7538,11.7348 49.7768,11.7098 C49.7988,11.6848 49.8218,11.6608 49.8448,11.6368 C49.8668,11.6128 49.8898,11.5888 49.9118,11.5658 C49.9348,11.5428 49.9568,11.5198 49.9798,11.4968 C50.0018,11.4738 50.0248,11.4518 50.0478,11.4298 C50.0698,11.4078 50.0928,11.3848 50.1148,11.3638 C50.1378,11.3418 50.1598,11.3218 50.1828,11.3008 C50.2048,11.2798 50.2278,11.2588 50.2508,11.2378 C50.2728,11.2178 50.2958,11.1978 50.3178,11.1778 C50.3408,11.1578 50.3628,11.1378 50.3858,11.1188 C50.4078,11.0988 50.4308,11.0808 50.4538,11.0618 C50.4758,11.0428 50.4988,11.0238 50.5208,11.0048 C50.5438,10.9868 50.5658,10.9688 50.5888,10.9508 C50.6108,10.9328 50.6338,10.9148 50.6568,10.8978 C50.6788,10.8798 50.7018,10.8628 50.7238,10.8458 C50.7468,10.8288 50.7688,10.8118 50.7918,10.7948 C50.8138,10.7778 50.8368,10.7618 50.8588,10.7458 C50.8818,10.7288 50.9038,10.7128 50.9268,10.6968 C50.9498,10.6818 50.9718,10.6658 50.9948,10.6498 C51.0168,10.6348 51.0398,10.6198 51.0618,10.6038 C51.0848,10.5888 51.1068,10.5748 51.1298,10.5598 C51.1518,10.5448 51.1748,10.5298 51.1978,10.5158 C51.2198,10.5018 51.2428,10.4878 51.2648,10.4738 C51.2878,10.4598 51.3098,10.4458 51.3328,10.4318 C51.3548,10.4178 51.3778,10.4048 51.4008,10.3918 C51.4228,10.3788 51.4458,10.3648 51.4678,10.3518 C51.4908,10.3388 51.5128,10.3268 51.5358,10.3138 C51.5578,10.3008 51.5808,10.2888 51.6038,10.2758 C51.6258,10.2638 51.6488,10.2518 51.6708,10.2398 C51.6938,10.2278 51.7158,10.2158 51.7388,10.2048 L51.8058,10.1698 L51.8738,10.1368 C51.8968,10.1248 51.9188,10.1138 51.9418,10.1038 C51.9638,10.0928 51.9868,10.0818 52.0088,10.0718 C52.0318,10.0618 52.0538,10.0508 52.0768,10.0408 C52.0988,10.0298 52.1218,10.0208 52.1448,10.0108 C52.1668,10.0008 52.1898,9.9908 52.2118,9.9808 C52.2348,9.9718 52.2568,9.9628 52.2798,9.9528 L52.3478,9.9258 C52.3698,9.9168 52.3928,9.9068 52.4148,9.8988 C52.4378,9.8898 52.4598,9.8808 52.4828,9.8728 C52.5048,9.8638 52.5278,9.8558 52.5508,9.8468 C52.5728,9.8388 52.5958,9.8308 52.6178,9.8228 C52.6408,9.8148 52.6628,9.8068 52.6858,9.7998 C52.7078,9.7918 52.7308,9.7838 52.7538,9.7768 L52.8208,9.7548 C52.8438,9.7478 52.8658,9.7408 52.8888,9.7328 C52.9108,9.7268 52.9338,9.7198 52.9558,9.7128 C52.9788,9.7068 53.0008,9.6998 53.0238,9.6928 C53.0468,9.6868 53.0688,9.6808 53.0918,9.6748 L53.1588,9.6558 C53.1818,9.6498 53.2038,9.6438 53.2268,9.6378 C53.2488,9.6328 53.2718,9.6268 53.2948,9.6218 C53.3168,9.6158 53.3398,9.6108 53.3618,9.6048 C53.3848,9.5998 53.4068,9.5948 53.4298,9.5898 L53.4978,9.5758 C53.5198,9.5708 53.5428,9.5658 53.5648,9.5608 C53.5878,9.5568 53.6098,9.5528 53.6328,9.5478 C53.6548,9.5438 53.6778,9.5388 53.7008,9.5348 L53.7678,9.5238 L53.8358,9.5118 C53.8578,9.5088 53.8808,9.5048 53.9038,9.5018 C53.9258,9.4978 53.9488,9.4948 53.9708,9.4918 C53.9938,9.4888 54.0158,9.4858 54.0388,9.4828 L54.1058,9.4738 L54.1738,9.4658 C54.1968,9.4638 54.2188,9.4608 54.2418,9.4588 C54.2638,9.4558 54.2868,9.4548 54.3088,9.4528 L54.3768,9.4468 C54.3998,9.4448 54.4218,9.4428 54.4448,9.4408 C54.4668,9.4398 54.4898,9.4378 54.5118,9.4368 C54.5348,9.4348 54.5568,9.4338 54.5798,9.4328 C54.6018,9.4308 54.6248,9.4308 54.6478,9.4298 L54.7148,9.4268 C54.7378,9.4258 54.7598,9.4248 54.7828,9.4238 L54.8498,9.4238 C54.8728,9.4228 54.8958,9.4228 54.9178,9.4228 L54.9478,9.4218 L54.9858,9.4218 L55.0528,9.4218 L55.1208,9.4218 L55.1888,9.4218 L55.2558,9.4218 L55.3238,9.4218 L55.3918,9.4218 L55.4588,9.4218 L55.5268,9.4218 L55.5948,9.4218 L55.6618,9.4218 L55.7298,9.4218 L55.7978,9.4218 L55.8648,9.4218 L55.9328,9.4218 L55.9998,9.4218 L56.0678,9.4218 L56.1358,9.4218 L56.2028,9.4218 L56.2708,9.4218 L56.3388,9.4218 L56.4058,9.4218 L56.4738,9.4218 L56.5418,9.4218 L56.6088,9.4218 L56.6768,9.4218 L56.7448,9.4218 L56.8118,9.4218 L56.8798,9.4218 L56.9478,9.4218 L57.0148,9.4218 L57.0828,9.4218 L57.1498,9.4218 L57.2178,9.4218 L57.2858,9.4218 L57.3528,9.4218 L57.4208,9.4218 L57.4888,9.4218 L57.5558,9.4218 L57.6238,9.4218 L57.6918,9.4218 L57.7588,9.4218 L57.8268,9.4218 L57.8948,9.4218 L57.9618,9.4218 L58.0298,9.4218 L58.0978,9.4218 L58.1648,9.4218 L58.2328,9.4218 L58.2998,9.4218 L58.3678,9.4218 L58.4358,9.4218 L58.5028,9.4218 L58.5708,9.4218 L58.6388,9.4218 L58.7058,9.4218 L58.7738,9.4218 L58.8418,9.4218 L58.9088,9.4218 L58.9768,9.4218 L59.0448,9.4218 L59.1118,9.4218 L59.1798,9.4218 L59.2468,9.4218 L59.3148,9.4218 L59.3828,9.4218 L59.4498,9.4218 L59.5178,9.4218 L59.5858,9.4218 L59.6528,9.4218 L59.7208,9.4218 L59.7888,9.4218 L59.8558,9.4218 L59.9238,9.4218 L59.9918,9.4218 L60.0588,9.4218 L60.1268,9.4218 L60.1938,9.4218 L60.2618,9.4218 L60.3298,9.4218 L60.3968,9.4218 L60.4648,9.4218 L60.5328,9.4218 L60.5998,9.4218 L60.6678,9.4218 L60.7358,9.4218 L60.8028,9.4218 L60.8708,9.4218 L60.9388,9.4218 L61.0058,9.4218 L61.0738,9.4218 L61.1418,9.4218 L61.2088,9.4218 L61.2768,9.4218 L61.3438,9.4218 L61.4118,9.4218 L61.4798,9.4218 L61.5468,9.4218 L61.6148,9.4218 L61.6828,9.4218 L61.7498,9.4218 L61.8178,9.4218 L61.8858,9.4218 L61.9528,9.4218 L62.0208,9.4218 L62.0888,9.4218 L62.1558,9.4218 L62.2238,9.4218 L62.2918,9.4218 L62.3588,9.4218 L62.4268,9.4218 L62.4938,9.4218 L62.5618,9.4218 L62.6298,9.4218 L62.6968,9.4218 L62.7648,9.4218 L62.8328,9.4218 L62.8998,9.4218 L62.9678,9.4218 L63.0358,9.4218 L63.1028,9.4218 L63.1708,9.4218 L63.2388,9.4218 L63.3058,9.4218 L63.3738,9.4218 L63.4408,9.4218 L63.5088,9.4218 L63.5768,9.4218 L63.6438,9.4218 L63.7118,9.4218 L63.7798,9.4218 L63.8468,9.4218 L63.9148,9.4218 L63.9828,9.4218 L64.0498,9.4218 L64.1178,9.4218 L64.1858,9.4218 L64.2528,9.4218 L64.3208,9.4218 L64.3878,9.4218 L64.4558,9.4218 L64.5238,9.4218 L64.5908,9.4218 L64.6588,9.4218 L64.7268,9.4218 L64.7938,9.4218 L64.8618,9.4218 L64.9298,9.4218 L64.9968,9.4218 L65.0648,9.4218 L65.1328,9.4218 L65.1998,9.4218 L65.2578,9.4218 L65.2578,44.5248 C65.2578,44.8308 65.2378,45.1308 65.1998,45.4258 C65.1818,45.5678 65.1588,45.7088 65.1328,45.8478 C65.1118,45.9538 65.0898,46.0588 65.0648,46.1628 C65.0438,46.2508 65.0218,46.3378 64.9968,46.4248 C64.9758,46.5008 64.9528,46.5758 64.9298,46.6508 C64.9078,46.7178 64.8858,46.7858 64.8618,46.8528 C64.8398,46.9138 64.8178,46.9758 64.7938,47.0368 C64.7728,47.0938 64.7498,47.1498 64.7268,47.2068 C64.7048,47.2598 64.6818,47.3118 64.6588,47.3648 C64.6368,47.4138 64.6148,47.4638 64.5908,47.5128 C64.5688,47.5598 64.5468,47.6058 64.5238,47.6518 C64.5018,47.6968 64.4788,47.7408 64.4558,47.7848 C64.4338,47.8268 64.4118,47.8688 64.3878,47.9098 C64.3658,47.9508 64.3438,47.9908 64.3208,48.0308 C64.2988,48.0688 64.2758,48.1068 64.2528,48.1448 C64.2308,48.1818 64.2078,48.2178 64.1858,48.2548 C64.1628,48.2898 64.1408,48.3248 64.1178,48.3598 C64.0958,48.3938 64.0728,48.4288 64.0498,48.4618 C64.0278,48.4948 64.0048,48.5278 63.9828,48.5598 C63.9598,48.5918 63.9378,48.6228 63.9148,48.6538 C63.8928,48.6848 63.8698,48.7158 63.8468,48.7458 C63.8248,48.7748 63.8018,48.8048 63.7798,48.8338 C63.7568,48.8628 63.7348,48.8908 63.7118,48.9188 C63.6898,48.9468 63.6668,48.9748 63.6438,49.0028 C63.6218,49.0298 63.5988,49.0558 63.5768,49.0828 C63.5538,49.1088 63.5318,49.1348 63.5088,49.1608 C63.4868,49.1858 63.4638,49.2118 63.4408,49.2368 C63.4188,49.2608 63.3958,49.2858 63.3738,49.3098 C63.3508,49.3338 63.3288,49.3578 63.3058,49.3818 C63.2838,49.4048 63.2608,49.4278 63.2388,49.4508 C63.2158,49.4738 63.1938,49.4968 63.1708,49.5188 C63.1488,49.5408 63.1258,49.5628 63.1028,49.5848 C63.0808,49.6068 63.0578,49.6278 63.0358,49.6488 C63.0128,49.6698 62.9908,49.6908 62.9678,49.7118 C62.9458,49.7328 62.9228,49.7528 62.8998,49.7728 C62.8778,49.7928 62.8548,49.8128 62.8328,49.8328 C62.8098,49.8518 62.7878,49.8708 62.7648,49.8898 C62.7418,49.9088 62.7198,49.9278 62.6968,49.9468 C62.6748,49.9648 62.6518,49.9828 62.6298,50.0008 C62.6068,50.0188 62.5848,50.0378 62.5618,50.0558 C62.5398,50.0728 62.5168,50.0898 62.4938,50.1068 C62.4718,50.1248 62.4498,50.1418 62.4268,50.1588 C62.4038,50.1748 62.3818,50.1918 62.3588,50.2078 C62.3368,50.2248 62.3138,50.2408 62.2918,50.2568 C62.2688,50.2728 62.2458,50.2878 62.2238,50.3038 C62.2008,50.3198 62.1788,50.3348 62.1558,50.3508 C62.1338,50.3658 62.1108,50.3798 62.0888,50.3948 C62.0658,50.4098 62.0438,50.4248 62.0208,50.4398 C61.9988,50.4538 61.9758,50.4678 61.9528,50.4818 C61.9308,50.4958 61.9078,50.5098 61.8858,50.5238 C61.8628,50.5378 61.8408,50.5508 61.8178,50.5648 C61.7948,50.5778 61.7728,50.5908 61.7498,50.6048 C61.7278,50.6178 61.7048,50.6298 61.6828,50.6428 L61.6148,50.6808 L61.5468,50.7168 L61.4798,50.7528 C61.4568,50.7648 61.4348,50.7768 61.4118,50.7878 C61.3898,50.7998 61.3668,50.8108 61.3438,50.8218 C61.3218,50.8328 61.2998,50.8438 61.2768,50.8548 C61.2538,50.8658 61.2318,50.8758 61.2088,50.8868 C61.1868,50.8968 61.1638,50.9078 61.1418,50.9188 C61.1188,50.9288 61.0958,50.9388 61.0738,50.9488 L61.0058,50.9778 L60.9388,51.0068 L60.8708,51.0338 C60.8478,51.0438 60.8258,51.0528 60.8028,51.0618 C60.7808,51.0708 60.7578,51.0788 60.7358,51.0878 C60.7128,51.0958 60.6908,51.1048 60.6678,51.1128 C60.6458,51.1218 60.6228,51.1298 60.5998,51.1378 L60.5328,51.1608 L60.4648,51.1848 C60.4428,51.1918 60.4198,51.1988 60.3968,51.2068 C60.3748,51.2138 60.3518,51.2218 60.3298,51.2288 C60.3068,51.2358 60.2848,51.2418 60.2618,51.2488 L60.1938,51.2688 L60.1268,51.2878 C60.1038,51.2938 60.0818,51.2998 60.0588,51.3058 C60.0368,51.3128 60.0138,51.3188 59.9918,51.3248 C59.9688,51.3308 59.9458,51.3358 59.9238,51.3408 C59.9008,51.3468 59.8788,51.3518 59.8558,51.3578 L59.7888,51.3728 L59.7208,51.3878 C59.6978,51.3928 59.6758,51.3978 59.6528,51.4028 C59.6308,51.4068 59.6078,51.4118 59.5858,51.4158 L59.5178,51.4288 L59.4498,51.4408 C59.4278,51.4448 59.4048,51.4488 59.3828,51.4518 C59.3598,51.4558 59.3378,51.4598 59.3148,51.4628 C59.2928,51.4668 59.2698,51.4698 59.2468,51.4728 L59.1798,51.4828 C59.1568,51.4858 59.1348,51.4888 59.1118,51.4918 C59.0898,51.4938 59.0668,51.4968 59.0448,51.4988 C59.0218,51.5018 58.9998,51.5048 58.9768,51.5068 C58.9538,51.5088 58.9318,51.5108 58.9088,51.5138 L58.8418,51.5198 C58.8188,51.5218 58.7968,51.5238 58.7738,51.5258 C58.7508,51.5268 58.7288,51.5278 58.7058,51.5298 L58.6388,51.5338 L58.5708,51.5378 C58.5488,51.5388 58.5258,51.5388 58.5028,51.5398 C58.4808,51.5408 58.4578,51.5418 58.4358,51.5428 C58.4128,51.5428 58.3908,51.5438 58.3678,51.5438 L58.2998,51.5448 C58.2788,51.5448 58.2578,51.5458 58.2368,51.5458 L58.2328,51.5458 L58.1648,51.5458 L58.0978,51.5458 L58.0298,51.5458 L57.9618,51.5458 L57.8948,51.5458 L57.8268,51.5458 L57.7588,51.5458 L57.6918,51.5458 L57.6238,51.5458 L57.5558,51.5458 L57.4888,51.5458 L57.4208,51.5458 L57.3528,51.5458 L57.2858,51.5458 L57.2178,51.5458 L57.1498,51.5458 L57.0828,51.5458 L57.0148,51.5458 L56.9478,51.5458 L56.8798,51.5458 L56.8118,51.5458 L56.7448,51.5458 L56.6768,51.5458 L56.6088,51.5458 L56.5418,51.5458 L56.4738,51.5458 L56.4058,51.5458 L56.3388,51.5458 L56.2708,51.5458 L56.2028,51.5458 L56.1358,51.5458 L56.0678,51.5458 L55.9998,51.5458 L55.9328,51.5458 L55.8648,51.5458 L55.7978,51.5458 L55.7298,51.5458 L55.6618,51.5458 L55.5948,51.5458 L55.5268,51.5458 L55.4588,51.5458 L55.3918,51.5458 L55.3238,51.5458 L55.2558,51.5458 L55.1888,51.5458 L55.1208,51.5458 L55.0528,51.5458 L54.9858,51.5458 L54.9178,51.5458 L54.8498,51.5458 L54.7828,51.5458 L54.7148,51.5458 L54.6478,51.5458 L54.5798,51.5458 L54.5118,51.5458 L54.4448,51.5458 L54.3768,51.5458 L54.3088,51.5458 L54.2418,51.5458 L54.1738,51.5458 L54.1058,51.5458 L54.0388,51.5458 L53.9708,51.5458 L53.9038,51.5458 L53.8358,51.5458 L53.7678,51.5458 L53.7008,51.5458 L53.6328,51.5458 L53.5648,51.5458 L53.4978,51.5458 L53.4298,51.5458 L53.3618,51.5458 L53.2948,51.5458 L53.2268,51.5458 L53.1588,51.5458 L53.0918,51.5458 L53.0238,51.5458 L52.9558,51.5458 L52.8888,51.5458 L52.8208,51.5458 L52.7538,51.5458 L52.6858,51.5458 L52.6178,51.5458 L52.5508,51.5458 L52.4828,51.5458 L52.4148,51.5458 L52.3478,51.5458 L52.2798,51.5458 L52.2118,51.5458 L52.1448,51.5458 L52.0768,51.5458 L52.0088,51.5458 L51.9418,51.5458 L51.8738,51.5458 L51.8058,51.5458 L51.7388,51.5458 L51.6708,51.5458 L51.6038,51.5458 L51.5358,51.5458 L51.4678,51.5458 L51.4008,51.5458 L51.3328,51.5458 L51.2648,51.5458 L51.1978,51.5458 L51.1298,51.5458 L51.0618,51.5458 L50.9948,51.5458 L50.9268,51.5458 L50.8588,51.5458 L50.7918,51.5458 L50.7238,51.5458 L50.6568,51.5458 L50.5888,51.5458 L50.5208,51.5458 L50.4538,51.5458 L50.3858,51.5458 L50.3178,51.5458 L50.2508,51.5458 L50.1828,51.5458 L50.1148,51.5458 L50.0478,51.5458 L49.9798,51.5458 L49.9118,51.5458 L49.8448,51.5458 L49.7768,51.5458 L49.7098,51.5458 L49.6418,51.5458 L49.5738,51.5458 L49.5068,51.5458 L49.4388,51.5458 L49.3708,51.5458 L49.3038,51.5458 L49.2358,51.5458 L49.1678,51.5458 L49.1008,51.5458 L49.0328,51.5458 L48.9648,51.5458 L48.8978,51.5458 L48.8298,51.5458 L48.7618,51.5458 L48.6948,51.5458 L48.6268,51.5458 L48.5598,51.5458 L48.4918,51.5458 L48.4238,51.5458 L48.3568,51.5458 L48.2888,51.5458 L48.2208,51.5458 L48.1538,51.5458 L48.0858,51.5458 L47.9408,51.5458 L47.9408,35.3358 C47.9878,35.3768 48.0368,35.4168 48.0858,35.4568 C48.1078,35.4748 48.1308,35.4928 48.1538,35.5108 C48.1758,35.5278 48.1988,35.5458 48.2208,35.5628 C48.2438,35.5808 48.2658,35.5978 48.2888,35.6148 C48.3108,35.6318 48.3338,35.6478 48.3568,35.6648 C48.3788,35.6808 48.4018,35.6968 48.4238,35.7128 C48.4468,35.7288 48.4688,35.7448 48.4918,35.7608 L48.5598,35.8068 C48.5818,35.8218 48.6038,35.8368 48.6268,35.8518 L48.6948,35.8958 C48.7168,35.9108 48.7398,35.9248 48.7618,35.9398 C48.7848,35.9538 48.8068,35.9668 48.8298,35.9808 L48.8978,36.0228 C48.9198,36.0358 48.9428,36.0498 48.9648,36.0628 C48.9878,36.0758 49.0098,36.0888 49.0328,36.1018 L49.1008,36.1398 L49.1678,36.1778 L49.2358,36.2138 C49.2578,36.2258 49.2808,36.2388 49.3038,36.2498 C49.3258,36.2618 49.3488,36.2738 49.3708,36.2848 L49.4388,36.3198 L49.5068,36.3528 L49.5738,36.3858 C49.5968,36.3968 49.6188,36.4078 49.6418,36.4178 L49.7098,36.4498 L49.7768,36.4808 L49.8448,36.5098 L49.9118,36.5398 L49.9798,36.5688 L50.0478,36.5968 L50.1148,36.6248 L50.1828,36.6518 L50.2508,36.6788 L50.3178,36.7038 C50.3408,36.7128 50.3628,36.7208 50.3858,36.7298 L50.4538,36.7538 C50.4758,36.7628 50.4978,36.7708 50.5208,36.7788 C50.5438,36.7868 50.5658,36.7948 50.5888,36.8028 L50.6568,36.8258 L50.7238,36.8488 C50.7468,36.8558 50.7688,36.8638 50.7918,36.8718 C50.8138,36.8788 50.8368,36.8858 50.8588,36.8928 L50.9268,36.9148 L50.9948,36.9358 L51.0618,36.9558 L51.1298,36.9758 L51.1978,36.9958 L51.2648,37.0148 L51.3328,37.0338 L51.4008,37.0528 L51.4678,37.0708 L51.5358,37.0878 L51.6038,37.1058 L51.6708,37.1228 L51.7388,37.1388 L51.8058,37.1548 L51.8738,37.1708 L51.9418,37.1868 L52.0088,37.2018 L52.0768,37.2158 L52.1448,37.2308 L52.2118,37.2448 L52.2798,37.2588 L52.3478,37.2718 L52.4148,37.2848 L52.4828,37.2978 L52.5508,37.3108 L52.6178,37.3228 L52.6858,37.3348 L52.7538,37.3458 L52.8208,37.3578 L52.8888,37.3688 L52.9558,37.3798 L53.0238,37.3898 L53.0918,37.3998 L53.1588,37.4098 L53.2268,37.4198 L53.2948,37.4288 L53.3618,37.4378 L53.4298,37.4468 L53.4978,37.4558 L53.5648,37.4638 L53.6328,37.4718 L53.7008,37.4798 L53.7678,37.4878 L53.8358,37.4948 L53.9038,37.5018 L53.9708,37.5088 L54.0388,37.5158 L54.1058,37.5218 L54.1738,37.5288 L54.2418,37.5338 L54.3088,37.5398 L54.3768,37.5458 L54.4448,37.5508 L54.5118,37.5558 L54.5798,37.5608 L54.6478,37.5658 L54.7148,37.5708 L54.7828,37.5748 L54.8498,37.5788 L54.9178,37.5828 L54.9858,37.5868 L55.0528,37.5898 L55.1208,37.5928 L55.1888,37.5968 L55.2558,37.5998 L55.3238,37.6018 L55.3918,37.6048 L55.4588,37.6068 L55.5268,37.6098 L55.5948,37.6118 L55.6618,37.6128 L55.7298,37.6148 L55.7978,37.6168 L55.8648,37.6178 L55.9328,37.6188 L55.9998,37.6198 L56.0678,37.6208 L56.1358,37.6218 L56.2028,37.6218 L56.2708,37.6218 L56.3388,37.6228 L56.4058,37.6228 L56.4738,37.6228 L56.5418,37.6218 L56.6088,37.6218 L56.6768,37.6208 L56.7448,37.6198 L56.8118,37.6188 L56.8798,37.6178 L56.9478,37.6168 L57.0148,37.6158 L57.0828,37.6138 L57.1498,37.6128 L57.2178,37.6108 L57.2858,37.6088 L57.3528,37.6068 L57.4208,37.6038 L57.4888,37.6018 L57.5558,37.5998 L57.6238,37.5968 L57.6918,37.5938 L57.7588,37.5908 L57.7918,37.5898 L57.8268,37.5878 L57.8948,37.5848 L57.9618,37.5808 L58.0298,37.5778 L58.0978,37.5738 L58.1648,37.5688 L58.2328,37.5648 L58.2998,37.5598 L58.3678,37.5548 L58.4358,37.5498 L58.5028,37.5448 L58.5708,37.5388 L58.6388,37.5338 L58.7058,37.5278 L58.7738,37.5208 L58.8418,37.5148 L58.9088,37.5088 L58.9768,37.5018 L59.0448,37.4948 L59.1118,37.4878 L59.1798,37.4808 L59.2468,37.4728 L59.3148,37.4648 L59.3828,37.4578 L59.4498,37.4498 L59.5178,37.4418 L59.5858,37.4328 L59.6528,37.4248 L59.7208,37.4158 L59.7888,37.4068 L59.8558,37.3978 L59.9238,37.3888 L59.9918,37.3798 L60.0588,37.3708 L60.1268,37.3608 L60.1938,37.3508 L60.2618,37.3408 L60.3298,37.3308 L60.3968,37.3208 L60.4648,37.3108 L60.5328,37.2998 L60.5998,37.2898 L60.6678,37.2788 L60.7358,37.2678 L60.8028,37.2568 L60.8708,37.2458 L60.9388,37.2348 L61.0058,37.2228 L61.0738,37.2118 L61.1418,37.1998 L61.2088,37.1878 L61.2768,37.1758 L61.3438,37.1638 L61.4118,37.1518 L61.4798,37.1388 L61.5468,37.1268 L61.6148,37.1138 L61.6828,37.1008 L61.7498,37.0878 L61.8178,37.0748 L61.8858,37.0618 L61.9528,37.0488 L62.0208,37.0348 L62.0888,37.0218 L62.1558,37.0078 L62.2238,36.9938 L62.2918,36.9798 L62.3588,36.9658 L62.4268,36.9518 L62.4938,36.9368 L62.5618,36.9228 L62.6298,36.9078 L62.6968,36.8928 L62.7648,36.8778 L62.8328,36.8628 L62.8998,36.8478 L62.9678,36.8318 L63.0358,36.8168 L63.1028,36.8008 L63.1708,36.7848 L63.2388,36.7678 L63.3058,36.7518 L63.3058,33.7818 L63.2388,33.8148 L63.1708,33.8488 L63.1028,33.8818 L63.0358,33.9148 L62.9678,33.9468 L62.8998,33.9798 L62.8328,34.0108 L62.7648,34.0428 L62.6968,34.0738 L62.6298,34.1048 L62.5618,34.1348 L62.4938,34.1658 L62.4268,34.1948 L62.3588,34.2248 L62.2918,34.2538 L62.2238,34.2828 L62.1558,34.3108 L62.0888,34.3388 L62.0208,34.3668 L61.9528,34.3938 L61.8858,34.4208 L61.8178,34.4478 L61.7498,34.4738 L61.6828,34.4998 L61.6148,34.5248 L61.5468,34.5498 L61.4798,34.5748 L61.4118,34.5988 L61.3438,34.6228 L61.2768,34.6468 L61.2088,34.6698 L61.1418,34.6918 L61.0738,34.7148 L61.0058,34.7368 L60.9388,34.7578 L60.8708,34.7798 L60.8028,34.7998 L60.7358,34.8208 L60.6678,34.8408 L60.5998,34.8608 L60.5328,34.8798 L60.4648,34.8988 L60.3968,34.9168 L60.3298,34.9348 L60.2618,34.9528 L60.1938,34.9708 L60.1268,34.9878 L60.0588,35.0038 L59.9918,35.0198 L59.9238,35.0358 L59.8558,35.0518 L59.7888,35.0668 L59.7208,35.0808 L59.6528,35.0958 L59.5858,35.1098 L59.5178,35.1228 L59.4498,35.1358 L59.3828,35.1488 L59.3148,35.1618 L59.2468,35.1738 L59.1798,35.1848 L59.1118,35.1968 L59.0448,35.2078 L58.9768,35.2178 L58.9088,35.2278 L58.8418,35.2378 L58.7738,35.2478 L58.7058,35.2568 L58.6388,35.2658 L58.5708,35.2738 L58.5028,35.2818 L58.4358,35.2898 L58.3678,35.2968 L58.2998,35.3038 L58.2328,35.3108 L58.1648,35.3168 L58.0978,35.3228 L58.0298,35.3278 L57.9888,35.3318 L57.9618,35.3328 L57.8948,35.3378 L57.8268,35.3418 L57.7588,35.3458 L57.6918,35.3498 L57.6238,35.3528 L57.5558,35.3548 L57.4888,35.3568 L57.4208,35.3588 L57.3528,35.3598 L57.2858,35.3598 L57.2178,35.3598 L57.1498,35.3598 L57.0828,35.3588 L57.0148,35.3568 L56.9478,35.3558 C56.9248,35.3548 56.9018,35.3538 56.8798,35.3528 C56.8568,35.3518 56.8348,35.3508 56.8118,35.3498 L56.7448,35.3458 L56.6768,35.3418 L56.6088,35.3378 L56.5418,35.3318 C56.5188,35.3298 56.4958,35.3288 56.4738,35.3268 C56.4508,35.3248 56.4288,35.3218 56.4058,35.3198 L56.3388,35.3128 L56.2708,35.3048 L56.2028,35.2968 L56.1358,35.2878 L56.0678,35.2788 C56.0458,35.2748 56.0228,35.2718 55.9998,35.2688 C55.9778,35.2648 55.9548,35.2608 55.9328,35.2568 C55.9098,35.2538 55.8878,35.2498 55.8648,35.2458 C55.8418,35.2418 55.8198,35.2378 55.7978,35.2328 C55.7748,35.2288 55.7518,35.2248 55.7298,35.2208 C55.7068,35.2158 55.6848,35.2108 55.6618,35.2068 C55.6398,35.2018 55.6168,35.1968 55.5948,35.1918 C55.5718,35.1868 55.5488,35.1818 55.5268,35.1768 L55.4588,35.1608 C55.4368,35.1558 55.4138,35.1498 55.3918,35.1438 C55.3688,35.1378 55.3458,35.1318 55.3238,35.1258 C55.3008,35.1198 55.2788,35.1138 55.2558,35.1078 C55.2338,35.1008 55.2108,35.0948 55.1888,35.0878 C55.1658,35.0818 55.1438,35.0748 55.1208,35.0678 C55.0978,35.0608 55.0758,35.0538 55.0528,35.0468 C55.0308,35.0398 55.0078,35.0318 54.9858,35.0238 C54.9628,35.0168 54.9408,35.0088 54.9178,35.0008 C54.8948,34.9938 54.8728,34.9848 54.8498,34.9768 C54.8278,34.9688 54.8048,34.9608 54.7828,34.9518 C54.7598,34.9438 54.7378,34.9348 54.7148,34.9258 C54.6928,34.9168 54.6698,34.9078 54.6478,34.8988 C54.6248,34.8888 54.6018,34.8798 54.5798,34.8698 C54.5568,34.8598 54.5348,34.8508 54.5118,34.8408 C54.4898,34.8298 54.4668,34.8198 54.4448,34.8088 C54.4218,34.7988 54.3988,34.7878 54.3768,34.7778 C54.3538,34.7668 54.3318,34.7548 54.3088,34.7438 C54.2868,34.7328 54.2638,34.7208 54.2418,34.7088 C54.2188,34.6968 54.1958,34.6858 54.1738,34.6728 C54.1508,34.6608 54.1288,34.6478 54.1058,34.6348 C54.0838,34.6228 54.0608,34.6098 54.0388,34.5968 C54.0158,34.5828 53.9938,34.5688 53.9708,34.5558 C53.9478,34.5418 53.9258,34.5278 53.9038,34.5128 C53.8808,34.4988 53.8578,34.4848 53.8358,34.4698 C53.8128,34.4548 53.7908,34.4388 53.7678,34.4228 C53.7448,34.4078 53.7228,34.3918 53.7008,34.3758 C53.6778,34.3588 53.6548,34.3428 53.6328,34.3258 C53.6098,34.3088 53.5878,34.2908 53.5648,34.2738 C53.5418,34.2558 53.5198,34.2378 53.4978,34.2198 C53.4748,34.2008 53.4518,34.1828 53.4298,34.1638 C53.4068,34.1438 53.3848,34.1238 53.3618,34.1038 C53.3388,34.0838 53.3168,34.0628 53.2948,34.0418 C53.2718,34.0208 53.2488,33.9988 53.2268,33.9778 C53.2038,33.9548 53.1818,33.9328 53.1588,33.9098 C53.1358,33.8868 53.1138,33.8628 53.0918,33.8388 C53.0688,33.8138 53.0458,33.7888 53.0238,33.7638 C53.0008,33.7378 52.9788,33.7118 52.9558,33.6848 C52.9338,33.6578 52.9108,33.6308 52.8888,33.6028 C52.8658,33.5738 52.8428,33.5448 52.8208,33.5148 C52.7978,33.4838 52.7758,33.4538 52.7538,33.4218 C52.7308,33.3898 52.7078,33.3568 52.6858,33.3238 C52.6628,33.2888 52.6398,33.2538 52.6178,33.2178 C52.5948,33.1808 52.5728,33.1428 52.5508,33.1048 C52.5268,33.0648 52.5048,33.0238 52.4828,32.9828 C52.4598,32.9388 52.4368,32.8948 52.4148,32.8498 C52.3918,32.8028 52.3688,32.7538 52.3478,32.7058 C52.3238,32.6528 52.3018,32.5998 52.2798,32.5458 C52.2558,32.4868 52.2338,32.4258 52.2118,32.3638 C52.1878,32.2958 52.1658,32.2278 52.1448,32.1568 C52.1198,32.0758 52.0978,31.9938 52.0768,31.9098 C52.0508,31.8048 52.0288,31.6978 52.0088,31.5898 C51.9798,31.4278 51.9578,31.2628 51.9418,31.0918 C51.9238,30.8958 51.9138,30.6938 51.9138,30.4848 C51.9138,30.2768 51.9238,30.0738 51.9418,29.8778 C51.9578,29.7068 51.9798,29.5418 52.0088,29.3798 C52.0288,29.2718 52.0508,29.1648 52.0768,29.0598 C52.0978,28.9758 52.1198,28.8928 52.1448,28.8118 C52.1658,28.7418 52.1878,28.6728 52.2118,28.6048 C52.2338,28.5438 52.2558,28.4828 52.2798,28.4228 C52.3018,28.3688 52.3238,28.3158 52.3478,28.2638 C52.3688,28.2148 52.3918,28.1668 52.4148,28.1188 C52.4368,28.0738 52.4598,28.0298 52.4828,27.9858 C52.5048,27.9448 52.5268,27.9038 52.5508,27.8638 C52.5728,27.8258 52.5948,27.7878 52.6178,27.7508 C52.6398,27.7148 52.6628,27.6798 52.6858,27.6448 C52.7078,27.6118 52.7308,27.5788 52.7538,27.5458 C52.7758,27.5148 52.7978,27.4838 52.8208,27.4538 C52.8428,27.4238 52.8658,27.3948 52.8888,27.3658 C52.9108,27.3378 52.9338,27.3108 52.9558,27.2828 C52.9788,27.2568 53.0008,27.2308 53.0238,27.2048 C53.0458,27.1788 53.0688,27.1538 53.0918,27.1298 C53.1138,27.1058 53.1358,27.0818 53.1588,27.0578 C53.1818,27.0348 53.2038,27.0128 53.2268,26.9908 C53.2488,26.9688 53.2718,26.9478 53.2948,26.9258 C53.3168,26.9058 53.3388,26.8848 53.3618,26.8638 C53.3848,26.8438 53.4068,26.8238 53.4298,26.8048 C53.4518,26.7858 53.4748,26.7668 53.4978,26.7488 C53.5198,26.7308 53.5418,26.7128 53.5648,26.6948 C53.5878,26.6768 53.6098,26.6588 53.6328,26.6418 C53.6548,26.6258 53.6778,26.6088 53.7008,26.5928 C53.7228,26.5768 53.7448,26.5608 53.7678,26.5448 C53.7908,26.5288 53.8128,26.5138 53.8358,26.4988 C53.8578,26.4838 53.8808,26.4688 53.9038,26.4548 C53.9258,26.4408 53.9478,26.4258 53.9708,26.4128 C53.9938,26.3988 54.0158,26.3848 54.0388,26.3718 C54.0608,26.3588 54.0838,26.3458 54.1058,26.3328 C54.1288,26.3198 54.1508,26.3068 54.1738,26.2948 C54.1958,26.2828 54.2188,26.2708 54.2418,26.2588 C54.2638,26.2468 54.2868,26.2358 54.3088,26.2238 C54.3318,26.2128 54.3538,26.2018 54.3768,26.1908 C54.3988,26.1798 54.4218,26.1688 54.4448,26.1588 C54.4668,26.1478 54.4898,26.1378 54.5118,26.1278 C54.5348,26.1178 54.5568,26.1078 54.5798,26.0978 C54.6018,26.0888 54.6248,26.0788 54.6478,26.0688 C54.6698,26.0598 54.6928,26.0508 54.7148,26.0418 C54.7378,26.0338 54.7598,26.0248 54.7828,26.0158 C54.8048,26.0068 54.8278,25.9988 54.8498,25.9908 C54.8728,25.9828 54.8948,25.9748 54.9178,25.9668 C54.9408,25.9588 54.9628,25.9508 54.9858,25.9438 C55.0078,25.9358 55.0308,25.9288 55.0528,25.9208 C55.0758,25.9138 55.0978,25.9068 55.1208,25.8998 C55.1438,25.8928 55.1658,25.8858 55.1888,25.8798 L55.2558,25.8598 C55.2788,25.8538 55.3008,25.8478 55.3238,25.8418 C55.3458,25.8358 55.3688,25.8298 55.3918,25.8238 C55.4138,25.8178 55.4368,25.8128 55.4588,25.8068 L55.5268,25.7908 C55.5488,25.7858 55.5718,25.7808 55.5948,25.7758 C55.6168,25.7708 55.6398,25.7658 55.6618,25.7608 C55.6848,25.7568 55.7068,25.7518 55.7298,25.7468 C55.7518,25.7428 55.7748,25.7388 55.7978,25.7348 C55.8198,25.7298 55.8418,25.7258 55.8648,25.7218 C55.8878,25.7178 55.9098,25.7138 55.9328,25.7108 C55.9548,25.7068 55.9778,25.7028 55.9998,25.6988 L56.0678,25.6888 L56.1358,25.6798 L56.2028,25.6708 L56.2708,25.6628 L56.3388,25.6548 L56.4058,25.6478 C56.4288,25.6458 56.4508,25.6428 56.4738,25.6408 C56.4958,25.6388 56.5188,25.6368 56.5418,25.6358 L56.6088,25.6298 L56.6768,25.6258 L56.7448,25.6218 L56.8118,25.6178 C56.8348,25.6168 56.8568,25.6158 56.8798,25.6148 C56.9018,25.6138 56.9248,25.6128 56.9478,25.6118 L57.0148,25.6108 L57.0828,25.6088 L57.1498,25.6078 L57.2178,25.6078 C57.2408,25.6078 57.2628,25.6068 57.2858,25.6078 L57.3528,25.6078 L57.4208,25.6088 L57.4888,25.6108 L57.5558,25.6128 L57.6238,25.6148 L57.6918,25.6178 L57.7588,25.6218 L57.8268,25.6258 L57.8948,25.6298 L57.9618,25.6348 L57.9888,25.6358 L58.0298,25.6398 L58.0978,25.6448 L58.1648,25.6508 L58.2328,25.6568 L58.2998,25.6628 L58.3678,25.6698 L58.4358,25.6778 L58.5028,25.6848 L58.5708,25.6928 L58.6388,25.7008 L58.7058,25.7098 L58.7738,25.7188 L58.8418,25.7278 L58.9088,25.7378 L58.9768,25.7478 L59.0448,25.7588 L59.1118,25.7688 L59.1798,25.7808 L59.2468,25.7918 L59.3148,25.8038 L59.3828,25.8158 L59.4498,25.8288 L59.5178,25.8418 L59.5858,25.8558 L59.6528,25.8688 L59.7208,25.8838 L59.7888,25.8978 L59.8558,25.9128 L59.9238,25.9288 L59.9918,25.9438 L60.0588,25.9598 L60.1268,25.9768 L60.1938,25.9938 L60.2618,26.0108 L60.3298,26.0288 L60.3968,26.0468 L60.4648,26.0648 L60.5328,26.0838 L60.5998,26.1028 L60.6678,26.1228 L60.7358,26.1428 L60.8028,26.1638 L60.8708,26.1838 L60.9388,26.2048 L61.0058,26.2268 L61.0738,26.2488 L61.1418,26.2718 L61.2088,26.2938 L61.2768,26.3168 L61.3438,26.3408 L61.4118,26.3648 L61.4798,26.3888 L61.5468,26.4138 L61.6148,26.4388 L61.6828,26.4648 L61.7498,26.4908 L61.8178,26.5168 L61.8858,26.5438 L61.9528,26.5708 L62.0208,26.5978 L62.0888,26.6258 L62.1558,26.6538 L62.2238,26.6828 L62.2918,26.7118 L62.3588,26.7408 L62.4268,26.7708 L62.4938,26.8008 L62.5618,26.8308 L62.6298,26.8618 L62.6968,26.8928 L62.7648,26.9248 L62.8328,26.9568 L62.8998,26.9888 L62.9678,27.0208 L63.0358,27.0538 L63.1028,27.0868 L63.1708,27.1208 L63.2388,27.1538 L63.3058,27.1878 L63.3058,24.2158 L63.2388,24.1998 L63.1708,24.1828 L63.1028,24.1668 L63.0358,24.1508 L62.9678,24.1358 L62.8998,24.1198 L62.8328,24.1048 L62.7648,24.0898 L62.6968,24.0748 L62.6298,24.0598 L62.5618,24.0448 L62.4938,24.0308 L62.4268,24.0158 L62.3588,24.0018 L62.2918,23.9878 L62.2238,23.9738 L62.1558,23.9598 L62.0888,23.9458 L62.0208,23.9328 L61.9528,23.9188 L61.8858,23.9058 L61.8178,23.8928 L61.7498,23.8798 L61.6828,23.8668 L61.6148,23.8538 L61.5468,23.8408 L61.4798,23.8288 L61.4118,23.8168 L61.3438,23.8038 L61.2768,23.7918 L61.2088,23.7798 L61.1418,23.7678 L61.0738,23.7568 L61.0058,23.7448 L60.9388,23.7338 L60.8708,23.7218 L60.8028,23.7108 L60.7358,23.6998 L60.6678,23.6888 L60.5998,23.6788 L60.5328,23.6678 L60.4648,23.6578 L60.3968,23.6468 L60.3298,23.6368 L60.2618,23.6268 L60.1938,23.6168 L60.1268,23.6078 L60.0588,23.5978 L59.9918,23.5888 L59.9238,23.5788 L59.8558,23.5698 L59.7888,23.5608 L59.7208,23.5528 L59.6528,23.5438 L59.5858,23.5348 L59.5178,23.5268 L59.4498,23.5188 L59.3828,23.5108 L59.3148,23.5028 L59.2468,23.4958 L59.1798,23.4878 L59.1118,23.4808 L59.0448,23.4738 L58.9768,23.4668 L58.9088,23.4598 L58.8418,23.4538 L58.7738,23.4478 L58.7058,23.4408 L58.6388,23.4348 L58.5708,23.4298 L58.5028,23.4238 L58.4358,23.4188 L58.3678,23.4138 L58.2998,23.4088 L58.2328,23.4038 L58.1648,23.3998 L58.0978,23.3958 L58.0298,23.3918 L57.9618,23.3878 L57.8948,23.3838 L57.8268,23.3808 L57.7918,23.3798 L57.7588,23.3778 L57.6918,23.3748 L57.6238,23.3728 L57.5558,23.3698 L57.4888,23.3668 L57.4208,23.3648 L57.3528,23.3628 L57.2858,23.3608 L57.2178,23.3588 L57.1498,23.3568 L57.0828,23.3548 L57.0148,23.3538 L56.9478,23.3518 L56.8798,23.3508 L56.8118,23.3498 L56.7448,23.3488 L56.6768,23.3478 L56.6088,23.3478 L56.5418,23.3468 L56.4738,23.3468 L56.4058,23.3468 L56.3388,23.3468 L56.2708,23.3468 L56.2028,23.3468 L56.1358,23.3478 L56.0678,23.3488 L55.9998,23.3488 L55.9328,23.3498 L55.8648,23.3518 L55.7978,23.3528 L55.7298,23.3538 L55.6618,23.3558 L55.5948,23.3578 L55.5268,23.3598 L55.4588,23.3618 L55.3918,23.3648 L55.3238,23.3668 L55.2558,23.3698 L55.1888,23.3728 L55.1208,23.3758 L55.0528,23.3798 L54.9858,23.3828 L54.9178,23.3868 L54.8498,23.3908 L54.7828,23.3948 L54.7148,23.3988 L54.6478,23.4038 L54.5798,23.4078 L54.5118,23.4128 L54.4448,23.4178 L54.3768,23.4238 L54.3088,23.4288 L54.2418,23.4348 L54.1738,23.4408 L54.1058,23.4468 L54.0388,23.4538 L53.9708,23.4608 L53.9038,23.4678 L53.8358,23.4748 L53.7678,23.4818 L53.7008,23.4898 L53.6328,23.4968 L53.5648,23.5058 L53.4978,23.5138 L53.4298,23.5228 L53.3618,23.5318 L53.2948,23.5408 L53.2268,23.5498 L53.1588,23.5598 L53.0918,23.5698 L53.0238,23.5798 L52.9558,23.5898 L52.8888,23.6008 L52.8208,23.6118 L52.7538,23.6228 L52.6858,23.6348 L52.6178,23.6468 L52.5508,23.6588 L52.4828,23.6718 L52.4148,23.6848 L52.3478,23.6978 L52.2798,23.7108 L52.2118,23.7248 L52.1448,23.7388 L52.0768,23.7528 L52.0088,23.7678 L51.9418,23.7828 L51.8738,23.7988 L51.8058,23.8138 L51.7388,23.8308 L51.6708,23.8468 L51.6038,23.8638 L51.5358,23.8818 L51.4678,23.8988 L51.4008,23.9168 L51.3328,23.9358 L51.2648,23.9548 L51.1978,23.9738 L51.1298,23.9938 L51.0618,24.0138 L50.9948,24.0338 L50.9268,24.0548 L50.8588,24.0768 C50.8368,24.0838 50.8138,24.0908 50.7918,24.0988 L50.7238,24.1208 C50.7018,24.1288 50.6788,24.1358 50.6568,24.1438 L50.5888,24.1668 L50.5208,24.1908 C50.4978,24.1988 50.4758,24.2078 50.4538,24.2158 C50.4308,24.2238 50.4078,24.2318 50.3858,24.2398 L50.3178,24.2658 C50.2958,24.2748 50.2728,24.2828 50.2508,24.2918 L50.1828,24.3178 L50.1148,24.3448 L50.0478,24.3728 L49.9798,24.4008 L49.9118,24.4298 L49.8448,24.4598 L49.7768,24.4898 L49.7098,24.5208 L49.6418,24.5518 C49.6188,24.5628 49.5968,24.5738 49.5738,24.5838 L49.5068,24.6168 L49.4388,24.6508 L49.3708,24.6848 C49.3488,24.6968 49.3258,24.7078 49.3038,24.7198 C49.2808,24.7318 49.2578,24.7438 49.2358,24.7558 L49.1678,24.7928 L49.1008,24.8298 C49.0778,24.8428 49.0548,24.8558 49.0328,24.8688 C49.0098,24.8818 48.9878,24.8948 48.9648,24.9078 C48.9428,24.9208 48.9198,24.9348 48.8978,24.9478 C48.8748,24.9618 48.8528,24.9748 48.8298,24.9888 C48.8068,25.0028 48.7848,25.0168 48.7618,25.0308 C48.7398,25.0448 48.7168,25.0598 48.6948,25.0738 L48.6268,25.1188 C48.6038,25.1338 48.5818,25.1478 48.5598,25.1638 L48.4918,25.2098 C48.4688,25.2258 48.4468,25.2418 48.4238,25.2578 C48.4018,25.2738 48.3788,25.2898 48.3568,25.3058 C48.3338,25.3228 48.3108,25.3388 48.2888,25.3558 C48.2658,25.3728 48.2438,25.3898 48.2208,25.4068 C48.1988,25.4248 48.1758,25.4418 48.1538,25.4598 C48.1308,25.4778 48.1078,25.4958 48.0858,25.5138 L48.0858,25.5138 L48.0858,25.5138 Z" id="Fill-215" fill="#E21D3B"></path>
        </g>
    </g>
</svg>