<?xml version="1.0" encoding="UTF-8" standalone="no"?>
<svg width="114px" height="63px" viewBox="0 0 114 63" version="1.1" xmlns="http://www.w3.org/2000/svg" xmlns:xlink="http://www.w3.org/1999/xlink">
    <!-- Generator: Sketch 3.8.3 (29802) - http://www.bohemiancoding.com/sketch -->
    <title>mastercard</title>
    <desc>Created with Sketch.</desc>
    <defs></defs>
    <g id="Page-1" stroke="none" stroke-width="1" fill="none" fill-rule="evenodd">
        <g id="mastercard">
            <path d="M108.3333,62.667 L5.6663,62.667 C2.9053,62.667 0.6663,60.428 0.6663,57.667 L0.6663,5 C0.6663,2.239 2.9053,0 5.6663,0 L108.3333,0 C111.0943,0 113.3333,2.239 113.3333,5 L113.3333,57.667 C113.3333,60.428 111.0943,62.667 108.3333,62.667" id="Fill-4" fill="#FEFEFE"></path>
            <polygon id="Fill-27" fill="#FBB131" points="71.0586 51.6839 72.1436 51.6559 73.2136 51.5779 74.2626 51.4429 75.3056 51.2589 76.3186 51.0249 77.3186 50.7409 78.2966 50.4079 79.2546 50.0319 80.1896 49.6069 81.0976 49.1459 81.9766 48.6359 82.8346 48.0899 83.6566 47.5009 84.4506 46.8769 85.2166 46.2179 85.9466 45.5159 86.6486 44.7859 87.3076 44.0199 87.9316 43.2259 88.5206 42.4039 89.0666 41.5459 89.5766 40.6669 90.0376 39.7599 90.4626 38.8239 90.8386 37.8669 91.1716 36.8879 91.4556 35.8889 91.6896 34.8749 91.8736 33.8329 92.0086 32.7829 92.0866 31.7129 92.1146 30.6279 92.0866 29.5509 92.0086 28.4869 91.8736 27.4379 91.6896 26.4099 91.4556 25.3959 91.1716 24.4039 90.8386 23.4249 90.4626 22.4749 90.0376 21.5459 89.5766 20.6389 89.0666 19.7669 88.5206 18.9089 87.9316 18.0869 87.3076 17.2999 86.6486 16.5339 85.9466 15.8039 85.2166 15.1089 84.4506 14.4499 83.6566 13.8259 82.8346 13.2369 81.9766 12.6919 81.0976 12.1879 80.1896 11.7269 79.2546 11.3019 78.2966 10.9259 77.3186 10.5929 76.3186 10.3089 75.3056 10.0759 74.2626 9.8909 73.2136 9.7559 72.1436 9.6789 71.0586 9.6499 69.9806 9.6789 68.9106 9.7559 67.8616 9.8909 66.8266 10.0759 65.8126 10.3089 64.8126 10.5929 63.8416 10.9259 62.8846 11.3019 61.9556 11.7269 61.0556 12.1879 60.1766 12.6919 59.3256 13.2369 58.5026 13.8259 57.7086 14.4499 56.9506 15.1089 56.2206 15.8039 55.5256 16.5339 54.8656 17.2999 54.2426 18.0869 53.6606 18.9089 53.1146 19.7669 52.6116 20.6389 52.1436 21.5459 51.7256 22.4749 51.3496 23.4249 51.0236 24.4039 50.7396 25.3959 50.5056 26.4099 50.3216 27.4379 50.1866 28.4869 50.1086 29.5509 50.0806 30.6279 50.1086 31.7129 50.1866 32.7829 50.3216 33.8329 50.5056 34.8749 50.7396 35.8889 51.0236 36.8879 51.3496 37.8669 51.7256 38.8239 52.1436 39.7599 52.6116 40.6669 53.1146 41.5459 53.6606 42.4039 54.2426 43.2259 54.8656 44.0199 55.5256 44.7859 56.2206 45.5159 56.9506 46.2179 57.7086 46.8769 58.5026 47.5009 59.3256 48.0899 60.1766 48.6359 61.0556 49.1459 61.9556 49.6069 62.8846 50.0319 63.8416 50.4079 64.8126 50.7409 65.8126 51.0249 66.8266 51.2589 67.8616 51.4429 68.9106 51.5779 69.9806 51.6559"></polygon>
            <polygon id="Fill-29" fill="#ED1B2D" points="42.9413 51.6839 44.0193 51.6559 45.0893 51.5779 46.1383 51.4429 47.1733 51.2589 48.1873 51.0249 49.1873 50.7409 50.1583 50.4079 51.1153 50.0319 52.0443 49.6069 52.9443 49.1459 53.8233 48.6359 54.6743 48.0899 55.4973 47.5009 56.2913 46.8769 57.0493 46.2179 57.7793 45.5159 58.4743 44.7859 59.1343 44.0199 59.7573 43.2259 60.3393 42.4039 60.8853 41.5459 61.3883 40.6669 61.8563 39.7599 62.2743 38.8239 62.6503 37.8669 62.9763 36.8879 63.2603 35.8889 63.4943 34.8749 63.6783 33.8329 63.8133 32.7829 63.8913 31.7129 63.9193 30.6279 63.8913 29.5509 63.8133 28.4869 63.6783 27.4379 63.4943 26.4099 63.2603 25.3959 62.9763 24.4039 62.6503 23.4249 62.2743 22.4749 61.8563 21.5459 61.3883 20.6389 60.8853 19.7669 60.3393 18.9089 59.7573 18.0869 59.1343 17.2999 58.4743 16.5339 57.7793 15.8039 57.0493 15.1089 56.2913 14.4499 55.4973 13.8259 54.6743 13.2369 53.8233 12.6919 52.9443 12.1879 52.0443 11.7269 51.1153 11.3019 50.1583 10.9259 49.1873 10.5929 48.1873 10.3089 47.1733 10.0759 46.1383 9.8909 45.0893 9.7559 44.0193 9.6789 42.9413 9.6499 41.8563 9.6789 40.7863 9.7559 39.7373 9.8909 38.6943 10.0759 37.6813 10.3089 36.6813 10.5929 35.7033 10.9259 34.7453 11.3019 33.8103 11.7269 32.9023 12.1879 32.0233 12.6919 31.1653 13.2369 30.3433 13.8259 29.5493 14.4499 28.7833 15.1089 28.0533 15.8039 27.3513 16.5339 26.6923 17.2999 26.0683 18.0869 25.4793 18.9089 24.9343 19.7669 24.4233 20.6389 23.9623 21.5459 23.5373 22.4749 23.1613 23.4249 22.8283 24.4039 22.5443 25.3959 22.3103 26.4099 22.1263 27.4379 21.9913 28.4869 21.9133 29.5509 21.8853 30.6279 21.9133 31.7129 21.9913 32.7829 22.1263 33.8329 22.3103 34.8749 22.5443 35.8889 22.8283 36.8879 23.1613 37.8669 23.5373 38.8239 23.9623 39.7599 24.4233 40.6669 24.9343 41.5459 25.4793 42.4039 26.0683 43.2259 26.6923 44.0199 27.3513 44.7859 28.0533 45.5159 28.7833 46.2179 29.5493 46.8769 30.3433 47.5009 31.1653 48.0899 32.0233 48.6359 32.9023 49.1459 33.8103 49.6069 34.7453 50.0319 35.7033 50.4079 36.6813 50.7409 37.6813 51.0249 38.6943 51.2589 39.7373 51.4429 40.7863 51.5779 41.8563 51.6559"></polygon>
            <polygon id="Fill-31" fill="#FBB131" points="54.5399 17.7109 65.7059 17.7109 65.7059 16.5699 55.5039 16.5699"></polygon>
            <polygon id="Fill-33" fill="#FBB131" points="52.8667 20.249 65.7057 20.249 65.7057 19.108 53.5407 19.108"></polygon>
            <polygon id="Fill-35" fill="#FBB131" points="51.619 22.7799 65.706 22.7799 65.706 21.6379 52.115 21.6379"></polygon>
            <polygon id="Fill-37" fill="#FBB131" points="50.7611 25.3179 65.7061 25.3179 65.7061 24.1769 51.1151 24.1769"></polygon>
            <polygon id="Fill-39" fill="#FBB131" points="51.2574 37.583 65.7414 37.583 65.7414 36.442 50.9034 36.442"></polygon>
            <polygon id="Fill-41" fill="#FBB131" points="52.3279 40.121 65.7409 40.121 65.7409 38.98 51.7959 38.98"></polygon>
            <polygon id="Fill-47" fill="#FBB131" points="50.2578 27.849 65.7058 27.849 65.7058 26.708 50.4778 26.708"></polygon>
            <polygon id="Fill-49" fill="#FBB131" points="59.6727 35.052 65.5637 35.052 65.5637 33.911 59.8857 33.911"></polygon>
            <polygon id="Fill-51" fill="#FBB131" points="60.1406 32.521 65.5646 32.521 65.5646 31.372 60.3536 31.372"></polygon>
            <polygon id="Fill-53" fill="#FBB131" points="49.8678 31.3725 51.3988 31.3725 51.3988 32.5215 49.9388 32.5215"></polygon>
            <polygon id="Fill-55" fill="#FEFEFE" points="47.0107 29.99 46.9117 29.983 46.8117 29.969 46.7197 29.955 46.6277 29.94 46.5427 29.926 46.4507 29.912 46.3587 29.898 46.2597 29.884 46.1597 29.869 46.0467 29.862 45.9187 29.855 45.7847 29.848 45.6357 29.848 45.4727 29.855 45.2877 29.869 45.0827 29.884 44.9407 29.905 44.8057 29.926 44.6857 29.969 44.5787 30.011 44.4797 30.061 44.3877 30.118 44.3167 30.189 44.2527 30.252 44.2107 30.33 44.1747 30.408 44.1607 30.493 44.1607 30.578 44.1817 30.671 44.2107 30.763 44.2667 30.855 44.3377 30.947 44.4797 31.082 44.6497 31.188 44.8487 31.28 45.0607 31.358 45.2877 31.429 45.5217 31.507 45.7557 31.592 45.9827 31.684 46.1957 31.805 46.3937 31.954 46.5707 32.131 46.7197 32.351 46.8337 32.62 46.9047 32.939 46.9327 33.322 46.9047 33.769 46.8547 34.102 46.7697 34.393 46.6567 34.662 46.5147 34.896 46.3517 35.102 46.1667 35.279 45.9687 35.435 45.7487 35.569 45.5217 35.676 45.2877 35.768 45.0467 35.839 44.7987 35.896 44.5577 35.938 44.3237 35.959 44.0897 35.974 43.8697 35.981 43.5647 35.981 43.2817 35.974 43.0337 35.974 42.7997 35.966 42.5867 35.959 42.3957 35.945 42.2257 35.931 42.0617 35.91 41.9137 35.896 41.7787 35.867 41.6437 35.846 41.5237 35.811 41.4027 35.782 41.2897 35.74 41.1757 35.697 41.0557 35.655 41.3747 34.088 41.4387 34.102 41.5167 34.123 41.6157 34.152 41.7357 34.18 41.8637 34.208 42.0057 34.237 42.1617 34.272 42.3317 34.3 42.5087 34.329 42.6927 34.357 42.8847 34.378 43.0827 34.4 43.2887 34.407 43.4947 34.414 43.6997 34.414 43.9057 34.407 44.1107 34.364 44.2737 34.308 44.4017 34.23 44.5007 34.13 44.5717 34.031 44.6287 33.918 44.6637 33.804 44.6927 33.698 44.7067 33.492 44.6427 33.315 44.5227 33.173 44.3447 33.053 44.1327 32.946 43.8847 32.84 43.6077 32.741 43.3317 32.627 43.0477 32.5 42.7787 32.351 42.5297 32.166 42.3037 31.947 42.1257 31.677 41.9987 31.358 41.9347 30.975 41.9417 30.522 41.9767 30.245 42.0267 29.983 42.0977 29.742 42.1827 29.515 42.2957 29.302 42.4237 29.118 42.5727 28.941 42.7497 28.785 42.9557 28.65 43.1827 28.537 43.4377 28.43 43.7207 28.352 44.0397 28.289 44.3877 28.239 44.7707 28.211 45.1887 28.203 45.4507 28.203 45.6917 28.211 45.9117 28.218 46.1107 28.225 46.2877 28.239 46.4507 28.253 46.5927 28.267 46.7197 28.281 46.8407 28.296 46.9397 28.317 47.0317 28.331 47.1167 28.345 47.1877 28.359 47.2517 28.366 47.3157 28.381 47.3727 28.388"></polygon>
            <polyline id="Stroke-57" stroke="#FEFEFE" stroke-width="0.215" points="47.0107 29.99 47.0107 29.99 46.9117 29.983 46.8117 29.969 46.7197 29.955 46.6277 29.94 46.5427 29.926 46.4507 29.912 46.3587 29.898 46.2597 29.884 46.1597 29.869 46.0467 29.862 45.9187 29.855 45.7847 29.848 45.6357 29.848 45.4727 29.855 45.2877 29.869 45.0827 29.884 44.9407 29.905 44.8057 29.926 44.6857 29.969 44.5787 30.011 44.4797 30.061 44.3877 30.118 44.3167 30.189 44.2527 30.252 44.2107 30.33 44.1747 30.408 44.1607 30.493 44.1607 30.578 44.1817 30.671 44.2107 30.763 44.2667 30.855 44.3377 30.947 44.4797 31.082 44.6497 31.188 44.8487 31.28 45.0607 31.358 45.2877 31.429 45.5217 31.507 45.7557 31.592 45.9827 31.684 46.1957 31.805 46.3937 31.954 46.5707 32.131 46.7197 32.351 46.8337 32.62 46.9047 32.939 46.9327 33.322 46.9047 33.769 46.8547 34.102 46.7697 34.393 46.6567 34.662 46.5147 34.896 46.3517 35.102 46.1667 35.279 45.9687 35.435 45.7487 35.569 45.5217 35.676 45.2877 35.768 45.0467 35.839 44.7987 35.896 44.5577 35.938 44.3237 35.959 44.0897 35.974 43.8697 35.981 43.5647 35.981 43.2817 35.974 43.0337 35.974 42.7997 35.966 42.5867 35.959 42.3957 35.945 42.2257 35.931 42.0617 35.91 41.9137 35.896 41.7787 35.867 41.6437 35.846 41.5237 35.811 41.4027 35.782 41.2897 35.74 41.1757 35.697 41.0557 35.655 41.3747 34.088 41.4387 34.102 41.5167 34.123 41.6157 34.152 41.7357 34.18 41.8637 34.208 42.0057 34.237 42.1617 34.272 42.3317 34.3 42.5087 34.329 42.6927 34.357 42.8847 34.378 43.0827 34.4 43.2887 34.407 43.4947 34.414 43.6997 34.414 43.9057 34.407 44.1107 34.364 44.2737 34.308 44.4017 34.23 44.5007 34.13 44.5717 34.031 44.6287 33.918 44.6637 33.804 44.6927 33.698 44.7067 33.492 44.6427 33.315 44.5227 33.173 44.3447 33.053 44.1327 32.946 43.8847 32.84 43.6077 32.741 43.3317 32.627 43.0477 32.5 42.7787 32.351 42.5297 32.166 42.3037 31.947 42.1257 31.677 41.9987 31.358 41.9347 30.975 41.9417 30.522 41.9767 30.245 42.0267 29.983 42.0977 29.742 42.1827 29.515 42.2957 29.302 42.4237 29.118 42.5727 28.941 42.7497 28.785 42.9557 28.65 43.1827 28.537 43.4377 28.43 43.7207 28.352 44.0397 28.289 44.3877 28.239 44.7707 28.211 45.1887 28.203 45.4507 28.203 45.6917 28.211 45.9117 28.218 46.1107 28.225 46.2877 28.239 46.4507 28.253 46.5927 28.267 46.7197 28.281 46.8407 28.296 46.9397 28.317 47.0317 28.331 47.1167 28.345 47.1877 28.359 47.2517 28.366 47.3157 28.381 47.3727 28.388 47.0107 29.99"></polyline>
            <polygon id="Fill-59" fill="#FEFEFE" points="48.691 26.6367 50.655 26.6367 50.364 28.3527 51.548 28.3527 51.293 29.9547 50.045 29.9187 49.365 33.8747 49.357 34.0167 49.393 34.1377 49.464 34.2297 49.556 34.3077 49.684 34.3577 49.825 34.3997 49.981 34.4277 50.151 34.4427 50.307 34.4357 50.449 34.4207 50.577 34.3997 50.69 34.3717 50.782 34.3427 50.846 34.3217 50.889 34.3077 50.903 34.3007 50.655 35.6187 50.605 35.6547 50.556 35.6827 50.506 35.7117 50.456 35.7397 50.407 35.7607 50.35 35.7827 50.286 35.8037 50.222 35.8247 50.151 35.8457 50.081 35.8607 49.995 35.8747 49.91 35.8887 49.818 35.9027 49.712 35.9167 49.598 35.9307 49.478 35.9457 48.939 35.9457 48.656 35.9237 48.407 35.8957 48.181 35.8527 47.989 35.8037 47.826 35.7397 47.691 35.6687 47.571 35.5837 47.479 35.4917 47.408 35.3927 47.358 35.2717 47.323 35.1517 47.301 35.0167 47.294 34.8677 47.294 34.7117 47.316 34.5487 47.337 34.3717"></polygon>
            <polyline id="Stroke-61" stroke="#FEFEFE" stroke-width="0.215" points="48.691 26.6367 50.655 26.6367 50.364 28.3527 51.548 28.3527 51.293 29.9547 50.045 29.9187 49.365 33.8747 49.357 34.0167 49.393 34.1377 49.464 34.2297 49.556 34.3077 49.684 34.3577 49.825 34.3997 49.981 34.4277 50.151 34.4427 50.307 34.4357 50.449 34.4207 50.577 34.3997 50.69 34.3717 50.782 34.3427 50.846 34.3217 50.889 34.3077 50.903 34.3007 50.655 35.6187 50.605 35.6547 50.556 35.6827 50.506 35.7117 50.456 35.7397 50.407 35.7607 50.35 35.7827 50.286 35.8037 50.222 35.8247 50.151 35.8457 50.081 35.8607 49.995 35.8747 49.91 35.8887 49.818 35.9027 49.712 35.9167 49.598 35.9307 49.478 35.9457 48.939 35.9457 48.656 35.9237 48.407 35.8957 48.181 35.8527 47.989 35.8037 47.826 35.7397 47.691 35.6687 47.571 35.5837 47.479 35.4917 47.408 35.3927 47.358 35.2717 47.323 35.1517 47.301 35.0167 47.294 34.8677 47.294 34.7117 47.316 34.5487 47.337 34.3717 48.691 26.6367"></polyline>
            <polygon id="Fill-63" fill="#FEFEFE" points="53.1149 32.6274 53.0939 32.7484 53.0869 32.8754 53.1009 33.0104 53.1289 33.1454 53.1789 33.2794 53.2359 33.4074 53.3139 33.5424 53.3989 33.6624 53.4979 33.7834 53.6039 33.8894 53.7179 33.9954 53.8449 34.0804 53.9729 34.1584 54.1149 34.2224 54.2559 34.2724 54.3979 34.3004 54.5829 34.3284 54.7599 34.3504 54.9439 34.3714 55.1279 34.3854 55.3129 34.3924 55.5039 34.3924 55.6889 34.3854 55.8799 34.3714 56.0709 34.3434 56.2629 34.3074 56.4609 34.2654 56.6529 34.2014 56.8509 34.1234 57.0569 34.0384 57.2549 33.9244 57.4609 33.8044 57.1769 35.5484 57.0639 35.6054 56.9499 35.6614 56.8369 35.7044 56.7309 35.7464 56.6239 35.7824 56.5109 35.8174 56.3979 35.8464 56.2769 35.8674 56.1489 35.8884 56.0079 35.9024 55.8589 35.9174 55.6959 35.9314 55.5109 35.9384 55.3199 35.9384 55.0999 35.9454 54.8659 35.9454 54.5189 35.9384 54.1639 35.9024 53.8099 35.8534 53.4549 35.7684 53.1079 35.6614 52.7749 35.5274 52.4559 35.3494 52.1579 35.1444 51.8809 34.9034 51.6399 34.6124 51.4349 34.2864 51.2649 33.9104 51.1439 33.4924 51.0659 33.0174 51.0449 32.4924 51.0799 31.9114 51.1089 31.6844 51.1509 31.4224 51.2079 31.1454 51.2859 30.8484 51.3919 30.5434 51.5199 30.2384 51.6829 29.9264 51.8809 29.6284 52.1079 29.3454 52.3849 29.0754 52.6969 28.8344 53.0509 28.6214 53.4619 28.4444 53.9229 28.3174 54.4339 28.2314 55.0079 28.2034 55.2839 28.2104 55.5749 28.2394 55.8659 28.2884 56.1559 28.3594 56.4399 28.4654 56.7169 28.5934 56.9719 28.7634 57.2059 28.9624 57.4179 29.2034 57.5959 29.4864 57.7369 29.8124 57.8369 30.1884 57.8929 30.6144 57.8999 31.0964 57.8509 31.6344 57.7439 32.2304 57.7089 32.6624 52.5409 32.6624 52.8669 31.2664 55.9719 31.2664 55.9859 31.0894 55.9789 30.9184 55.9649 30.7624 55.9369 30.6214 55.8869 30.4864 55.8369 30.3654 55.7669 30.2594 55.6959 30.1604 55.6109 30.0754 55.5179 30.0044 55.4119 29.9404 55.3059 29.8834 55.1919 29.8414 55.0789 29.8124 54.9579 29.7914 54.8309 29.7774 54.6959 29.7844 54.5679 29.8054 54.4479 29.8344 54.3269 29.8764 54.2069 29.9334 54.0999 29.9974 53.9939 30.0754 53.9019 30.1604 53.8099 30.2594 53.7249 30.3654 53.6469 30.4794 53.5829 30.5994 53.5189 30.7274 53.4689 30.8694 53.4269 31.0114 53.3989 31.1594"></polygon>
            <polyline id="Stroke-65" stroke="#FEFEFE" stroke-width="0.215" points="53.1149 32.6274 53.1149 32.6274 53.0939 32.7484 53.0869 32.8754 53.1009 33.0104 53.1289 33.1454 53.1789 33.2794 53.2359 33.4074 53.3139 33.5424 53.3989 33.6624 53.4979 33.7834 53.6039 33.8894 53.7179 33.9954 53.8449 34.0804 53.9729 34.1584 54.1149 34.2224 54.2559 34.2724 54.3979 34.3004 54.5829 34.3284 54.7599 34.3504 54.9439 34.3714 55.1279 34.3854 55.3129 34.3924 55.5039 34.3924 55.6889 34.3854 55.8799 34.3714 56.0709 34.3434 56.2629 34.3074 56.4609 34.2654 56.6529 34.2014 56.8509 34.1234 57.0569 34.0384 57.2549 33.9244 57.4609 33.8044 57.1769 35.5484 57.0639 35.6054 56.9499 35.6614 56.8369 35.7044 56.7309 35.7464 56.6239 35.7824 56.5109 35.8174 56.3979 35.8464 56.2769 35.8674 56.1489 35.8884 56.0079 35.9024 55.8589 35.9174 55.6959 35.9314 55.5109 35.9384 55.3199 35.9384 55.0999 35.9454 54.8659 35.9454 54.5189 35.9384 54.1639 35.9024 53.8099 35.8534 53.4549 35.7684 53.1079 35.6614 52.7749 35.5274 52.4559 35.3494 52.1579 35.1444 51.8809 34.9034 51.6399 34.6124 51.4349 34.2864 51.2649 33.9104 51.1439 33.4924 51.0659 33.0174 51.0449 32.4924 51.0799 31.9114 51.1089 31.6844 51.1509 31.4224 51.2079 31.1454 51.2859 30.8484 51.3919 30.5434 51.5199 30.2384 51.6829 29.9264 51.8809 29.6284 52.1079 29.3454 52.3849 29.0754 52.6969 28.8344 53.0509 28.6214 53.4619 28.4444 53.9229 28.3174 54.4339 28.2314 55.0079 28.2034 55.2839 28.2104 55.5749 28.2394 55.8659 28.2884 56.1559 28.3594 56.4399 28.4654 56.7169 28.5934 56.9719 28.7634 57.2059 28.9624 57.4179 29.2034 57.5959 29.4864 57.7369 29.8124 57.8369 30.1884 57.8929 30.6144 57.8999 31.0964 57.8509 31.6344 57.7439 32.2304 57.7089 32.6624 52.5409 32.6624 52.8669 31.2664 55.9719 31.2664 55.9859 31.0894 55.9789 30.9184 55.9649 30.7624 55.9369 30.6214 55.8869 30.4864 55.8369 30.3654 55.7669 30.2594 55.6959 30.1604 55.6109 30.0754 55.5179 30.0044 55.4119 29.9404 55.3059 29.8834 55.1919 29.8414 55.0789 29.8124 54.9579 29.7914 54.8309 29.7774 54.6959 29.7844 54.5679 29.8054 54.4479 29.8344 54.3269 29.8764 54.2069 29.9334 54.0999 29.9974 53.9939 30.0754 53.9019 30.1604 53.8099 30.2594 53.7249 30.3654 53.6469 30.4794 53.5829 30.5994 53.5189 30.7274 53.4689 30.8694 53.4269 31.0114 53.3989 31.1594 53.1149 32.6274"></polyline>
            <polygon id="Fill-67" fill="#FEFEFE" points="70.0235 28.7777 69.9315 28.7277 69.8395 28.6857 69.7395 28.6357 69.6335 28.5867 69.5275 28.5437 69.4065 28.5017 69.2865 28.4587 69.1585 28.4157 69.0235 28.3807 68.8895 28.3527 68.7405 28.3237 68.5915 28.3027 68.4285 28.2887 68.2655 28.2747 68.0955 28.2747 67.9175 28.2747 67.7405 28.2747 67.5565 28.2887 67.3645 28.3097 67.1665 28.3457 66.9675 28.4017 66.7695 28.4797 66.5705 28.5787 66.3725 28.7067 66.1805 28.8627 65.9965 29.0467 65.8195 29.2737 65.6495 29.5367 65.4935 29.8487 65.3445 30.2027 65.2095 30.5997 65.0965 31.0537 65.0535 31.3087 65.0255 31.5567 65.0115 31.8047 65.0185 32.0457 65.0395 32.2867 65.0895 32.5137 65.1525 32.7267 65.2305 32.9397 65.3375 33.1307 65.4645 33.3147 65.6135 33.4777 65.7835 33.6267 65.9755 33.7547 66.1955 33.8607 66.4365 33.9527 66.7055 34.0167 66.7975 34.0377 66.9045 34.0597 67.0315 34.0737 67.1735 34.0877 67.3295 34.1017 67.4925 34.1017 67.6695 34.1017 67.8475 34.0877 68.0315 34.0667 68.2155 34.0307 68.3925 33.9817 68.5705 33.9247 68.7475 33.8467 68.9105 33.7547 69.0595 33.6407 69.2015 33.5137 68.8825 35.4067 68.8395 35.4417 68.7975 35.4847 68.7405 35.5337 68.6765 35.5767 68.5985 35.6337 68.4995 35.6827 68.3855 35.7327 68.2585 35.7747 68.0955 35.8247 67.9105 35.8597 67.6985 35.8887 67.4495 35.9167 67.1735 35.9307 66.8545 35.9377 66.4925 35.9307 66.0955 35.9097 65.7695 35.8747 65.4435 35.8037 65.1175 35.6967 64.7915 35.5557 64.4795 35.3847 64.1815 35.1727 63.8985 34.9247 63.6355 34.6407 63.4015 34.3217 63.2035 33.9677 63.0335 33.5707 62.9055 33.1377 62.8205 32.6627 62.7925 32.1597 62.8065 31.6067 62.8845 31.0177 62.9415 30.7277 63.0045 30.4437 63.0755 30.1677 63.1465 29.9047 63.2245 29.6567 63.3165 29.4087 63.4085 29.1747 63.5085 28.9547 63.6145 28.7347 63.7205 28.5297 63.8415 28.3307 63.9695 28.1467 64.0965 27.9697 64.2385 27.7997 64.3805 27.6437 64.5295 27.4947 64.6925 27.3527 64.8555 27.2177 65.0255 27.0977 65.2025 26.9837 65.3945 26.8777 65.5855 26.7857 65.7835 26.7007 65.9895 26.6227 66.2095 26.5517 66.4295 26.4947 66.6555 26.4457 66.8975 26.4027 67.1385 26.3667 67.3935 26.3387 67.6485 26.3247 67.9175 26.3177 68.1445 26.3247 68.3645 26.3387 68.5775 26.3597 68.7895 26.3887 68.9885 26.4167 69.1795 26.4597 69.3645 26.4947 69.5345 26.5377 69.6975 26.5797 69.8395 26.6227 69.9735 26.6647 70.0875 26.7077 70.1865 26.7427 70.2715 26.7717 70.3355 26.7997 70.3775 26.8137"></polygon>
            <polyline id="Stroke-69" stroke="#FEFEFE" stroke-width="0.215" points="70.0235 28.7777 70.0235 28.7777 69.9315 28.7277 69.8395 28.6857 69.7395 28.6357 69.6335 28.5867 69.5275 28.5437 69.4065 28.5017 69.2865 28.4587 69.1585 28.4157 69.0235 28.3807 68.8895 28.3527 68.7405 28.3237 68.5915 28.3027 68.4285 28.2887 68.2655 28.2747 68.0955 28.2747 67.9175 28.2747 67.7405 28.2747 67.5565 28.2887 67.3645 28.3097 67.1665 28.3457 66.9675 28.4017 66.7695 28.4797 66.5705 28.5787 66.3725 28.7067 66.1805 28.8627 65.9965 29.0467 65.8195 29.2737 65.6495 29.5367 65.4935 29.8487 65.3445 30.2027 65.2095 30.5997 65.0965 31.0537 65.0535 31.3087 65.0255 31.5567 65.0115 31.8047 65.0185 32.0457 65.0395 32.2867 65.0895 32.5137 65.1525 32.7267 65.2305 32.9397 65.3375 33.1307 65.4645 33.3147 65.6135 33.4777 65.7835 33.6267 65.9755 33.7547 66.1955 33.8607 66.4365 33.9527 66.7055 34.0167 66.7975 34.0377 66.9045 34.0597 67.0315 34.0737 67.1735 34.0877 67.3295 34.1017 67.4925 34.1017 67.6695 34.1017 67.8475 34.0877 68.0315 34.0667 68.2155 34.0307 68.3925 33.9817 68.5705 33.9247 68.7475 33.8467 68.9105 33.7547 69.0595 33.6407 69.2015 33.5137 68.8825 35.4067 68.8395 35.4417 68.7975 35.4847 68.7405 35.5337 68.6765 35.5767 68.5985 35.6337 68.4995 35.6827 68.3855 35.7327 68.2585 35.7747 68.0955 35.8247 67.9105 35.8597 67.6985 35.8887 67.4495 35.9167 67.1735 35.9307 66.8545 35.9377 66.4925 35.9307 66.0955 35.9097 65.7695 35.8747 65.4435 35.8037 65.1175 35.6967 64.7915 35.5557 64.4795 35.3847 64.1815 35.1727 63.8985 34.9247 63.6355 34.6407 63.4015 34.3217 63.2035 33.9677 63.0335 33.5707 62.9055 33.1377 62.8205 32.6627 62.7925 32.1597 62.8065 31.6067 62.8845 31.0177 62.9415 30.7277 63.0045 30.4437 63.0755 30.1677 63.1465 29.9047 63.2245 29.6567 63.3165 29.4087 63.4085 29.1747 63.5085 28.9547 63.6145 28.7347 63.7205 28.5297 63.8415 28.3307 63.9695 28.1467 64.0965 27.9697 64.2385 27.7997 64.3805 27.6437 64.5295 27.4947 64.6925 27.3527 64.8555 27.2177 65.0255 27.0977 65.2025 26.9837 65.3945 26.8777 65.5855 26.7857 65.7835 26.7007 65.9895 26.6227 66.2095 26.5517 66.4295 26.4947 66.6555 26.4457 66.8975 26.4027 67.1385 26.3667 67.3935 26.3387 67.6485 26.3247 67.9175 26.3177 68.1445 26.3247 68.3645 26.3387 68.5775 26.3597 68.7895 26.3887 68.9885 26.4167 69.1795 26.4597 69.3645 26.4947 69.5345 26.5377 69.6975 26.5797 69.8395 26.6227 69.9735 26.6647 70.0875 26.7077 70.1865 26.7427 70.2715 26.7717 70.3355 26.7997 70.3775 26.8137 70.0235 28.7777"></polyline>
            <polygon id="Fill-71" fill="#FEFEFE" points="87.478 35.9453 85.514 35.9453 85.656 35.1583 85.656 35.0873 85.543 35.2293 85.422 35.3573 85.302 35.4703 85.174 35.5693 85.046 35.6613 84.919 35.7393 84.791 35.8033 84.656 35.8673 84.522 35.9173 84.387 35.9523 84.252 35.9883 84.11 36.0093 83.969 36.0303 83.834 36.0443 83.692 36.0513 83.55 36.0513 83.182 36.0233 82.841 35.9453 82.529 35.8243 82.246 35.6613 81.991 35.4563 81.764 35.2153 81.565 34.9523 81.395 34.6553 81.253 34.3363 81.14 34.0023 81.062 33.6553 81.005 33.2943 80.984 32.9323 80.991 32.5633 81.026 32.2023 81.09 31.8403 81.197 31.4223 81.324 31.0253 81.473 30.6633 81.65 30.3233 81.835 30.0043 82.047 29.7203 82.267 29.4653 82.501 29.2313 82.749 29.0263 83.012 28.8483 83.281 28.6923 83.55 28.5723 83.834 28.4733 84.118 28.4093 84.401 28.3663 84.692 28.3523 84.897 28.3593 85.096 28.3803 85.28 28.4163 85.45 28.4663 85.613 28.5223 85.755 28.5863 85.897 28.6643 86.025 28.7423 86.138 28.8273 86.245 28.9193 86.337 29.0113 86.422 29.1043 86.493 29.1963 86.556 29.2883 86.613 29.3733 86.656 29.4583 87.152 26.6723 89.08 26.6723"></polygon>
            <polyline id="Stroke-73" stroke="#FEFEFE" stroke-width="0.215" points="87.478 35.9453 85.514 35.9453 85.656 35.1583 85.656 35.0873 85.543 35.2293 85.422 35.3573 85.302 35.4703 85.174 35.5693 85.046 35.6613 84.919 35.7393 84.791 35.8033 84.656 35.8673 84.522 35.9173 84.387 35.9523 84.252 35.9883 84.11 36.0093 83.969 36.0303 83.834 36.0443 83.692 36.0513 83.55 36.0513 83.182 36.0233 82.841 35.9453 82.529 35.8243 82.246 35.6613 81.991 35.4563 81.764 35.2153 81.565 34.9523 81.395 34.6553 81.253 34.3363 81.14 34.0023 81.062 33.6553 81.005 33.2943 80.984 32.9323 80.991 32.5633 81.026 32.2023 81.09 31.8403 81.197 31.4223 81.324 31.0253 81.473 30.6633 81.65 30.3233 81.835 30.0043 82.047 29.7203 82.267 29.4653 82.501 29.2313 82.749 29.0263 83.012 28.8483 83.281 28.6923 83.55 28.5723 83.834 28.4733 84.118 28.4093 84.401 28.3663 84.692 28.3523 84.897 28.3593 85.096 28.3803 85.28 28.4163 85.45 28.4663 85.613 28.5223 85.755 28.5863 85.897 28.6643 86.025 28.7423 86.138 28.8273 86.245 28.9193 86.337 29.0113 86.422 29.1043 86.493 29.1963 86.556 29.2883 86.613 29.3733 86.656 29.4583 87.152 26.6723 89.08 26.6723 87.478 35.9453"></polyline>
            <polygon id="Fill-75" fill="#FBB131" points="84.2664 34.2296 84.4654 34.2156 84.6494 34.1726 84.8194 34.1236 84.9824 34.0456 85.1314 33.9606 85.2734 33.8536 85.4074 33.7336 85.5284 33.6056 85.6344 33.4636 85.7344 33.3076 85.8264 33.1446 85.9044 32.9746 85.9754 32.7976 86.0314 32.6136 86.0814 32.4216 86.1164 32.2306 86.1524 32.0316 86.1734 31.8266 86.1734 31.6346 86.1664 31.4366 86.1454 31.2516 86.1164 31.0746 86.0674 30.9046 86.0104 30.7416 85.9394 30.5996 85.8544 30.4646 85.7624 30.3516 85.6564 30.2526 85.5354 30.1676 85.4074 30.1106 85.2734 30.0756 85.1244 30.0606 84.9324 30.0756 84.7554 30.1036 84.5924 30.1606 84.4294 30.2306 84.2874 30.3236 84.1454 30.4366 84.0254 30.5576 83.9044 30.6916 83.7984 30.8476 83.6994 31.0106 83.6074 31.1806 83.5294 31.3656 83.4584 31.5566 83.4014 31.7486 83.3444 31.9536 83.3024 32.1596 83.2664 32.4716 83.2814 32.8116 83.3304 33.1586 83.4224 33.4926 83.5644 33.7826 83.7484 34.0166 83.9824 34.1726"></polygon>
            <polygon id="Fill-77" fill="#FEFEFE" points="40.7294 34.3714 40.4454 35.9454 38.6594 35.9454 38.7084 35.6544 38.7444 35.3924 38.7724 35.1934 38.8014 35.0874 38.7014 35.2004 38.5884 35.3144 38.4534 35.4204 38.3044 35.5204 38.1344 35.6194 37.9574 35.7044 37.7734 35.7894 37.5814 35.8604 37.3764 35.9244 37.1704 35.9734 36.9644 36.0164 36.7524 36.0444 36.5464 36.0584 36.3414 36.0654 36.1424 36.0444 35.9514 36.0164 35.7024 35.9524 35.4764 35.8814 35.2774 35.7894 35.1004 35.6834 34.9444 35.5694 34.8024 35.4424 34.6894 35.3074 34.5894 35.1654 34.5044 35.0164 34.4334 34.8604 34.3774 34.7044 34.3344 34.5484 34.3064 34.3854 34.2854 34.2224 34.2704 34.0664 34.2704 33.9104 34.2924 33.6344 34.3344 33.3714 34.4054 33.1234 34.4974 32.8824 34.6114 32.6554 34.7384 32.4504 34.8874 32.2514 35.0574 32.0744 35.2354 31.9114 35.4334 31.7624 35.6394 31.6274 35.8514 31.5144 36.0784 31.4154 36.3124 31.3374 36.5534 31.2734 36.8014 31.2304 36.8164 31.2304 36.8514 31.2234 36.9014 31.2164 36.9794 31.2094 37.0644 31.1954 37.1634 31.1884 37.2694 31.1744 37.3904 31.1594 37.5104 31.1454 37.6314 31.1314 37.7584 31.1244 37.8724 31.1104 37.9854 31.1034 38.0924 31.0964 38.1914 31.0894 38.2694 31.0894 38.4324 31.0894 38.6024 31.0964 38.7584 31.1034 38.9144 31.1034 39.0424 31.1104 39.1414 31.1174 39.2124 31.1244 39.2334 31.1244 39.2474 31.0744 39.2904 30.9474 39.3254 30.7984 39.3404 30.6634 39.3114 30.5074 39.2474 30.3654 39.1624 30.2384 39.0494 30.1314 38.9144 30.0394 38.7654 29.9754 38.5954 29.9334 38.4114 29.9194 38.2124 29.9124 38.0004 29.9054 37.7804 29.9054 37.5534 29.9124 37.3194 29.9264 37.0924 29.9474 36.8654 29.9684 36.6454 29.9974 36.4334 30.0254 36.2274 30.0614 36.0434 30.0964 35.8734 30.1314 35.7174 30.1744 35.5894 30.2174 35.4904 30.2664 35.4124 30.3094 35.9154 28.6004 36.0714 28.5364 36.2274 28.4804 36.3974 28.4304 36.5674 28.3944 36.7384 28.3594 36.9224 28.3314 37.1064 28.3024 37.2984 28.2884 37.4964 28.2744 37.7024 28.2674 37.9144 28.2604 38.1344 28.2604 38.3614 28.2604 38.5954 28.2604 38.8434 28.2674 39.0914 28.2744 39.2904 28.2884 39.5034 28.3244 39.7224 28.3734 39.9494 28.4374 40.1694 28.5224 40.3824 28.6214 40.5944 28.7424 40.7934 28.8774 40.9704 29.0334 41.1264 29.2034 41.2684 29.3944 41.3744 29.6074 41.4454 29.8344 41.4884 30.0754 41.4884 30.3444 41.4454 30.6284"></polygon>
            <polyline id="Stroke-79" stroke="#FEFEFE" stroke-width="0.215" points="40.7294 34.3714 40.4454 35.9454 38.6594 35.9454 38.7084 35.6544 38.7444 35.3924 38.7724 35.1934 38.8014 35.0874 38.7014 35.2004 38.5884 35.3144 38.4534 35.4204 38.3044 35.5204 38.1344 35.6194 37.9574 35.7044 37.7734 35.7894 37.5814 35.8604 37.3764 35.9244 37.1704 35.9734 36.9644 36.0164 36.7524 36.0444 36.5464 36.0584 36.3414 36.0654 36.1424 36.0444 35.9514 36.0164 35.7024 35.9524 35.4764 35.8814 35.2774 35.7894 35.1004 35.6834 34.9444 35.5694 34.8024 35.4424 34.6894 35.3074 34.5894 35.1654 34.5044 35.0164 34.4334 34.8604 34.3774 34.7044 34.3344 34.5484 34.3064 34.3854 34.2854 34.2224 34.2704 34.0664 34.2704 33.9104 34.2924 33.6344 34.3344 33.3714 34.4054 33.1234 34.4974 32.8824 34.6114 32.6554 34.7384 32.4504 34.8874 32.2514 35.0574 32.0744 35.2354 31.9114 35.4334 31.7624 35.6394 31.6274 35.8514 31.5144 36.0784 31.4154 36.3124 31.3374 36.5534 31.2734 36.8014 31.2304 36.8164 31.2304 36.8514 31.2234 36.9014 31.2164 36.9794 31.2094 37.0644 31.1954 37.1634 31.1884 37.2694 31.1744 37.3904 31.1594 37.5104 31.1454 37.6314 31.1314 37.7584 31.1244 37.8724 31.1104 37.9854 31.1034 38.0924 31.0964 38.1914 31.0894 38.2694 31.0894 38.4324 31.0894 38.6024 31.0964 38.7584 31.1034 38.9144 31.1034 39.0424 31.1104 39.1414 31.1174 39.2124 31.1244 39.2334 31.1244 39.2474 31.0744 39.2904 30.9474 39.3254 30.7984 39.3404 30.6634 39.3114 30.5074 39.2474 30.3654 39.1624 30.2384 39.0494 30.1314 38.9144 30.0394 38.7654 29.9754 38.5954 29.9334 38.4114 29.9194 38.2124 29.9124 38.0004 29.9054 37.7804 29.9054 37.5534 29.9124 37.3194 29.9264 37.0924 29.9474 36.8654 29.9684 36.6454 29.9974 36.4334 30.0254 36.2274 30.0614 36.0434 30.0964 35.8734 30.1314 35.7174 30.1744 35.5894 30.2174 35.4904 30.2664 35.4124 30.3094 35.9154 28.6004 36.0714 28.5364 36.2274 28.4804 36.3974 28.4304 36.5674 28.3944 36.7384 28.3594 36.9224 28.3314 37.1064 28.3024 37.2984 28.2884 37.4964 28.2744 37.7024 28.2674 37.9144 28.2604 38.1344 28.2604 38.3614 28.2604 38.5954 28.2604 38.8434 28.2674 39.0914 28.2744 39.2904 28.2884 39.5034 28.3244 39.7224 28.3734 39.9494 28.4374 40.1694 28.5224 40.3824 28.6214 40.5944 28.7424 40.7934 28.8774 40.9704 29.0334 41.1264 29.2034 41.2684 29.3944 41.3744 29.6074 41.4454 29.8344 41.4884 30.0754 41.4884 30.3444 41.4454 30.6284 40.7294 34.3714"></polyline>
            <polygon id="Fill-81" fill="#ED1B2D" points="39.0208 32.521 39.0138 32.486 38.9858 32.45 38.9428 32.429 38.8718 32.415 38.7938 32.4 38.7018 32.393 38.5958 32.393 38.4888 32.393 38.3758 32.4 38.2548 32.415 38.1418 32.429 38.0278 32.443 37.9218 32.457 37.8228 32.478 37.7378 32.5 37.6598 32.521 37.6098 32.535 37.5528 32.556 37.4748 32.585 37.3968 32.62 37.3048 32.663 37.2128 32.712 37.1138 32.762 37.0218 32.819 36.9218 32.89 36.8298 32.961 36.7448 33.046 36.6668 33.131 36.5958 33.223 36.5468 33.322 36.5038 33.436 36.4828 33.549 36.4758 33.79 36.5108 33.981 36.5818 34.123 36.6738 34.23 36.7808 34.3 36.9008 34.343 37.0148 34.364 37.1278 34.371 37.3408 34.364 37.5318 34.343 37.7168 34.315 37.8798 34.272 38.0208 34.222 38.1558 34.159 38.2768 34.095 38.3828 34.017 38.4748 33.946 38.5598 33.861 38.6308 33.783 38.6878 33.698 38.7368 33.613 38.7798 33.528 38.8148 33.45 38.8368 33.372 38.8928 33.166 38.9428 32.932 38.9858 32.705"></polygon>
            <polygon id="Fill-83" fill="#FEFEFE" points="25.8129 35.9453 23.8849 35.9453 25.4939 26.6363 28.8469 26.6363 29.1659 32.1593 31.4849 26.6363 34.9869 26.6363 33.3419 35.9453 31.4139 35.9453 32.6329 28.9903 32.5549 28.9903 29.6699 35.9453 27.4929 35.9453 27.4789 35.6543 27.4289 34.8823 27.3659 33.7833 27.2949 32.5213 27.2239 31.2523 27.1599 30.1393 27.1099 29.3303 27.0959 28.9903 27.0749 28.9903 27.0319 28.9903 26.9899 28.9903"></polygon>
            <polyline id="Stroke-85" stroke="#FEFEFE" stroke-width="0.215" points="25.8129 35.9453 23.8849 35.9453 25.4939 26.6363 28.8469 26.6363 29.1659 32.1593 31.4849 26.6363 34.9869 26.6363 33.3419 35.9453 31.4139 35.9453 32.6329 28.9903 32.5549 28.9903 29.6699 35.9453 27.4929 35.9453 27.4789 35.6543 27.4289 34.8823 27.3659 33.7833 27.2949 32.5213 27.2239 31.2523 27.1599 30.1393 27.1099 29.3303 27.0959 28.9903 27.0749 28.9903 27.0319 28.9903 26.9899 28.9903 25.8129 35.9453"></polyline>
            <polygon id="Fill-87" fill="#FEFEFE" points="75.915 34.3714 75.624 35.9454 73.845 35.9454 73.859 35.6544 73.866 35.3994 73.866 35.2084 73.88 35.1224 73.788 35.2294 73.682 35.3354 73.554 35.4344 73.412 35.5344 73.263 35.6264 73.093 35.7114 72.916 35.7964 72.739 35.8674 72.547 35.9244 72.349 35.9804 72.15 36.0164 71.952 36.0444 71.746 36.0584 71.548 36.0654 71.356 36.0444 71.165 36.0164 70.91 35.9524 70.683 35.8814 70.484 35.7894 70.3 35.6834 70.144 35.5694 70.009 35.4424 69.896 35.3074 69.797 35.1654 69.712 35.0164 69.648 34.8604 69.591 34.7044 69.556 34.5484 69.527 34.3854 69.506 34.2224 69.492 34.0664 69.492 33.9104 69.506 33.6344 69.548 33.3714 69.612 33.1234 69.704 32.8824 69.811 32.6554 69.945 32.4504 70.094 32.2514 70.257 32.0744 70.442 31.9114 70.633 31.7624 70.839 31.6274 71.059 31.5144 71.278 31.4154 71.512 31.3374 71.746 31.2734 71.987 31.2304 72.001 31.2304 72.037 31.2234 72.087 31.2164 72.157 31.2094 72.25 31.1954 72.349 31.1884 72.455 31.1744 72.569 31.1594 72.689 31.1454 72.817 31.1314 72.937 31.1244 73.058 31.1104 73.171 31.1034 73.271 31.0964 73.37 31.0894 73.448 31.0894 73.618 31.0894 73.788 31.0964 73.951 31.1034 74.107 31.1034 74.242 31.1104 74.355 31.1174 74.419 31.1244 74.447 31.1244 74.462 31.0744 74.483 30.9474 74.504 30.7984 74.518 30.6634 74.49 30.5074 74.433 30.3654 74.341 30.2384 74.235 30.1314 74.107 30.0394 73.958 29.9754 73.802 29.9334 73.632 29.9194 73.434 29.9124 73.221 29.9054 73.001 29.9054 72.774 29.9124 72.54 29.9264 72.313 29.9474 72.087 29.9684 71.867 29.9974 71.654 30.0254 71.448 30.0614 71.264 30.0964 71.094 30.1314 70.938 30.1744 70.81 30.2174 70.711 30.2664 70.633 30.3094 71.129 28.6004 71.285 28.5364 71.448 28.4804 71.612 28.4304 71.782 28.3944 71.959 28.3594 72.136 28.3314 72.32 28.3024 72.512 28.2884 72.71 28.2744 72.916 28.2674 73.122 28.2604 73.341 28.2604 73.561 28.2604 73.788 28.2604 74.029 28.2674 74.27 28.2744 74.469 28.2884 74.681 28.3244 74.901 28.3734 75.128 28.4374 75.348 28.5224 75.568 28.6214 75.78 28.7424 75.979 28.8774 76.156 29.0334 76.319 29.2034 76.461 29.3944 76.567 29.6074 76.645 29.8344 76.695 30.0754 76.695 30.3444 76.659 30.6284"></polygon>
            <polygon id="Fill-89" fill="#FEFEFE" points="75.6243 35.9949 75.6663 35.9519 75.9573 34.3789 75.8723 34.3639 75.5813 35.9379 75.6243 35.8959 75.6243 35.9949 75.6593 35.9879 75.6663 35.9519"></polygon>
            <polygon id="Fill-91" fill="#FEFEFE" points="73.8022 35.9453 73.8452 35.9953 75.6242 35.9953 75.6242 35.8953 73.8452 35.8953 73.8872 35.9453 73.8022 35.9453 73.7952 35.9953 73.8452 35.9953"></polygon>
            <polygon id="Fill-93" fill="#FEFEFE" points="73.9157 35.1513 73.8517 35.0943 73.8237 35.2083 73.8167 35.3993 73.8167 35.6543 73.8027 35.9453 73.8877 35.9453 73.9017 35.6543 73.9157 35.3993 73.9087 35.2083 73.9087 35.1513 73.8447 35.0943"></polygon>
            <polygon id="Fill-95" fill="#FEFEFE" points="71.1578 36.0587 71.1578 36.0587 71.3568 36.0867 71.5478 36.1087 71.7458 36.1017 71.9518 36.0867 72.1578 36.0587 72.3558 36.0237 72.5548 35.9667 72.7528 35.9097 72.9298 35.8387 73.1148 35.7537 73.2848 35.6687 73.4338 35.5697 73.5828 35.4707 73.7098 35.3707 73.8238 35.2577 73.9158 35.1517 73.8448 35.0947 73.7528 35.2007 73.6538 35.2997 73.5258 35.3997 73.3908 35.4987 73.2418 35.5837 73.0718 35.6687 72.9018 35.7537 72.7248 35.8247 72.5398 35.8817 72.3418 35.9377 72.1428 35.9737 71.9518 36.0017 71.7458 36.0157 71.5478 36.0237 71.3568 36.0017 71.1718 35.9737"></polygon>
            <polygon id="Fill-97" fill="#FEFEFE" points="69.4421 33.9106 69.4421 33.9106 69.4491 34.0666 69.4631 34.2226 69.4851 34.3926 69.5131 34.5556 69.5481 34.7116 69.6051 34.8746 69.6691 35.0376 69.7611 35.1866 69.8601 35.3356 69.9741 35.4706 70.1161 35.6046 70.2791 35.7186 70.4631 35.8316 70.6691 35.9236 70.9021 35.9946 71.1581 36.0586 71.1721 35.9736 70.9171 35.9096 70.6971 35.8386 70.5051 35.7466 70.3211 35.6476 70.1721 35.5346 70.0451 35.4136 69.9311 35.2786 69.8321 35.1446 69.7541 34.9956 69.6901 34.8466 69.6331 34.6976 69.5981 34.5416 69.5701 34.3786 69.5481 34.2226 69.5341 34.0666 69.5411 33.9106"></polygon>
            <polygon id="Fill-99" fill="#FEFEFE" points="71.9873 31.1882 71.9873 31.1882 71.7393 31.2312 71.4983 31.2942 71.2643 31.3722 71.0373 31.4722 70.8173 31.5852 70.6053 31.7272 70.4133 31.8762 70.2293 32.0462 70.0593 32.2232 69.9103 32.4222 69.7683 32.6342 69.6623 32.8682 69.5693 33.1092 69.5063 33.3642 69.4633 33.6342 69.4423 33.9102 69.5413 33.9102 69.5483 33.6342 69.5913 33.3792 69.6553 33.1382 69.7473 32.8972 69.8533 32.6772 69.9813 32.4782 70.1303 32.2802 70.2853 32.1032 70.4703 31.9472 70.6613 31.7982 70.8603 31.6702 71.0803 31.5572 71.2923 31.4572 71.5263 31.3792 71.7533 31.3162 71.9873 31.2732"></polygon>
            <polygon id="Fill-101" fill="#FEFEFE" points="73.4478 31.0393 73.4478 31.0393 73.3698 31.0393 73.2708 31.0533 73.1708 31.0603 73.0578 31.0673 72.9378 31.0823 72.8168 31.0893 72.6898 31.1033 72.5688 31.1173 72.4548 31.1313 72.3488 31.1453 72.2498 31.1523 72.1578 31.1673 72.0868 31.1743 72.0298 31.1813 72.0018 31.1883 71.9878 31.1883 71.9878 31.2733 72.0018 31.2733 72.0438 31.2663 72.0868 31.2593 72.1578 31.2523 72.2498 31.2383 72.3488 31.2303 72.4548 31.2163 72.5688 31.2023 72.6898 31.1883 72.8168 31.1743 72.9378 31.1673 73.0578 31.1523 73.1708 31.1453 73.2708 31.1383 73.3698 31.1383 73.4478 31.1383"></polygon>
            <polygon id="Fill-103" fill="#FEFEFE" points="74.4048 31.1173 74.4478 31.0823 74.4188 31.0823 74.3548 31.0743 74.2418 31.0673 74.1068 31.0533 73.9508 31.0533 73.7878 31.0533 73.6178 31.0393 73.4478 31.0393 73.4478 31.1383 73.6178 31.1383 73.7878 31.1383 73.9508 31.1523 74.1068 31.1523 74.2418 31.1523 74.3548 31.1603 74.4188 31.1673 74.4478 31.1673 74.4898 31.1313 74.4478 31.1673 74.4828 31.1743 74.4898 31.1313"></polygon>
            <polygon id="Fill-105" fill="#FEFEFE" points="74.4757 30.6636 74.4687 30.6636 74.4617 30.7986 74.4407 30.9396 74.4187 31.0676 74.4047 31.1176 74.4897 31.1316 74.5037 31.0816 74.5257 30.9546 74.5467 30.7986 74.5677 30.6636 74.5607 30.6636"></polygon>
            <polygon id="Fill-107" fill="#FEFEFE" points="73.6321 29.9617 73.6321 29.9687 73.7951 29.9757 73.9441 30.0187 74.0861 30.0827 74.2061 30.1677 74.3061 30.2667 74.3911 30.3867 74.4471 30.5147 74.4761 30.6637 74.5611 30.6637 74.5321 30.5007 74.4761 30.3447 74.3761 30.2097 74.2631 30.0967 74.1281 29.9967 73.9721 29.9337 73.8091 29.8907 73.6321 29.8697 73.6321 29.8767"></polygon>
            <polygon id="Fill-109" fill="#FEFEFE" points="70.5907 30.302 70.6617 30.345 70.7327 30.309 70.8247 30.259 70.9447 30.217 71.1007 30.174 71.2717 30.139 71.4557 30.103 71.6617 30.068 71.8667 30.04 72.0867 30.011 72.3137 29.99 72.5407 29.969 72.7747 29.955 73.0007 29.955 73.2207 29.955 73.4337 29.955 73.6317 29.962 73.6317 29.877 73.4337 29.87 73.2207 29.855 73.0007 29.855 72.7747 29.87 72.5407 29.884 72.3137 29.905 72.0867 29.926 71.8667 29.955 71.6467 29.983 71.4417 30.018 71.2567 30.054 71.0867 30.089 70.9307 30.132 70.7967 30.174 70.6897 30.224 70.6047 30.274 70.6757 30.316"></polygon>
            <polygon id="Fill-111" fill="#FEFEFE" points="71.1153 28.5579 71.0873 28.5929 70.5903 30.3019 70.6753 30.3159 71.1723 28.6079 71.1433 28.6429 71.1153 28.5579 71.0943 28.5649 71.0873 28.5929"></polygon>
            <polygon id="Fill-113" fill="#FEFEFE" points="74.2701 28.2318 74.2701 28.2318 74.0291 28.2178 73.7881 28.2108 73.5611 28.2108 73.3411 28.2108 73.1211 28.2108 72.9161 28.2248 72.7101 28.2318 72.5121 28.2458 72.3201 28.2598 72.1291 28.2888 71.9521 28.3168 71.7741 28.3528 71.6041 28.3878 71.4341 28.4378 71.2711 28.4938 71.1151 28.5578 71.1441 28.6428 71.2991 28.5788 71.4631 28.5228 71.6181 28.4728 71.7891 28.4378 71.9661 28.4018 72.1431 28.3738 72.3201 28.3448 72.5121 28.3308 72.7101 28.3168 72.9161 28.3098 73.1211 28.3098 73.3411 28.3098 73.5611 28.3098 73.7881 28.3098 74.0291 28.3168 74.2701 28.3168"></polygon>
            <polygon id="Fill-115" fill="#FEFEFE" points="76.7019 30.6352 76.7019 30.6352 76.7369 30.3442 76.7369 30.0752 76.6879 29.8272 76.6099 29.5932 76.4969 29.3732 76.3549 29.1752 76.1839 28.9972 76.0069 28.8412 75.8019 28.7072 75.5889 28.5792 75.3619 28.4802 75.1419 28.3952 74.9079 28.3312 74.6889 28.2812 74.4689 28.2462 74.2699 28.2322 74.2699 28.3172 74.4689 28.3312 74.6739 28.3662 74.8939 28.4162 75.1139 28.4802 75.3339 28.5652 75.5459 28.6642 75.7589 28.7782 75.9509 28.9122 76.1279 29.0682 76.2839 29.2312 76.4259 29.4162 76.5249 29.6212 76.6029 29.8412 76.6519 30.0752 76.6519 30.3442 76.6169 30.6212"></polygon>
            <polygon id="Fill-117" fill="#FEFEFE" points="75.9575 34.3785 75.9575 34.3785 76.7015 30.6355 76.6165 30.6215 75.8725 34.3645"></polygon>
            <polygon id="Fill-119" fill="#FBB131" points="74.1992 32.521 74.1852 32.478 74.1572 32.443 74.1072 32.422 74.0362 32.4 73.9582 32.393 73.8662 32.386 73.7592 32.386 73.6532 32.393 73.5402 32.408 73.4262 32.422 73.3132 32.436 73.2062 32.45 73.1002 32.471 73.0082 32.486 72.9162 32.507 72.8452 32.521 72.7952 32.528 72.7392 32.549 72.6682 32.571 72.5902 32.599 72.4972 32.642 72.4122 32.684 72.3132 32.734 72.2212 32.797 72.1292 32.861 72.0372 32.939 71.9592 33.017 71.8812 33.109 71.8172 33.209 71.7672 33.315 71.7252 33.428 71.7032 33.549 71.6962 33.79 71.7322 33.981 71.7892 34.123 71.8742 34.23 71.9802 34.3 72.1002 34.343 72.2212 34.364 72.3422 34.371 72.5542 34.364 72.7532 34.343 72.9372 34.308 73.1002 34.258 73.2562 34.201 73.3912 34.137 73.5182 34.067 73.6322 33.981 73.7312 33.903 73.8162 33.811 73.8942 33.726 73.9582 33.634 74.0082 33.549 74.0432 33.464 74.0712 33.379 74.0932 33.301 74.1212 33.102 74.1572 32.897 74.1852 32.698"></polygon>
            <polygon id="Fill-121" fill="#FEFEFE" points="76.4466 35.9453 78.4456 35.9453 79.1616 31.9113 79.1906 31.7553 79.2326 31.5993 79.2756 31.4433 79.3316 31.2873 79.4026 31.1313 79.4876 30.9823 79.5806 30.8413 79.6936 30.7063 79.8216 30.5853 79.9626 30.4723 80.1256 30.3663 80.3106 30.2803 80.5156 30.2103 80.7426 30.1533 80.9906 30.1103 81.2676 30.0963 81.3666 30.0963 81.4236 30.0963 81.4446 30.0963 81.7636 28.2743 81.5656 28.2883 81.3736 28.3103 81.1966 28.3453 81.0266 28.3953 80.8706 28.4513 80.7216 28.5223 80.5796 28.6003 80.4456 28.6853 80.3176 28.7853 80.1966 28.8843 80.0836 28.9973 79.9706 29.1113 79.8636 29.2313 79.7576 29.3663 79.6506 29.4933 79.5516 29.6353 79.7646 28.3523 77.7726 28.3523"></polygon>
            <polyline id="Stroke-123" stroke="#FEFEFE" stroke-width="0.215" points="76.4466 35.9453 78.4456 35.9453 79.1616 31.9113 79.1906 31.7553 79.2326 31.5993 79.2756 31.4433 79.3316 31.2873 79.4026 31.1313 79.4876 30.9823 79.5806 30.8413 79.6936 30.7063 79.8216 30.5853 79.9626 30.4723 80.1256 30.3663 80.3106 30.2803 80.5156 30.2103 80.7426 30.1533 80.9906 30.1103 81.2676 30.0963 81.3666 30.0963 81.4236 30.0963 81.4446 30.0963 81.7636 28.2743 81.5656 28.2883 81.3736 28.3103 81.1966 28.3453 81.0266 28.3953 80.8706 28.4513 80.7216 28.5223 80.5796 28.6003 80.4456 28.6853 80.3176 28.7853 80.1966 28.8843 80.0836 28.9973 79.9706 29.1113 79.8636 29.2313 79.7576 29.3663 79.6506 29.4933 79.5516 29.6353 79.7646 28.3523 77.7726 28.3523 76.4466 35.9453"></polyline>
            <polygon id="Fill-125" fill="#FEFEFE" points="57.6735 35.9453 59.6725 35.9453 59.7085 35.9453 60.3885 31.9113 60.4175 31.7553 60.4525 31.6063 60.4885 31.4573 60.5375 31.3163 60.5945 31.1743 60.6655 31.0393 60.7505 30.9113 60.8495 30.7913 60.9635 30.6853 61.0905 30.5783 61.2465 30.4933 61.4165 30.4153 61.6155 30.3513 61.8355 30.2953 62.0765 30.2593 62.3525 30.2383 62.3735 30.2383 62.4025 30.2453 62.4375 30.2523 62.4735 30.2523 62.5085 30.2593 62.5365 30.2663 62.5585 30.2733 62.5655 30.2733 62.5725 30.2453 62.5935 30.1603 62.6225 30.0323 62.6575 29.8763 62.7075 29.6923 62.7565 29.4933 62.8205 29.2953 62.8845 29.0963 62.9415 28.9623 63.0115 28.8273 63.0825 28.6923 63.1535 28.5723 63.2175 28.4663 63.2675 28.3803 63.3025 28.3313 63.3165 28.3103 63.3095 28.3103 63.2815 28.3023 63.2455 28.2953 63.1965 28.2883 63.1465 28.2883 63.0895 28.2813 63.0405 28.2743 62.9905 28.2743 62.7705 28.2883 62.5725 28.3103 62.3885 28.3453 62.2175 28.3883 62.0545 28.4443 61.9055 28.5153 61.7715 28.5863 61.6435 28.6713 61.5235 28.7633 61.4095 28.8703 61.3035 28.9763 61.1975 29.0963 61.0905 29.2173 60.9915 29.3523 60.8855 29.4933 60.7785 29.6353 61.0335 28.3523 58.9995 28.3523"></polygon>
            <polyline id="Stroke-127" stroke="#FEFEFE" stroke-width="0.215" points="57.6735 35.9453 59.6725 35.9453 59.7085 35.9453 60.3885 31.9113 60.4175 31.7553 60.4525 31.6063 60.4885 31.4573 60.5375 31.3163 60.5945 31.1743 60.6655 31.0393 60.7505 30.9113 60.8495 30.7913 60.9635 30.6853 61.0905 30.5783 61.2465 30.4933 61.4165 30.4153 61.6155 30.3513 61.8355 30.2953 62.0765 30.2593 62.3525 30.2383 62.3735 30.2383 62.4025 30.2453 62.4375 30.2523 62.4735 30.2523 62.5085 30.2593 62.5365 30.2663 62.5585 30.2733 62.5655 30.2733 62.5725 30.2453 62.5935 30.1603 62.6225 30.0323 62.6575 29.8763 62.7075 29.6923 62.7565 29.4933 62.8205 29.2953 62.8845 29.0963 62.9415 28.9623 63.0115 28.8273 63.0825 28.6923 63.1535 28.5723 63.2175 28.4663 63.2675 28.3803 63.3025 28.3313 63.3165 28.3103 63.3095 28.3103 63.2815 28.3023 63.2455 28.2953 63.1965 28.2883 63.1465 28.2883 63.0895 28.2813 63.0405 28.2743 62.9905 28.2743 62.7705 28.2883 62.5725 28.3103 62.3885 28.3453 62.2175 28.3883 62.0545 28.4443 61.9055 28.5153 61.7715 28.5863 61.6435 28.6713 61.5235 28.7633 61.4095 28.8703 61.3035 28.9763 61.1975 29.0963 61.0905 29.2173 60.9915 29.3523 60.8855 29.4933 60.7785 29.6353 61.0335 28.3523 58.9995 28.3523 57.6735 35.9453"></polyline>
            <polygon id="Fill-43" fill="#FBB131" points="53.8309 42.652 65.7409 42.652 65.7409 41.511 53.1149 41.511"></polygon>
            <polygon id="Fill-45" fill="#FBB131" points="55.9011 45.1901 65.7411 45.1901 65.7411 44.0421 54.9011 44.0421"></polygon>
        </g>
    </g>
</svg>