<?xml version="1.0" encoding="UTF-8" standalone="no"?>
<svg width="113px" height="63px" viewBox="0 0 113 63" version="1.1" xmlns="http://www.w3.org/2000/svg" xmlns:xlink="http://www.w3.org/1999/xlink">
    <!-- Generator: Sketch 3.8.3 (29802) - http://www.bohemiancoding.com/sketch -->
    <title>maestro</title>
    <desc>Created with Sketch.</desc>
    <defs></defs>
    <g id="Page-1" stroke="none" stroke-width="1" fill="none" fill-rule="evenodd">
        <g id="maestro">
            <path d="M108,62.667 L5.333,62.667 C2.572,62.667 0.333,60.428 0.333,57.667 L0.333,5 C0.333,2.239 2.572,0 5.333,0 L108,0 C110.761,0 113,2.239 113,5 L113,57.667 C113,60.428 110.761,62.667 108,62.667" id="Fill-6" fill="#FEFEFE"></path>
            <polygon id="Fill-129" fill="#ED1B2D" points="70.6011 52.3458 71.6851 52.3178 72.7551 52.2358 73.8051 52.1038 74.8411 51.9178 75.8631 51.6828 76.8641 51.3998 77.8381 51.0688 78.7971 50.6888 79.7301 50.2678 80.6341 49.8048 81.5181 49.3008 82.3671 48.7488 83.1961 48.1618 83.9901 47.5398 84.7561 46.8768 85.4881 46.1798 86.1791 45.4478 86.8421 44.6808 87.4701 43.8868 88.0571 43.0658 88.6031 42.2088 89.1071 41.3258 89.5761 40.4208 89.9971 39.4888 90.3701 38.5288 90.7021 37.5548 90.9851 36.5538 91.2201 35.5388 91.4061 34.4958 91.5371 33.4468 91.6201 32.3768 91.6481 31.2918 91.6201 30.2148 91.5371 29.1518 91.4061 28.1088 91.2201 27.0728 90.9851 26.0648 90.7021 25.0708 90.3701 24.0968 89.9971 23.1438 89.5761 22.2188 89.1071 21.3148 88.6031 20.4378 88.0571 19.5808 87.4701 18.7598 86.8421 17.9658 86.1791 17.2058 85.4881 16.4738 84.7561 15.7838 83.9901 15.1208 83.1961 14.4988 82.3671 13.9118 81.5181 13.3668 80.6341 12.8628 79.7301 12.3928 78.7971 11.9718 77.8381 11.5988 76.8641 11.2678 75.8631 10.9848 74.8411 10.7498 73.8051 10.5628 72.7551 10.4318 71.6851 10.3488 70.6011 10.3218 69.5171 10.3488 68.4471 10.4318 67.3971 10.5628 66.3611 10.7498 65.3391 10.9848 64.3451 11.2678 63.3641 11.5988 62.4121 11.9718 61.4791 12.3928 60.5751 12.8628 59.6981 13.3668 58.8421 13.9118 58.0201 14.4988 57.2261 15.1208 56.4661 15.7838 55.7411 16.4738 55.0441 17.2058 54.3811 17.9658 53.7591 18.7598 53.1731 19.5808 52.6271 20.4378 52.1231 21.3148 51.6601 22.2188 51.2461 23.1438 50.8661 24.0968 50.5351 25.0708 50.2591 26.0648 50.0241 27.0728 49.8371 28.1088 49.7061 29.1518 49.6231 30.2148 49.5961 31.2918 49.6231 32.3768 49.7061 33.4468 49.8371 34.4958 50.0241 35.5388 50.2591 36.5538 50.5351 37.5548 50.8661 38.5288 51.2461 39.4888 51.6601 40.4208 52.1231 41.3258 52.6271 42.2088 53.1731 43.0658 53.7591 43.8868 54.3811 44.6808 55.0441 45.4478 55.7411 46.1798 56.4661 46.8768 57.2261 47.5398 58.0201 48.1618 58.8421 48.7488 59.6981 49.3008 60.5751 49.8048 61.4791 50.2678 62.4121 50.6888 63.3641 51.0688 64.3451 51.3998 65.3391 51.6828 66.3611 51.9178 67.3971 52.1038 68.4471 52.2358 69.5171 52.3178"></polygon>
            <polygon id="Fill-131" fill="#0084C4" points="42.7321 52.3458 43.8161 52.3178 44.8861 52.2358 45.9361 52.1038 46.9721 51.9178 47.9941 51.6828 48.9881 51.3998 49.9691 51.0688 50.9211 50.6888 51.8541 50.2678 52.7581 49.8048 53.6351 49.3008 54.4911 48.7488 55.3131 48.1618 56.1071 47.5398 56.8671 46.8768 57.5991 46.1798 58.2891 45.4478 58.9521 44.6808 59.5741 43.8868 60.1601 43.0658 60.7061 42.2088 61.2101 41.3258 61.6731 40.4208 62.0941 39.4888 62.4671 38.5288 62.7981 37.5548 63.0741 36.5538 63.3091 35.5388 63.4961 34.4958 63.6271 33.4468 63.7101 32.3768 63.7371 31.2918 63.7101 30.2148 63.6271 29.1518 63.4961 28.1088 63.3091 27.0728 63.0741 26.0648 62.7981 25.0708 62.4671 24.0968 62.0941 23.1438 61.6731 22.2188 61.2101 21.3148 60.7061 20.4378 60.1601 19.5808 59.5741 18.7598 58.9521 17.9658 58.2891 17.2058 57.5991 16.4738 56.8671 15.7838 56.1071 15.1208 55.3131 14.4988 54.4911 13.9118 53.6351 13.3668 52.7581 12.8628 51.8541 12.3928 50.9211 11.9718 49.9691 11.5988 48.9881 11.2678 47.9941 10.9848 46.9721 10.7498 45.9361 10.5628 44.8861 10.4318 43.8161 10.3488 42.7321 10.3218 41.6481 10.3488 40.5781 10.4318 39.5281 10.5628 38.4921 10.7498 37.4701 10.9848 36.4691 11.2678 35.4951 11.5988 34.5361 11.9718 33.6031 12.3928 32.6991 12.8628 31.8151 13.3668 30.9661 13.9118 30.1371 14.4988 29.3431 15.1208 28.5771 15.7838 27.8521 16.4738 27.1541 17.2058 26.4911 17.9658 25.8631 18.7598 25.2761 19.5808 24.7311 20.4378 24.2261 21.3148 23.7571 22.2188 23.3361 23.1438 22.9631 24.0968 22.6311 25.0708 22.3481 26.0648 22.1131 27.0728 21.9271 28.1088 21.7961 29.1518 21.7131 30.2148 21.6851 31.2918 21.7131 32.3768 21.7961 33.4468 21.9271 34.4958 22.1131 35.5388 22.3481 36.5538 22.6311 37.5548 22.9631 38.5288 23.3361 39.4888 23.7571 40.4208 24.2261 41.3258 24.7311 42.2088 25.2761 43.0658 25.8631 43.8868 26.4911 44.6808 27.1541 45.4478 27.8521 46.1798 28.5771 46.8768 29.3431 47.5398 30.1371 48.1618 30.9661 48.7488 31.8151 49.3008 32.6991 49.8048 33.6031 50.2678 34.5361 50.6888 35.4951 51.0688 36.4691 51.3998 37.4701 51.6828 38.4921 51.9178 39.5281 52.1038 40.5781 52.2358 41.6481 52.3178"></polygon>
            <polygon id="Fill-133" fill="#ED1B2D" points="54.0772 18.3245 64.7322 18.3245 64.7322 17.1505 55.1062 17.1505"></polygon>
            <polygon id="Fill-135" fill="#ED1B2D" points="52.4062 20.8103 64.7322 20.8103 64.7322 19.6433 53.1522 19.6433"></polygon>
            <polygon id="Fill-137" fill="#ED1B2D" points="51.1563 23.3376 64.7313 23.3376 64.7313 22.1636 51.7293 22.1636"></polygon>
            <polygon id="Fill-139" fill="#ED1B2D" points="50.3416 25.8233 64.7316 25.8233 64.7316 24.6563 50.7006 24.6563"></polygon>
            <polygon id="Fill-141" fill="#ED1B2D" points="49.8098 28.3162 64.7318 28.3162 64.7318 27.1422 50.0238 27.1422"></polygon>
            <polygon id="Fill-143" fill="#ED1B2D" points="49.6995 33.1428 64.7315 33.1428 64.7315 31.9688 49.5955 31.9688"></polygon>
            <polygon id="Fill-145" fill="#ED1B2D" points="50.0584 35.7737 64.7314 35.7737 64.7314 34.5997 49.8444 34.5997"></polygon>
            <polygon id="Fill-147" fill="#ED1B2D" points="50.7697 37.9073 64.7317 37.9073 64.7317 36.7333 50.4107 36.7333"></polygon>
            <polygon id="Fill-149" fill="#ED1B2D" points="51.833 40.5037 64.732 40.5037 64.732 39.3297 51.267 39.3297"></polygon>
            <polygon id="Fill-151" fill="#ED1B2D" points="53.3315 43.1345 64.7315 43.1345 64.7315 41.9605 52.5445 41.9605"></polygon>
            <polygon id="Fill-153" fill="#ED1B2D" points="55.2097 45.6618 64.6287 45.6618 64.6287 44.4878 54.1807 44.4878"></polygon>
            <polygon id="Fill-155" fill="#ED1B2D" points="88.1884 44.1979 88.2504 44.0119 88.3544 43.8389 88.4854 43.6869 88.6374 43.5629 88.8094 43.4659 88.9964 43.4039 89.1964 43.3829 89.4034 43.4039 89.5974 43.4659 89.7694 43.5629 89.9214 43.6869 90.0454 43.8389 90.1424 44.0119 90.2044 44.1979 89.9904 44.1979 89.9494 44.0669 89.8734 43.9219 89.7764 43.7979 89.6594 43.7009 89.5214 43.6249 89.3624 43.5769 89.1964 43.5629 89.0304 43.5769 88.8724 43.6249 88.7344 43.7009 88.6094 43.7979 88.5134 43.9219 88.4374 44.0669 88.3954 44.1979"></polygon>
            <polygon id="Fill-157" fill="#ED1B2D" points="88.8375 44.1979 88.8375 43.9489 89.2315 43.9489 89.3205 43.9559 89.3965 43.9629 89.4655 43.9839 89.5215 44.0119 89.5625 44.0459 89.5975 44.0879 89.6175 44.1359 89.6245 44.1979 89.4455 44.1979 89.4385 44.1629 89.4245 44.1359 89.4035 44.1079 89.3765 44.0879 89.3415 44.0739 89.3075 44.0669 89.2725 44.0599 89.2315 44.0599 89.0175 44.0599 89.0175 44.1979"></polygon>
            <polygon id="Fill-159" fill="#ED1B2D" points="88.1746 44.3774 88.1886 44.2044 88.1886 44.1974 88.3956 44.1974 88.3886 44.2324 88.3746 44.3774"></polygon>
            <polygon id="Fill-161" fill="#ED1B2D" points="88.8375 44.3774 88.8375 44.1974 89.0175 44.1974 89.0175 44.3424 89.1965 44.3424 89.2585 44.3424 89.3135 44.3424 89.3555 44.3364 89.3895 44.3224 89.4105 44.3084 89.4315 44.2804 89.4455 44.2464 89.4455 44.1974 89.6245 44.1974 89.6175 44.2604 89.6035 44.3154 89.5835 44.3564 89.5625 44.3774"></polygon>
            <polygon id="Fill-163" fill="#ED1B2D" points="90.0114 44.3774 89.9974 44.2324 89.9904 44.1974 90.2044 44.1974 90.2044 44.2044 90.2254 44.3774"></polygon>
            <polygon id="Fill-165" fill="#ED1B2D" points="88.1746 44.3774 88.1676 44.4124 88.1886 44.6194 88.2506 44.8124 88.3546 44.9784 88.4856 45.1304 88.6376 45.2474 88.8096 45.3374 88.9966 45.3924 89.1966 45.4134 89.4036 45.3924 89.5966 45.3374 89.7696 45.2474 89.9216 45.1304 90.0456 44.9784 90.1426 44.8124 90.2046 44.6194 90.2256 44.4124 90.2256 44.3774 90.0116 44.3774 90.0116 44.4124 89.9976 44.5914 89.9496 44.7574 89.8736 44.9024 89.7766 45.0264 89.6596 45.1304 89.5206 45.2064 89.3626 45.2544 89.1966 45.2684 89.0306 45.2544 88.8716 45.2064 88.7336 45.1304 88.6096 45.0264 88.5126 44.9024 88.4366 44.7574 88.3886 44.5914 88.3746 44.4124 88.3746 44.3774"></polygon>
            <polygon id="Fill-167" fill="#ED1B2D" points="88.8375 44.3774 88.8375 44.8054 89.0175 44.8054 89.0175 44.4534 89.1965 44.4534 89.4105 44.8054 89.5905 44.8054 89.3345 44.4534 89.3965 44.4464 89.4585 44.4394 89.5075 44.4184 89.5485 44.3914 89.5625 44.3774"></polygon>
            <polygon id="Fill-169" fill="#FEFEFE" points="66.0507 29.5246 65.9127 29.5176 65.7747 29.5036 65.6497 29.4836 65.5257 29.4696 65.4017 29.4486 65.2777 29.4276 65.1457 29.4076 65.0077 29.3866 64.8627 29.3726 64.7107 29.3586 64.5387 29.3446 64.3517 29.3386 64.1447 29.3386 63.9167 29.3446 63.6617 29.3586 63.3857 29.3796 63.1847 29.4076 62.9987 29.4486 62.8257 29.5036 62.6737 29.5656 62.5357 29.6416 62.4117 29.7246 62.3077 29.8216 62.2257 29.9186 62.1627 30.0286 62.1217 30.1456 62.1007 30.2636 62.1007 30.3876 62.1287 30.5186 62.1767 30.6506 62.2527 30.7816 62.3497 30.9126 62.5497 31.0916 62.7847 31.2366 63.0607 31.3616 63.3577 31.4646 63.6687 31.5686 63.9927 31.6716 64.3247 31.7896 64.6417 31.9276 64.9387 32.0936 65.2217 32.2936 65.4707 32.5486 65.6777 32.8526 65.8367 33.2256 65.9397 33.6676 65.9747 34.1926 65.9397 34.8136 65.8647 35.2766 65.7397 35.6906 65.5807 36.0636 65.3807 36.3956 65.1457 36.6846 64.8907 36.9336 64.6077 37.1476 64.3037 37.3346 63.9857 37.4866 63.6547 37.6106 63.3167 37.7136 62.9777 37.7896 62.6397 37.8456 62.3077 37.8796 61.9907 37.9006 61.6797 37.9076 61.2517 37.9076 60.8647 37.9006 60.5127 37.8936 60.1887 37.8866 59.8917 37.8726 59.6287 37.8586 59.3807 37.8386 59.1597 37.8106 58.9527 37.7826 58.7587 37.7486 58.5797 37.7136 58.3997 37.6656 58.2337 37.6176 58.0687 37.5686 57.9027 37.5066 57.7297 37.4446 58.1577 35.2766 58.2547 35.2976 58.3727 35.3316 58.5177 35.3666 58.6757 35.4076 58.8627 35.4426 59.0697 35.4906 59.2907 35.5316 59.5257 35.5736 59.7737 35.6076 60.0367 35.6426 60.3057 35.6706 60.5887 35.6976 60.8717 35.7116 61.1617 35.7186 61.4517 35.7186 61.7487 35.7046 62.0247 35.6566 62.2527 35.5806 62.4257 35.4696 62.5637 35.3456 62.6667 35.2006 62.7427 35.0486 62.8057 34.8966 62.8467 34.7446 62.8677 34.5856 62.8607 34.4476 62.8257 34.3166 62.7707 34.2066 62.6947 34.0956 62.5977 33.9996 62.4807 33.9096 62.3497 33.8266 62.2047 33.7506 62.0457 33.6746 61.8727 33.5986 61.6937 33.5296 61.5137 33.4606 61.3207 33.3846 61.1277 33.3086 60.9267 33.2256 60.7337 33.1426 60.5407 33.0536 60.3467 32.9496 60.1607 32.8386 59.9807 32.7216 59.8157 32.5906 59.6567 32.4386 59.5117 32.2796 59.3807 32.1006 59.2627 31.9066 59.1667 31.6926 59.0837 31.4646 59.0287 31.2096 58.9937 30.9336 58.9867 30.6296 59.0077 30.3046 59.0287 30.1046 59.0557 29.9116 59.0837 29.7246 59.1247 29.5456 59.1667 29.3726 59.2147 29.1996 59.2767 29.0416 59.3387 28.8826 59.4147 28.7376 59.4907 28.5926 59.5807 28.4616 59.6777 28.3296 59.7807 28.2056 59.8917 28.0886 60.0087 27.9776 60.1397 27.8746 60.2777 27.7776 60.4227 27.6876 60.5817 27.6046 60.7477 27.5226 60.9207 27.4526 61.1067 27.3836 61.2997 27.3286 61.5067 27.2736 61.7277 27.2256 61.9557 27.1836 62.1907 27.1496 62.4397 27.1216 62.7017 27.1006 62.9777 27.0866 63.2607 27.0736 63.5577 27.0736 63.9237 27.0736 64.2557 27.0806 64.5527 27.0866 64.8287 27.1006 65.0697 27.1146 65.2907 27.1286 65.4917 27.1496 65.6637 27.1626 65.8227 27.1836 65.9607 27.2046 66.0917 27.2186 66.2027 27.2386 66.2997 27.2526 66.3887 27.2666 66.4717 27.2806 66.5477 27.2876"></polygon>
            <polyline id="Stroke-171" stroke="#FEFEFE" stroke-width="0.215" points="66.0507 29.5246 66.0507 29.5246 65.9127 29.5176 65.7747 29.5036 65.6497 29.4836 65.5257 29.4696 65.4017 29.4486 65.2777 29.4276 65.1457 29.4076 65.0077 29.3866 64.8627 29.3726 64.7107 29.3586 64.5387 29.3446 64.3517 29.3386 64.1447 29.3386 63.9167 29.3446 63.6617 29.3586 63.3857 29.3796 63.1847 29.4076 62.9987 29.4486 62.8257 29.5036 62.6737 29.5656 62.5357 29.6416 62.4117 29.7246 62.3077 29.8216 62.2257 29.9186 62.1627 30.0286 62.1217 30.1456 62.1007 30.2636 62.1007 30.3876 62.1287 30.5186 62.1767 30.6506 62.2527 30.7816 62.3497 30.9126 62.5497 31.0916 62.7847 31.2366 63.0607 31.3616 63.3577 31.4646 63.6687 31.5686 63.9927 31.6716 64.3247 31.7896 64.6417 31.9276 64.9387 32.0936 65.2217 32.2936 65.4707 32.5486 65.6777 32.8526 65.8367 33.2256 65.9397 33.6676 65.9747 34.1926 65.9397 34.8136 65.8647 35.2766 65.7397 35.6906 65.5807 36.0636 65.3807 36.3956 65.1457 36.6846 64.8907 36.9336 64.6077 37.1476 64.3037 37.3346 63.9857 37.4866 63.6547 37.6106 63.3167 37.7136 62.9777 37.7896 62.6397 37.8456 62.3077 37.8796 61.9907 37.9006 61.6797 37.9076 61.2517 37.9076 60.8647 37.9006 60.5127 37.8936 60.1887 37.8866 59.8917 37.8726 59.6287 37.8586 59.3807 37.8386 59.1597 37.8106 58.9527 37.7826 58.7587 37.7486 58.5797 37.7136 58.3997 37.6656 58.2337 37.6176 58.0687 37.5686 57.9027 37.5066 57.7297 37.4446 58.1577 35.2766 58.2547 35.2976 58.3727 35.3316 58.5177 35.3666 58.6757 35.4076 58.8627 35.4426 59.0697 35.4906 59.2907 35.5316 59.5257 35.5736 59.7737 35.6076 60.0367 35.6426 60.3057 35.6706 60.5887 35.6976 60.8717 35.7116 61.1617 35.7186 61.4517 35.7186 61.7487 35.7046 62.0247 35.6566 62.2527 35.5806 62.4257 35.4696 62.5637 35.3456 62.6667 35.2006 62.7427 35.0486 62.8057 34.8966 62.8467 34.7446 62.8677 34.5856 62.8607 34.4476 62.8257 34.3166 62.7707 34.2066 62.6947 34.0956 62.5977 33.9996 62.4807 33.9096 62.3497 33.8266 62.2047 33.7506 62.0457 33.6746 61.8727 33.5986 61.6937 33.5296 61.5137 33.4606 61.3207 33.3846 61.1277 33.3086 60.9267 33.2256 60.7337 33.1426 60.5407 33.0536 60.3467 32.9496 60.1607 32.8386 59.9807 32.7216 59.8157 32.5906 59.6567 32.4386 59.5117 32.2796 59.3807 32.1006 59.2627 31.9066 59.1667 31.6926 59.0837 31.4646 59.0287 31.2096 58.9937 30.9336 58.9867 30.6296 59.0077 30.3046 59.0287 30.1046 59.0557 29.9116 59.0837 29.7246 59.1247 29.5456 59.1667 29.3726 59.2147 29.1996 59.2767 29.0416 59.3387 28.8826 59.4147 28.7376 59.4907 28.5926 59.5807 28.4616 59.6777 28.3296 59.7807 28.2056 59.8917 28.0886 60.0087 27.9776 60.1397 27.8746 60.2777 27.7776 60.4227 27.6876 60.5817 27.6046 60.7477 27.5226 60.9207 27.4526 61.1067 27.3836 61.2997 27.3286 61.5067 27.2736 61.7277 27.2256 61.9557 27.1836 62.1907 27.1496 62.4397 27.1216 62.7017 27.1006 62.9777 27.0866 63.2607 27.0736 63.5577 27.0736 63.9237 27.0736 64.2557 27.0806 64.5527 27.0866 64.8287 27.1006 65.0697 27.1146 65.2907 27.1286 65.4917 27.1496 65.6637 27.1626 65.8227 27.1836 65.9607 27.2046 66.0917 27.2186 66.2027 27.2386 66.2997 27.2526 66.3887 27.2666 66.4717 27.2806 66.5477 27.2876 66.0507 29.5246"></polyline>
            <polygon id="Fill-173" fill="#FEFEFE" points="68.3224 24.9051 71.0984 24.9051 70.6704 27.3221 72.3754 27.3221 71.9894 29.5251 70.2424 29.4901 69.3234 34.9931 69.3094 35.1111 69.3094 35.2141 69.3234 35.3041 69.3514 35.3871 69.3924 35.4561 69.4414 35.5251 69.5034 35.5801 69.5724 35.6221 69.6554 35.6631 69.7384 35.6981 69.8344 35.7251 69.9314 35.7391 70.0414 35.7601 70.1524 35.7671 70.2694 35.7741 70.3874 35.7741 70.6084 35.7741 70.8014 35.7601 70.9804 35.7321 71.1324 35.6981 71.2504 35.6631 71.3404 35.6291 71.3954 35.6011 71.4164 35.5941 71.1324 37.4791 71.0634 37.5211 70.9874 37.5551 70.9114 37.5901 70.8364 37.6241 70.7604 37.6521 70.6774 37.6791 70.5944 37.7071 70.4974 37.7351 70.4004 37.7621 70.2974 37.7831 70.1794 37.8041 70.0554 37.8241 69.9244 37.8451 69.7864 37.8661 69.6274 37.8871 69.4614 37.9071 68.7164 37.9071 68.3224 37.8801 67.9704 37.8381 67.6594 37.7831 67.3904 37.7071 67.1624 37.6241 66.9694 37.5211 66.8104 37.4031 66.6794 37.2721 66.5754 37.1271 66.4994 36.9681 66.4514 36.7961 66.4234 36.6021 66.4164 36.4021 66.4234 36.1811 66.4444 35.9531 66.4784 35.7051"></polygon>
            <polyline id="Stroke-175" stroke="#FEFEFE" stroke-width="0.215" points="68.3224 24.9051 71.0984 24.9051 70.6704 27.3221 72.3754 27.3221 71.9894 29.5251 70.2424 29.4901 69.3234 34.9931 69.3094 35.1111 69.3094 35.2141 69.3234 35.3041 69.3514 35.3871 69.3924 35.4561 69.4414 35.5251 69.5034 35.5801 69.5724 35.6221 69.6554 35.6631 69.7384 35.6981 69.8344 35.7251 69.9314 35.7391 70.0414 35.7601 70.1524 35.7671 70.2694 35.7741 70.3874 35.7741 70.6084 35.7741 70.8014 35.7601 70.9804 35.7321 71.1324 35.6981 71.2504 35.6631 71.3404 35.6291 71.3954 35.6011 71.4164 35.5941 71.1324 37.4791 71.0634 37.5211 70.9874 37.5551 70.9114 37.5901 70.8364 37.6241 70.7604 37.6521 70.6774 37.6791 70.5944 37.7071 70.4974 37.7351 70.4004 37.7621 70.2974 37.7831 70.1794 37.8041 70.0554 37.8241 69.9244 37.8451 69.7864 37.8661 69.6274 37.8871 69.4614 37.9071 68.7164 37.9071 68.3224 37.8801 67.9704 37.8381 67.6594 37.7831 67.3904 37.7071 67.1624 37.6241 66.9694 37.5211 66.8104 37.4031 66.6794 37.2721 66.5754 37.1271 66.4994 36.9681 66.4514 36.7961 66.4234 36.6021 66.4164 36.4021 66.4234 36.1811 66.4444 35.9531 66.4784 35.7051 68.3224 24.9051"></polyline>
            <polygon id="Fill-177" fill="#FEFEFE" points="51.4464 33.2878 51.4114 33.4608 51.4054 33.6328 51.4194 33.8198 51.4604 33.9988 51.5154 34.1858 51.5984 34.3718 51.6954 34.5518 51.8124 34.7238 51.9434 34.8898 52.0954 35.0488 52.2544 35.1868 52.4274 35.3178 52.6134 35.4288 52.8064 35.5178 53.0134 35.5868 53.2214 35.6358 53.4694 35.6698 53.7184 35.7048 53.9734 35.7318 54.2294 35.7458 54.4914 35.7528 54.7474 35.7528 55.0164 35.7388 55.2784 35.7188 55.5484 35.6768 55.8244 35.6288 56.1004 35.5598 56.3764 35.4698 56.6524 35.3658 56.9424 35.2418 57.2264 35.0898 57.5164 34.9248 57.0874 37.3758 56.9294 37.4588 56.7704 37.5348 56.6254 37.5968 56.4734 37.6518 56.3214 37.7068 56.1694 37.7488 56.0104 37.7828 55.8384 37.8178 55.6584 37.8378 55.4654 37.8588 55.2514 37.8798 55.0234 37.8868 54.7744 37.9008 54.4984 37.9008 54.1944 37.9068 53.8634 37.9068 53.6214 37.9068 53.3734 37.8938 53.1314 37.8798 52.8824 37.8518 52.6274 37.8178 52.3784 37.7758 52.1304 37.7208 51.8814 37.6658 51.6394 37.5898 51.3984 37.5138 51.1634 37.4238 50.9284 37.3208 50.7004 37.2028 50.4794 37.0788 50.2724 36.9408 50.0654 36.7888 49.8724 36.6228 49.6854 36.4438 49.5064 36.2498 49.3474 36.0428 49.1954 35.8148 49.0574 35.5798 48.9334 35.3248 48.8224 35.0558 48.7254 34.7658 48.6494 34.4618 48.5874 34.1438 48.5464 33.7988 48.5184 33.4398 48.5184 33.0668 48.5324 32.6668 48.5674 32.2518 48.5874 32.1068 48.6084 31.9418 48.6364 31.7758 48.6704 31.5958 48.7054 31.4098 48.7534 31.2158 48.8084 31.0158 48.8644 30.8088 48.9334 30.5948 49.0084 30.3878 49.0984 30.1738 49.1954 29.9598 49.3054 29.7458 49.4234 29.5318 49.5544 29.3178 49.6924 29.1098 49.8514 28.9098 50.0174 28.7098 50.1964 28.5168 50.3964 28.3368 50.6044 28.1578 50.8314 27.9918 51.0734 27.8398 51.3364 27.6948 51.6124 27.5708 51.9094 27.4528 52.2194 27.3498 52.5514 27.2668 52.9034 27.1978 53.2764 27.1488 53.6634 27.1218 54.0774 27.1078 54.2704 27.1078 54.4644 27.1218 54.6644 27.1358 54.8644 27.1558 55.0644 27.1838 55.2714 27.2248 55.4724 27.2738 55.6724 27.3288 55.8724 27.3908 56.0724 27.4668 56.2664 27.5498 56.4524 27.6468 56.6324 27.7568 56.8114 27.8738 56.9774 28.0128 57.1434 28.1578 57.2954 28.3158 57.4404 28.4888 57.5714 28.6818 57.6884 28.8828 57.7994 29.1038 57.8954 29.3378 57.9784 29.5938 58.0404 29.8628 58.0964 30.1528 58.1304 30.4568 58.1444 30.7808 58.1444 31.1268 58.1234 31.4928 58.0894 31.8788 58.0274 32.2868 57.9444 32.7148 57.8334 33.3228 50.6594 33.3228 51.0874 31.4028 55.3894 31.4028 55.4104 31.1408 55.4104 30.8988 55.3964 30.6708 55.3544 30.4638 55.2994 30.2768 55.2304 30.1048 55.1404 29.9528 55.0374 29.8148 54.9194 29.6898 54.7884 29.5868 54.6504 29.5038 54.5054 29.4348 54.3464 29.3798 54.1804 29.3378 54.0084 29.3178 53.8284 29.3108 53.6354 29.3108 53.4554 29.3378 53.2764 29.3728 53.1104 29.4278 52.9514 29.5038 52.7994 29.5938 52.6544 29.6968 52.5234 29.8148 52.3994 29.9528 52.2894 30.0978 52.1854 30.2568 52.0884 30.4288 52.0054 30.6088 51.9364 30.8018 51.8814 31.0088 51.8334 31.2228"></polygon>
            <polyline id="Stroke-179" stroke="#FEFEFE" stroke-width="0.215" points="51.4464 33.2878 51.4464 33.2878 51.4114 33.4608 51.4054 33.6328 51.4194 33.8198 51.4604 33.9988 51.5154 34.1858 51.5984 34.3718 51.6954 34.5518 51.8124 34.7238 51.9434 34.8898 52.0954 35.0488 52.2544 35.1868 52.4274 35.3178 52.6134 35.4288 52.8064 35.5178 53.0134 35.5868 53.2214 35.6358 53.4694 35.6698 53.7184 35.7048 53.9734 35.7318 54.2294 35.7458 54.4914 35.7528 54.7474 35.7528 55.0164 35.7388 55.2784 35.7188 55.5484 35.6768 55.8244 35.6288 56.1004 35.5598 56.3764 35.4698 56.6524 35.3658 56.9424 35.2418 57.2264 35.0898 57.5164 34.9248 57.0874 37.3758 56.9294 37.4588 56.7704 37.5348 56.6254 37.5968 56.4734 37.6518 56.3214 37.7068 56.1694 37.7488 56.0104 37.7828 55.8384 37.8178 55.6584 37.8378 55.4654 37.8588 55.2514 37.8798 55.0234 37.8868 54.7744 37.9008 54.4984 37.9008 54.1944 37.9068 53.8634 37.9068 53.6214 37.9068 53.3734 37.8938 53.1314 37.8798 52.8824 37.8518 52.6274 37.8178 52.3784 37.7758 52.1304 37.7208 51.8814 37.6658 51.6394 37.5898 51.3984 37.5138 51.1634 37.4238 50.9284 37.3208 50.7004 37.2028 50.4794 37.0788 50.2724 36.9408 50.0654 36.7888 49.8724 36.6228 49.6854 36.4438 49.5064 36.2498 49.3474 36.0428 49.1954 35.8148 49.0574 35.5798 48.9334 35.3248 48.8224 35.0558 48.7254 34.7658 48.6494 34.4618 48.5874 34.1438 48.5464 33.7988 48.5184 33.4398 48.5184 33.0668 48.5324 32.6668 48.5674 32.2518 48.5874 32.1068 48.6084 31.9418 48.6364 31.7758 48.6704 31.5958 48.7054 31.4098 48.7534 31.2158 48.8084 31.0158 48.8644 30.8088 48.9334 30.5948 49.0084 30.3878 49.0984 30.1738 49.1954 29.9598 49.3054 29.7458 49.4234 29.5318 49.5544 29.3178 49.6924 29.1098 49.8514 28.9098 50.0174 28.7098 50.1964 28.5168 50.3964 28.3368 50.6044 28.1578 50.8314 27.9918 51.0734 27.8398 51.3364 27.6948 51.6124 27.5708 51.9094 27.4528 52.2194 27.3498 52.5514 27.2668 52.9034 27.1978 53.2764 27.1488 53.6634 27.1218 54.0774 27.1078 54.2704 27.1078 54.4644 27.1218 54.6644 27.1358 54.8644 27.1558 55.0644 27.1838 55.2714 27.2248 55.4724 27.2738 55.6724 27.3288 55.8724 27.3908 56.0724 27.4668 56.2664 27.5498 56.4524 27.6468 56.6324 27.7568 56.8114 27.8738 56.9774 28.0128 57.1434 28.1578 57.2954 28.3158 57.4404 28.4888 57.5714 28.6818 57.6884 28.8828 57.7994 29.1038 57.8954 29.3378 57.9784 29.5938 58.0404 29.8628 58.0964 30.1528 58.1304 30.4568 58.1444 30.7808 58.1444 31.1268 58.1234 31.4928 58.0894 31.8788 58.0274 32.2868 57.9444 32.7148 57.8334 33.3228 50.6594 33.3228 51.0874 31.4028 55.3894 31.4028 55.4104 31.1408 55.4104 30.8988 55.3964 30.6708 55.3544 30.4638 55.2994 30.2768 55.2304 30.1048 55.1404 29.9528 55.0374 29.8148 54.9194 29.6898 54.7884 29.5868 54.6504 29.5038 54.5054 29.4348 54.3464 29.3798 54.1804 29.3378 54.0084 29.3178 53.8284 29.3108 53.6354 29.3108 53.4554 29.3378 53.2764 29.3728 53.1104 29.4278 52.9514 29.5038 52.7994 29.5938 52.6544 29.6968 52.5234 29.8148 52.3994 29.9528 52.2894 30.0978 52.1854 30.2568 52.0884 30.4288 52.0054 30.6088 51.9364 30.8018 51.8814 31.0088 51.8334 31.2228 51.4464 33.2878"></polyline>
            <polygon id="Fill-181" fill="#FEFEFE" points="47.6071 35.7046 47.2131 37.9076 44.7211 37.9076 44.7481 37.7006 44.7761 37.4926 44.8041 37.3066 44.8311 37.1336 44.8591 36.9886 44.8791 36.8646 44.9071 36.7816 44.9351 36.7336 44.8041 36.8856 44.6381 37.0376 44.4511 37.1826 44.2371 37.3206 44.0091 37.4516 43.7611 37.5756 43.4981 37.6866 43.2291 37.7896 42.9461 37.8796 42.6561 37.9556 42.3661 38.0106 42.0761 38.0526 41.7861 38.0726 41.5031 38.0796 41.2271 38.0596 40.9571 38.0176 40.6051 37.9346 40.2951 37.8246 40.0111 37.6936 39.7631 37.5486 39.5421 37.3896 39.3551 37.2096 39.1901 37.0236 39.0521 36.8166 38.9341 36.6096 38.8381 36.3956 38.7621 36.1746 38.6991 35.9466 38.6581 35.7256 38.6301 35.4976 38.6171 35.2766 38.6101 35.0626 38.6371 34.6756 38.6991 34.3096 38.7891 33.9576 38.9201 33.6266 39.0791 33.3156 39.2591 33.0256 39.4731 32.7566 39.7011 32.5006 39.9561 32.2726 40.2251 32.0726 40.5151 31.8856 40.8191 31.7276 41.1371 31.5896 41.4611 31.4786 41.7931 31.3956 42.1311 31.3336 42.1451 31.3336 42.1931 31.3266 42.2691 31.3196 42.3731 31.3056 42.4901 31.2926 42.6281 31.2786 42.7801 31.2576 42.9461 31.2436 43.1121 31.2296 43.2781 31.2096 43.4501 31.1956 43.6161 31.1816 43.7681 31.1676 43.9131 31.1606 44.0441 31.1546 44.1541 31.1546 44.2721 31.1546 44.3891 31.1546 44.5071 31.1546 44.6311 31.1606 44.7481 31.1606 44.8591 31.1676 44.9691 31.1676 45.0801 31.1676 45.1761 31.1746 45.2661 31.1746 45.3421 31.1816 45.4111 31.1816 45.4661 31.1886 45.5081 31.1886 45.5351 31.1886 45.5421 31.1886 45.5631 31.1196 45.6111 30.9536 45.6461 30.7606 45.6461 30.5876 45.6321 30.4636 45.6111 30.3466 45.5771 30.2356 45.5291 30.1326 45.4731 30.0356 45.4041 29.9456 45.3351 29.8626 45.2521 29.7796 45.1631 29.7106 45.0731 29.6556 44.9691 29.6006 44.8661 29.5526 44.7551 29.5176 44.6381 29.4896 44.5201 29.4696 44.4031 29.4556 44.1201 29.4486 43.8231 29.4556 43.5121 29.4626 43.1951 29.4836 42.8771 29.5036 42.5591 29.5316 42.2421 29.5656 41.9311 29.6006 41.6341 29.6486 41.3511 29.6906 41.0951 29.7386 40.8541 29.7936 40.6401 29.8486 40.4601 29.9046 40.3151 29.9596 40.2121 30.0216 40.9231 27.6736 41.1301 27.5776 41.3511 27.4876 41.5721 27.4116 41.8071 27.3496 42.0481 27.3006 42.2971 27.2596 42.5591 27.2256 42.8291 27.1976 43.1051 27.1836 43.3881 27.1696 43.6781 27.1626 43.9821 27.1626 44.2991 27.1626 44.6171 27.1626 44.9491 27.1696 45.2941 27.1766 45.5771 27.2046 45.8741 27.2456 46.1851 27.3216 46.4951 27.4116 46.8061 27.5286 47.1171 27.6736 47.4071 27.8396 47.6831 28.0326 47.9381 28.2536 48.1661 28.4956 48.3601 28.7646 48.5121 29.0616 48.6221 29.3866 48.6841 29.7386 48.6911 30.1116 48.6361 30.5186"></polygon>
            <polyline id="Stroke-183" stroke="#FEFEFE" stroke-width="0.215" points="47.6071 35.7046 47.2131 37.9076 44.7211 37.9076 44.7481 37.7006 44.7761 37.4926 44.8041 37.3066 44.8311 37.1336 44.8591 36.9886 44.8791 36.8646 44.9071 36.7816 44.9351 36.7336 44.8041 36.8856 44.6381 37.0376 44.4511 37.1826 44.2371 37.3206 44.0091 37.4516 43.7611 37.5756 43.4981 37.6866 43.2291 37.7896 42.9461 37.8796 42.6561 37.9556 42.3661 38.0106 42.0761 38.0526 41.7861 38.0726 41.5031 38.0796 41.2271 38.0596 40.9571 38.0176 40.6051 37.9346 40.2951 37.8246 40.0111 37.6936 39.7631 37.5486 39.5421 37.3896 39.3551 37.2096 39.1901 37.0236 39.0521 36.8166 38.9341 36.6096 38.8381 36.3956 38.7621 36.1746 38.6991 35.9466 38.6581 35.7256 38.6301 35.4976 38.6171 35.2766 38.6101 35.0626 38.6371 34.6756 38.6991 34.3096 38.7891 33.9576 38.9201 33.6266 39.0791 33.3156 39.2591 33.0256 39.4731 32.7566 39.7011 32.5006 39.9561 32.2726 40.2251 32.0726 40.5151 31.8856 40.8191 31.7276 41.1371 31.5896 41.4611 31.4786 41.7931 31.3956 42.1311 31.3336 42.1451 31.3336 42.1931 31.3266 42.2691 31.3196 42.3731 31.3056 42.4901 31.2926 42.6281 31.2786 42.7801 31.2576 42.9461 31.2436 43.1121 31.2296 43.2781 31.2096 43.4501 31.1956 43.6161 31.1816 43.7681 31.1676 43.9131 31.1606 44.0441 31.1546 44.1541 31.1546 44.2721 31.1546 44.3891 31.1546 44.5071 31.1546 44.6311 31.1606 44.7481 31.1606 44.8591 31.1676 44.9691 31.1676 45.0801 31.1676 45.1761 31.1746 45.2661 31.1746 45.3421 31.1816 45.4111 31.1816 45.4661 31.1886 45.5081 31.1886 45.5351 31.1886 45.5421 31.1886 45.5631 31.1196 45.6111 30.9536 45.6461 30.7606 45.6461 30.5876 45.6321 30.4636 45.6111 30.3466 45.5771 30.2356 45.5291 30.1326 45.4731 30.0356 45.4041 29.9456 45.3351 29.8626 45.2521 29.7796 45.1631 29.7106 45.0731 29.6556 44.9691 29.6006 44.8661 29.5526 44.7551 29.5176 44.6381 29.4896 44.5201 29.4696 44.4031 29.4556 44.1201 29.4486 43.8231 29.4556 43.5121 29.4626 43.1951 29.4836 42.8771 29.5036 42.5591 29.5316 42.2421 29.5656 41.9311 29.6006 41.6341 29.6486 41.3511 29.6906 41.0951 29.7386 40.8541 29.7936 40.6401 29.8486 40.4601 29.9046 40.3151 29.9596 40.2121 30.0216 40.9231 27.6736 41.1301 27.5776 41.3511 27.4876 41.5721 27.4116 41.8071 27.3496 42.0481 27.3006 42.2971 27.2596 42.5591 27.2256 42.8291 27.1976 43.1051 27.1836 43.3881 27.1696 43.6781 27.1626 43.9821 27.1626 44.2991 27.1626 44.6171 27.1626 44.9491 27.1696 45.2941 27.1766 45.5771 27.2046 45.8741 27.2456 46.1851 27.3216 46.4951 27.4116 46.8061 27.5286 47.1171 27.6736 47.4071 27.8396 47.6831 28.0326 47.9381 28.2536 48.1661 28.4956 48.3601 28.7646 48.5121 29.0616 48.6221 29.3866 48.6841 29.7386 48.6911 30.1116 48.6361 30.5186 47.6071 35.7046"></polyline>
            <polygon id="Fill-185" fill="#0084C4" points="45.2249 33.1083 45.2179 33.0533 45.1769 33.0113 45.1079 32.9773 45.0179 32.9563 44.8999 32.9423 44.7759 32.9353 44.6309 32.9353 44.4789 32.9353 44.3199 32.9493 44.1549 32.9703 43.9959 32.9913 43.8369 33.0183 43.6849 33.0463 43.5399 33.0733 43.4159 33.1083 43.3049 33.1433 43.2429 33.1563 43.1599 33.1843 43.0569 33.2183 42.9459 33.2673 42.8289 33.3153 42.6979 33.3773 42.5669 33.4533 42.4349 33.5293 42.3039 33.6263 42.1799 33.7293 42.0619 33.8403 41.9589 33.9643 41.8619 34.0953 41.7929 34.2403 41.7379 34.3993 41.7029 34.5653 41.6899 34.9033 41.7379 35.1663 41.8209 35.3733 41.9449 35.5253 42.0969 35.6283 42.2559 35.6973 42.4279 35.7323 42.5939 35.7393 42.8979 35.7323 43.1669 35.7043 43.4229 35.6563 43.6509 35.5943 43.8579 35.5253 44.0439 35.4423 44.2099 35.3453 44.3549 35.2423 44.4859 35.1383 44.5969 35.0213 44.6929 34.9103 44.7759 34.7933 44.8449 34.6753 44.8999 34.5653 44.9419 34.4543 44.9759 34.3513 45.0109 34.1993 45.0449 34.0403 45.0799 33.8743 45.1139 33.7023 45.1419 33.5363 45.1699 33.3843 45.1969 33.2393"></polygon>
            <polygon id="Fill-187" fill="#FEFEFE" points="26.7675 37.9073 24.0675 37.9073 26.3395 24.9053 31.0345 24.9053 31.4975 32.6453 34.6945 24.9053 39.5695 24.9053 37.2905 37.9073 34.5915 37.9073 36.2965 28.1713 36.1925 28.1713 32.1745 37.9073 29.1495 37.9073 29.1225 37.5003 29.0595 36.4163 28.9705 34.8833 28.8665 33.1223 28.7635 31.3473 28.6735 29.7803 28.6115 28.6473 28.5835 28.1713 28.5765 28.1713 28.5495 28.1713 28.5215 28.1713 28.4865 28.1713 28.4595 28.1713 28.4455 28.1713 28.4735 28.1713"></polygon>
            <polyline id="Stroke-189" stroke="#FEFEFE" stroke-width="0.215" points="26.7675 37.9073 24.0675 37.9073 26.3395 24.9053 31.0345 24.9053 31.4975 32.6453 34.6945 24.9053 39.5695 24.9053 37.2905 37.9073 34.5915 37.9073 36.2965 28.1713 36.1925 28.1713 32.1745 37.9073 29.1495 37.9073 29.1225 37.5003 29.0595 36.4163 28.9705 34.8833 28.8665 33.1223 28.7635 31.3473 28.6735 29.7803 28.6115 28.6473 28.5835 28.1713 28.5765 28.1713 28.5495 28.1713 28.5215 28.1713 28.4865 28.1713 28.4595 28.1713 28.4455 28.1713 28.4735 28.1713 26.7675 37.9073"></polyline>
            <polygon id="Fill-191" fill="#FEFEFE" points="71.8785 37.9073 74.6885 37.9073 75.6485 32.2933 75.6905 32.0723 75.7385 31.8583 75.7935 31.6443 75.8625 31.4443 75.9385 31.2443 76.0355 31.0573 76.1525 30.8783 76.2835 30.7053 76.4425 30.5533 76.6225 30.4153 76.8365 30.2913 77.0715 30.1803 77.3475 30.0913 77.6585 30.0213 78.0035 29.9803 78.3905 29.9523 78.4245 29.9523 78.4655 29.9593 78.5215 29.9663 78.5765 29.9663 78.6245 29.9733 78.6665 29.9803 78.6935 29.9873 78.7075 29.9873 78.7145 29.9463 78.7425 29.8283 78.7765 29.6493 78.8315 29.4213 78.9015 29.1653 78.9765 28.8893 79.0665 28.6133 79.1705 28.3503 79.2465 28.1573 79.3365 27.9713 79.4255 27.7843 79.5225 27.6123 79.6055 27.4673 79.6745 27.3493 79.7225 27.2733 79.7365 27.2463 79.7225 27.2463 79.6885 27.2323 79.6395 27.2253 79.5705 27.2113 79.5015 27.1973 79.4185 27.1903 79.3425 27.1773 79.2735 27.1773 78.9705 27.1973 78.6935 27.2323 78.4385 27.2873 78.2035 27.3493 77.9825 27.4323 77.7825 27.5223 77.5895 27.6323 77.4165 27.7503 77.2435 27.8813 77.0845 28.0263 76.9395 28.1783 76.7885 28.3443 76.6435 28.5163 76.5045 28.7033 76.3595 28.8963 76.2145 29.0963 76.5395 27.3223 73.7295 27.2873"></polygon>
            <polyline id="Stroke-193" stroke="#FEFEFE" stroke-width="0.215" points="71.8785 37.9073 74.6885 37.9073 75.6485 32.2933 75.6905 32.0723 75.7385 31.8583 75.7935 31.6443 75.8625 31.4443 75.9385 31.2443 76.0355 31.0573 76.1525 30.8783 76.2835 30.7053 76.4425 30.5533 76.6225 30.4153 76.8365 30.2913 77.0715 30.1803 77.3475 30.0913 77.6585 30.0213 78.0035 29.9803 78.3905 29.9523 78.4245 29.9523 78.4655 29.9593 78.5215 29.9663 78.5765 29.9663 78.6245 29.9733 78.6665 29.9803 78.6935 29.9873 78.7075 29.9873 78.7145 29.9463 78.7425 29.8283 78.7765 29.6493 78.8315 29.4213 78.9015 29.1653 78.9765 28.8893 79.0665 28.6133 79.1705 28.3503 79.2465 28.1573 79.3365 27.9713 79.4255 27.7843 79.5225 27.6123 79.6055 27.4673 79.6745 27.3493 79.7225 27.2733 79.7365 27.2463 79.7225 27.2463 79.6885 27.2323 79.6395 27.2253 79.5705 27.2113 79.5015 27.1973 79.4185 27.1903 79.3425 27.1773 79.2735 27.1773 78.9705 27.1973 78.6935 27.2323 78.4385 27.2873 78.2035 27.3493 77.9825 27.4323 77.7825 27.5223 77.5895 27.6323 77.4165 27.7503 77.2435 27.8813 77.0845 28.0263 76.9395 28.1783 76.7885 28.3443 76.6435 28.5163 76.5045 28.7033 76.3595 28.8963 76.2145 29.0963 76.5395 27.3223 73.7295 27.2873 71.8785 37.9073"></polyline>
            <polygon id="Fill-195" fill="#FEFEFE" points="84.0384 27.1768 84.3494 27.1838 84.6534 27.2048 84.9504 27.2318 85.2404 27.2738 85.5164 27.3288 85.7854 27.3978 86.0404 27.4738 86.2964 27.5638 86.5384 27.6668 86.7664 27.7778 86.9934 27.8948 87.2014 28.0258 87.4084 28.1708 87.6014 28.3228 87.7814 28.4818 87.9534 28.6548 88.1194 28.8338 88.2714 29.0278 88.4094 29.2208 88.5404 29.4278 88.6644 29.6418 88.7684 29.8698 88.8724 30.0978 88.9544 30.3398 89.0304 30.5808 89.0934 30.8368 89.1484 31.0988 89.1894 31.3678 89.2174 31.6378 89.2314 31.9208 89.2384 32.2108 89.2314 32.5008 89.2104 32.8528 89.1684 33.1908 89.1204 33.5158 89.0584 33.8338 88.9894 34.1368 88.8994 34.4268 88.8034 34.7098 88.6994 34.9798 88.5754 35.2348 88.4504 35.4838 88.3054 35.7188 88.1604 35.9398 88.0024 36.1538 87.8294 36.3538 87.6494 36.5398 87.4634 36.7198 87.2704 36.8858 87.0694 37.0438 86.8554 37.1888 86.6414 37.3208 86.4134 37.4448 86.1794 37.5548 85.9444 37.6588 85.6954 37.7488 85.4474 37.8318 85.1844 37.9008 84.9224 37.9558 84.6604 38.0038 84.3834 38.0388 84.1074 38.0658 83.8244 38.0798 83.5414 38.0868 83.2584 38.0798 82.9754 38.0658 82.7054 38.0388 82.4364 37.9968 82.1744 37.9488 81.9114 37.8938 81.6634 37.8248 81.4214 37.7418 81.1794 37.6518 80.9514 37.5478 80.7304 37.4378 80.5164 37.3138 80.3094 37.1818 80.1164 37.0368 79.9234 36.8858 79.7434 36.7198 79.5774 36.5468 79.4124 36.3608 79.2674 36.1668 79.1224 35.9598 78.9974 35.7458 78.8734 35.5178 78.7694 35.2838 78.6734 35.0418 78.5904 34.7858 78.5144 34.5168 78.4524 34.2408 78.4034 33.9578 78.3694 33.6608 78.3484 33.3568 78.3414 33.0388 78.3484 32.7148 78.3694 32.3828 78.4034 32.0658 78.4524 31.7548 78.5144 31.4578 78.5834 31.1678 78.6664 30.8848 78.7564 30.6158 78.8594 30.3528 78.9704 30.0978 79.0944 29.8558 79.2324 29.6278 79.3774 29.3998 79.5294 29.1928 79.6954 28.9858 79.8674 28.7998 80.0474 28.6128 80.2404 28.4408 80.4404 28.2818 80.6484 28.1298 80.8624 27.9918 81.0904 27.8678 81.3244 27.7428 81.5664 27.6398 81.8084 27.5428 82.0634 27.4598 82.3264 27.3838 82.5954 27.3218 82.8714 27.2668 83.1544 27.2318 83.4444 27.1978 83.7414 27.1838"></polygon>
            <polyline id="Stroke-197" stroke="#FEFEFE" stroke-width="0.215" points="84.0384 27.1768 84.0384 27.1768 84.3494 27.1838 84.6534 27.2048 84.9504 27.2318 85.2404 27.2738 85.5164 27.3288 85.7854 27.3978 86.0404 27.4738 86.2964 27.5638 86.5384 27.6668 86.7664 27.7778 86.9934 27.8948 87.2014 28.0258 87.4084 28.1708 87.6014 28.3228 87.7814 28.4818 87.9534 28.6548 88.1194 28.8338 88.2714 29.0278 88.4094 29.2208 88.5404 29.4278 88.6644 29.6418 88.7684 29.8698 88.8724 30.0978 88.9544 30.3398 89.0304 30.5808 89.0934 30.8368 89.1484 31.0988 89.1894 31.3678 89.2174 31.6378 89.2314 31.9208 89.2384 32.2108 89.2314 32.5008 89.2104 32.8528 89.1684 33.1908 89.1204 33.5158 89.0584 33.8338 88.9894 34.1368 88.8994 34.4268 88.8034 34.7098 88.6994 34.9798 88.5754 35.2348 88.4504 35.4838 88.3054 35.7188 88.1604 35.9398 88.0024 36.1538 87.8294 36.3538 87.6494 36.5398 87.4634 36.7198 87.2704 36.8858 87.0694 37.0438 86.8554 37.1888 86.6414 37.3208 86.4134 37.4448 86.1794 37.5548 85.9444 37.6588 85.6954 37.7488 85.4474 37.8318 85.1844 37.9008 84.9224 37.9558 84.6604 38.0038 84.3834 38.0388 84.1074 38.0658 83.8244 38.0798 83.5414 38.0868 83.2584 38.0798 82.9754 38.0658 82.7054 38.0388 82.4364 37.9968 82.1744 37.9488 81.9114 37.8938 81.6634 37.8248 81.4214 37.7418 81.1794 37.6518 80.9514 37.5478 80.7304 37.4378 80.5164 37.3138 80.3094 37.1818 80.1164 37.0368 79.9234 36.8858 79.7434 36.7198 79.5774 36.5468 79.4124 36.3608 79.2674 36.1668 79.1224 35.9598 78.9974 35.7458 78.8734 35.5178 78.7694 35.2838 78.6734 35.0418 78.5904 34.7858 78.5144 34.5168 78.4524 34.2408 78.4034 33.9578 78.3694 33.6608 78.3484 33.3568 78.3414 33.0388 78.3484 32.7148 78.3694 32.3828 78.4034 32.0658 78.4524 31.7548 78.5144 31.4578 78.5834 31.1678 78.6664 30.8848 78.7564 30.6158 78.8594 30.3528 78.9704 30.0978 79.0944 29.8558 79.2324 29.6278 79.3774 29.3998 79.5294 29.1928 79.6954 28.9858 79.8674 28.7998 80.0474 28.6128 80.2404 28.4408 80.4404 28.2818 80.6484 28.1298 80.8624 27.9918 81.0904 27.8678 81.3244 27.7428 81.5664 27.6398 81.8084 27.5428 82.0634 27.4598 82.3264 27.3838 82.5954 27.3218 82.8714 27.2668 83.1544 27.2318 83.4444 27.1978 83.7414 27.1838 84.0384 27.1768"></polyline>
            <polygon id="Fill-199" fill="#FEFEFE" points="88.1677 37.3757 88.9827 37.3757 88.9827 37.4787 88.6647 37.4787 88.6647 38.1557 88.4857 38.1557 88.4857 37.4787 88.1677 37.4787"></polygon>
            <polyline id="Stroke-201" stroke="#FEFEFE" stroke-width="0.215" points="88.1677 37.3757 88.9827 37.3757 88.9827 37.4787 88.6647 37.4787 88.6647 38.1557 88.4857 38.1557 88.4857 37.4787 88.1677 37.4787 88.1677 37.3757"></polyline>
            <polygon id="Fill-203" fill="#FEFEFE" points="89.0861 37.3757 89.3351 37.3757 89.6251 37.9767 89.9081 37.3757 90.1561 37.3757 90.1561 38.1557 89.9771 38.1557 89.9771 37.5557 89.6941 38.1557 89.5491 38.1557 89.2661 37.5557 89.2661 38.1557 89.0861 38.1557"></polygon>
            <polyline id="Stroke-205" stroke="#FEFEFE" stroke-width="0.215" points="89.0861 37.3757 89.3351 37.3757 89.6251 37.9767 89.9081 37.3757 90.1561 37.3757 90.1561 38.1557 89.9771 38.1557 89.9771 37.5557 89.6941 38.1557 89.5491 38.1557 89.2661 37.5557 89.2661 38.1557 89.0861 38.1557 89.0861 37.3757"></polyline>
            <polygon id="Fill-207" fill="#ED1B2D" points="81.8357 32.2521 81.7947 32.6391 81.7737 32.9981 81.7737 33.3221 81.7947 33.6261 81.8357 33.9021 81.8977 34.1441 81.9737 34.3651 82.0707 34.5651 82.1877 34.7381 82.3187 34.8831 82.4637 35.0071 82.6227 35.1041 82.7957 35.1801 82.9887 35.2351 83.1887 35.2631 83.4027 35.2761 83.6377 35.2701 83.8657 35.2421 84.0797 35.1941 84.2867 35.1181 84.4807 35.0211 84.6667 34.8971 84.8397 34.7521 85.0047 34.5791 85.1497 34.3861 85.2887 34.1651 85.4197 33.9161 85.5297 33.6471 85.6337 33.3501 85.7237 33.0251 85.7927 32.6731 85.8547 32.2931 85.8887 31.9971 85.9097 31.7131 85.9097 31.4371 85.8887 31.1751 85.8547 30.9331 85.7997 30.6981 85.7237 30.4841 85.6337 30.2841 85.5227 30.1051 85.3987 29.9531 85.2537 29.8141 85.0947 29.7041 84.9157 29.6141 84.7217 29.5591 84.5147 29.5241 84.2867 29.5241 84.0037 29.5451 83.7417 29.5941 83.4997 29.6761 83.2717 29.7801 83.0647 29.9181 82.8717 30.0701 82.6987 30.2431 82.5467 30.4361 82.4017 30.6431 82.2777 30.8641 82.1667 31.0851 82.0777 31.3201 81.9947 31.5551 81.9257 31.7891 81.8767 32.0241"></polygon>
        </g>
    </g>
</svg>