<?xml version="1.0" encoding="UTF-8" standalone="no"?>
<svg width="150px" height="37px" viewBox="0 0 150 37" version="1.1" xmlns="http://www.w3.org/2000/svg" xmlns:xlink="http://www.w3.org/1999/xlink">
    <!-- Generator: Sketch 3.8.3 (29802) - http://www.bohemiancoding.com/sketch -->
    <title>paypal-icon--white</title>
    <desc>Created with Sketch.</desc>
    <defs></defs>
    <g id="Page-1" stroke="none" stroke-width="1" fill="none" fill-rule="evenodd">
        <path d="M115.206921,8.1173 L106.980921,8.1173 C106.417921,8.1173 105.939921,8.5263 105.851921,9.0813 L102.525921,30.1743 C102.459921,30.5903 102.781921,30.9663 103.202921,30.9663 L107.423921,30.9663 C107.816921,30.9663 108.152921,30.6803 108.213921,30.2913 L109.156921,24.3113 C109.244921,23.7553 109.722921,23.3463 110.285921,23.3463 L112.888921,23.3463 C118.306921,23.3463 121.433921,20.7243 122.250921,15.5273 C122.618921,13.2543 122.265921,11.4683 121.201921,10.2183 C120.031921,8.8433 117.958921,8.1173 115.206921,8.1173 Z M56.5378208,8.1173 L48.3118208,8.1173 C47.7488208,8.1173 47.2708208,8.5263 47.1828208,9.0813 L43.8568208,30.1743 C43.7908208,30.5903 44.1128208,30.9663 44.5338208,30.9663 L48.4618208,30.9663 C49.0238208,30.9663 49.5028208,30.5573 49.5898208,30.0013 L50.4878208,24.3113 C50.5758208,23.7553 51.0538208,23.3463 51.6168208,23.3463 L54.2198208,23.3463 C59.6378208,23.3463 62.7648208,20.7243 63.5818208,15.5273 C63.9498208,13.2543 63.5968208,11.4683 62.5328208,10.2183 C61.3628208,8.8433 59.2898208,8.1173 56.5378208,8.1173 Z M81.1231208,15.7255 L77.1851208,15.7255 C76.8471208,15.7255 76.5601208,15.9715 76.5071208,16.3045 L76.3341208,17.4065 L76.0591208,17.0075 C75.2061208,15.7685 73.3051208,15.3555 71.4061208,15.3555 C67.0551208,15.3555 63.3371208,18.6525 62.6141208,23.2775 C62.2371208,25.5855 62.7721208,27.7905 64.0801208,29.3295 C65.2821208,30.7435 66.9971208,31.3315 69.0411208,31.3315 C72.5481208,31.3315 74.4941208,29.0785 74.4941208,29.0785 L74.3181208,30.1735 C74.2521208,30.5895 74.5741208,30.9665 74.9951208,30.9665 L78.5421208,30.9665 C79.1051208,30.9665 79.5841208,30.5575 79.6711208,30.0015 L81.8011208,16.5185 C81.8661208,16.1025 81.5451208,15.7255 81.1231208,15.7255 Z M139.792221,15.7255 L135.854221,15.7255 C135.516221,15.7255 135.229221,15.9715 135.176221,16.3045 L135.003221,17.4065 L134.728221,17.0075 C133.875221,15.7685 131.974221,15.3555 130.075221,15.3555 C125.724221,15.3555 122.006221,18.6525 121.283221,23.2775 C120.906221,25.5855 121.441221,27.7905 122.749221,29.3295 C123.951221,30.7435 125.666221,31.3315 127.710221,31.3315 C131.217221,31.3315 133.163221,29.0785 133.163221,29.0785 L132.987221,30.1735 C132.921221,30.5895 133.243221,30.9665 133.664221,30.9665 L137.211221,30.9665 C137.774221,30.9665 138.253221,30.5575 138.340221,30.0015 L140.470221,16.5185 C140.535221,16.1025 140.214221,15.7255 139.792221,15.7255 Z M102.101921,15.7259 L98.1429208,15.7259 C97.7639208,15.7259 97.4099208,15.9139 97.1969208,16.2269 L91.7359208,24.2699 L89.4219208,16.5409 C89.2769208,16.0579 88.8319208,15.7259 88.3269208,15.7259 L84.4349208,15.7259 C83.9649208,15.7259 83.6349208,16.1879 83.7859208,16.6329 L88.1459208,29.4289 L84.0449208,35.2139 C83.7229208,35.6689 84.0479208,36.2969 84.6049208,36.2969 L88.5599208,36.2969 C88.9349208,36.2969 89.2859208,36.1129 89.4989208,35.8049 L102.665921,16.8029 C102.980921,16.3479 102.654921,15.7259 102.101921,15.7259 Z M144.435121,8.6962 L141.059121,30.1742 C140.993121,30.5902 141.315121,30.9662 141.736121,30.9662 L145.132121,30.9662 C145.694121,30.9662 146.173121,30.5572 146.260121,30.0022 L149.589121,8.9092 C149.655121,8.4932 149.333121,8.1172 148.912121,8.1172 L145.112121,8.1172 C144.775121,8.1172 144.487121,8.3632 144.435121,8.6962 Z M14.4204208,20.9386 L11.8874208,20.9386 L11.2164208,20.9386 C10.8054208,20.9386 10.4604208,21.2356 10.3954208,21.6446 C10.3954208,21.6446 8.3524208,34.5156 8.2264208,35.3606 C8.1494208,35.8766 8.5964208,36.2966 9.0664208,36.2966 L14.1584208,36.2966 C14.8534208,36.2966 15.4454208,35.7906 15.5534208,35.1046 L16.7884208,27.4066 C16.8964208,26.7206 17.4884208,26.2146 18.1824208,26.2146 L19.0604208,26.2146 C24.7474208,26.2146 29.2004208,23.9036 30.5014208,17.2226 C31.0454208,14.4306 30.8734208,11.3256 28.4164208,9.6906 C27.6184208,14.1306 25.1164208,20.9386 14.4204208,20.9386 Z M11.2161208,19.384 L14.5261208,19.384 C16.2821208,19.384 17.8501208,19.187 19.2351208,18.789 C22.7401208,17.784 25.0961208,15.502 26.2771208,11.877 C27.7641208,7.313 27.1051208,4.609 25.4121208,2.737 C23.7031208,0.846 20.6931208,0 16.8071208,0 L6.3031208,0 C5.5091208,0 4.8331208,0.578 4.7091208,1.363 L0.0121207976,31.15 C-0.0808792024,31.738 0.373120798,32.269 0.968120798,32.269 L7.1551208,32.269 C7.1551208,32.269 8.8191208,21.817 8.8661208,21.512 C9.0241208,20.495 9.6671208,19.384 11.2161208,19.384 Z M116.155921,15.8203 C115.705921,18.7733 113.450921,18.7733 111.269921,18.7733 L110.028921,18.7733 L110.899921,13.2603 C110.951921,12.9273 111.239921,12.6813 111.576921,12.6813 L112.145921,12.6813 C113.630921,12.6813 115.032921,12.6813 115.755921,13.5273 C116.188921,14.0333 116.319921,14.7833 116.155921,15.8203 Z M57.4868208,15.8203 C57.0368208,18.7733 54.7818208,18.7733 52.6008208,18.7733 L51.3598208,18.7733 L52.2308208,13.2603 C52.2828208,12.9273 52.5708208,12.6813 52.9078208,12.6813 L53.4768208,12.6813 C54.9618208,12.6813 56.3638208,12.6813 57.0868208,13.5273 C57.5198208,14.0333 57.6508208,14.7833 57.4868208,15.8203 Z M75.6341208,23.3925 C75.2541208,25.6435 73.4671208,27.1535 71.1881208,27.1535 C70.0461208,27.1535 69.1311208,26.7865 68.5431208,26.0905 C67.9611208,25.4005 67.7411208,24.4185 67.9261208,23.3245 C68.2811208,21.0935 70.0961208,19.5345 72.3401208,19.5345 C73.4591208,19.5345 74.3671208,19.9045 74.9661208,20.6075 C75.5701208,21.3145 75.8071208,22.3035 75.6341208,23.3925 Z M134.303221,23.3925 C133.923221,25.6435 132.136221,27.1535 129.857221,27.1535 C128.715221,27.1535 127.800221,26.7865 127.212221,26.0905 C126.630221,25.4005 126.410221,24.4185 126.595221,23.3245 C126.950221,21.0935 128.765221,19.5345 131.009221,19.5345 C132.128221,19.5345 133.036221,19.9045 133.635221,20.6075 C134.239221,21.3145 134.476221,22.3035 134.303221,23.3925 Z" id="paypal" fill="#FFFFFF"></path>
    </g>
</svg>